<svg width="90" height="97" viewBox="0 0 90 97" fill="none" xmlns="http://www.w3.org/2000/svg">
<path fill-rule="evenodd" clip-rule="evenodd" d="M15.3331 0.233783C14.5103 0.708997 14.4981 0.802865 14.4919 6.69526L14.4858 12.3426L11.5026 16.0863C9.86197 18.1453 8.42155 20.0143 8.30161 20.2398C8.14872 20.5275 8.08394 22.6259 8.08394 27.2876V33.9256L4.51113 33.9844C-0.237376 34.0627 0.101358 33.7263 0.0224646 38.4434C-0.0417426 42.2946 0.00175236 42.686 0.557022 43.2452C0.880317 43.5708 1.18855 43.6197 2.91179 43.6197C4.32604 43.6197 4.91991 43.6876 4.98223 43.8568C5.03024 43.9873 6.46351 54.9815 8.16736 68.2886C9.87139 81.5957 11.3638 92.7011 11.4841 92.9671C11.6046 93.2332 11.9094 93.5455 12.1618 93.6614C12.4884 93.8112 18.1149 93.8719 31.6881 93.8719H50.7555L51.304 94.4485C52.067 95.2505 53.3846 96.0702 54.7012 96.5621C55.6861 96.93 56.1984 96.9797 59.1107 96.9896C62.6798 97.0017 62.8718 96.9659 65.7951 95.7465C67.1395 95.1858 67.4936 95.1183 69.0901 95.1183C70.6867 95.1183 71.0408 95.1858 72.3852 95.7465C75.2806 96.9543 75.5163 96.9992 78.9754 97C81.6022 97.0006 82.355 96.938 83.1732 96.6509C84.7706 96.0902 85.8603 95.3955 87.1209 94.1343C88.4349 92.8196 89.4751 90.885 89.7993 89.1527C90.1156 87.4623 90.0396 76.9437 89.7004 75.4953C88.9207 72.1635 86.2734 69.3727 82.9075 68.3345C82.028 68.0633 81.1984 67.9968 78.8813 68.0121C75.753 68.0328 75.9477 67.992 71.8204 69.4901C70.0131 70.1462 68.1641 70.1457 66.3599 69.4886C65.635 69.2246 64.4766 68.8215 63.7858 68.5928C62.6295 68.2099 62.5365 68.1392 62.6128 67.7028C62.6583 67.4421 63.3324 62.1941 64.1104 56.0406C64.8884 49.887 65.574 44.5749 65.6339 44.236L65.7429 43.6197H67.7602C69.685 43.6197 69.7987 43.5974 70.2342 43.1309C70.675 42.6585 70.6927 42.5303 70.7527 39.3675C70.7912 37.3479 70.7343 35.7918 70.6046 35.3067C70.2726 34.0646 69.8796 33.9486 66.0065 33.9486H62.7161L62.6551 31.2001L62.5941 28.4516L58.5929 24.4191L54.5918 20.3868V17.8844V15.382L55.7659 14.4252C56.4116 13.8989 56.9851 13.4685 57.0403 13.4685C57.0955 13.4685 58.0653 15.3375 59.1957 17.6216L61.2507 21.7749L62.6286 21.0882C63.3863 20.7107 64.0063 20.3342 64.0063 20.2519C64.0063 20.1696 63.0319 18.1412 61.841 15.744C60.65 13.3469 59.6756 11.3528 59.6756 11.3124C59.6756 11.272 60.1283 10.8872 60.6815 10.4575L61.6875 9.67587L64.8709 9.6698C67.0762 9.66563 68.1464 9.59281 68.3534 9.43276C69.009 8.92588 69.0901 8.40914 69.0901 4.74339V1.11329L68.5398 0.559L67.9894 0.00470946L59.1723 0.0062265C53.9826 0.00698503 49.8594 0.0885262 49.15 0.20458C42.4786 1.29477 37.286 7.10125 37.0385 13.7482C36.9918 15.0022 37.0327 15.193 37.443 15.6333C37.8768 16.0988 37.9964 16.1233 39.8437 16.1233H41.788V18.254V20.3847L39.3873 22.8076L36.9866 25.2303L36.9267 29.5896L36.867 33.9486H35.2792H33.6915V27.299C33.6915 22.6288 33.6267 20.5275 33.4738 20.2398C33.3539 20.0143 31.9135 18.1453 30.2729 16.0863L27.2896 12.3426L27.2836 6.69526C27.2774 0.762094 27.267 0.686242 26.4076 0.22525C25.8379 -0.080245 15.8637 -0.0726599 15.3331 0.233783ZM24.0887 7.30549V11.3825H20.8877H17.6868V7.30549V3.22843H20.8877H24.0887V7.30549ZM59.4845 5.26696L59.4817 7.30549L56.0036 10.1025L52.5253 12.8996H46.4083H40.2911L40.4046 12.2833C40.614 11.1472 41.6008 8.99187 42.4491 7.81768C43.907 5.79982 46.1686 4.30515 48.825 3.60371C49.9547 3.30542 50.9035 3.24758 54.8271 3.23886L59.4873 3.22843L59.4845 5.26696ZM65.8892 4.84029V6.45215H64.2887H62.6883V4.84029V3.22843H64.2887H65.8892V4.84029ZM26.8027 16.9292L28.6411 19.2522L24.7644 19.3034C22.6322 19.3317 19.1432 19.3317 17.011 19.3034L13.1343 19.2522L14.9727 16.9292L16.8112 14.6063H20.8877H24.9642L26.8027 16.9292ZM51.3908 17.7352V19.347H48.1899H44.9889V17.7352V16.1233H48.1899H51.3908V17.7352ZM30.4905 28.2597V33.9486H20.8877H11.2849V28.2597V22.5708H20.8877H30.4905V28.2597ZM55.8646 26.2228L59.4873 29.8751V31.9118V33.9486H49.7903H40.0934V30.3012V26.6541L42.1143 24.6123L44.1352 22.5708H48.1886H52.2417L55.8646 26.2228ZM15.9922 38.7842V40.396H9.59027H3.18838V38.7842V37.1723H9.59027H15.9922V38.7842ZM41.788 43.1034C41.788 48.2077 41.8296 49.0944 42.086 49.4634C42.2612 49.715 44.4709 50.9433 47.4399 52.4391C50.2204 53.8401 52.6706 55.1756 52.8845 55.407C53.4985 56.0707 53.4208 57.3439 52.7233 58.0463C51.8237 58.9523 51.3068 58.8342 47.217 56.7883C43.305 54.8313 43.0198 54.7681 42.2116 55.6789L41.788 56.1566V64.7803C41.788 71.6811 41.7362 73.5258 41.5287 74.0141C41.2152 74.7522 40.3788 75.5704 39.6575 75.8448C38.5223 76.2768 38.587 76.7061 38.587 68.7458V61.445H36.9866H35.3861V68.7458V76.0466H33.7856H32.1852V68.7458V61.445H30.5847H28.9842V68.7458V76.0466H27.386H25.7878L25.7385 68.7932L25.6891 61.5398L24.1357 61.4848L22.5823 61.4297V68.7629V76.0963L21.9058 75.9857C21.0743 75.8497 20.0562 75.0924 19.6166 74.2826C19.3106 73.7192 19.2835 72.3977 19.2347 55.6704C19.2057 45.7671 19.2242 37.5537 19.2758 37.4184C19.3513 37.2205 21.5656 37.1723 30.5788 37.1723H41.788V43.1034ZM67.3955 38.7842V40.396H56.1922H44.9889V38.7842V37.1723H56.1922H67.3955V38.7842ZM16.0319 58.8376L16.0863 74.0555L16.5162 75.1263C17.2902 77.0541 18.8979 78.4962 20.8945 79.0537C21.5234 79.2293 24.0591 79.2743 30.9613 79.232L40.1875 79.1755L41.2231 78.6752C42.4082 78.1029 43.2139 77.3954 43.9405 76.2897C44.9087 74.8163 44.9842 74.1034 44.9867 66.4228C44.988 62.5377 45.0228 59.3591 45.0641 59.3591C45.1055 59.3591 46.2704 59.9138 47.653 60.5915C49.9628 61.724 50.2663 61.8239 51.3908 61.8222C52.9212 61.8201 54.2131 61.2533 55.1994 60.1516C56.161 59.0773 56.5199 58.1587 56.5464 56.7043C56.5731 55.2293 55.9102 53.6635 54.8691 52.7429C54.5121 52.4273 52.1432 51.12 49.6051 49.8381L44.9901 47.5072L44.9895 45.5635L44.9889 43.6197H53.6392C58.3969 43.6197 62.3222 43.6838 62.3623 43.762C62.4156 43.8663 59.3958 67.6888 59.3126 67.8189C59.3052 67.8306 58.5796 67.8991 57.7001 67.971C56.8206 68.0428 55.6618 68.233 55.1248 68.3937C51.9323 69.3484 49.2467 72.2187 48.4798 75.4953C47.9581 77.7246 48.1006 88.4729 48.6764 90.3163C48.7747 90.6307 47.8735 90.6481 31.5474 90.6481H14.3147L14.2083 90.0318C14.1017 89.4152 8.27223 43.9467 8.27223 43.733C8.27223 43.6708 10.0058 43.6197 12.1249 43.6197H15.9775L16.0319 58.8376ZM63.2068 71.7935C63.9054 72.0579 64.943 72.4571 65.5126 72.6803C66.3857 73.0223 66.9468 73.0866 69.0901 73.09C71.4293 73.0937 71.7371 73.0519 72.9501 72.5689C76.3299 71.2228 76.1699 71.2577 78.9754 71.252C80.9775 71.248 81.8088 71.3219 82.4319 71.5595C84.2771 72.2629 85.9444 74.0008 86.4532 75.7509C86.8418 77.0882 86.7223 79.0647 86.1805 80.2566C84.8418 83.2013 82.3831 84.3771 78.0306 84.1533C76.3877 84.0689 75.8694 83.954 74.3461 83.3369C72.0418 82.4034 70.82 82.1206 69.0901 82.1206C67.3603 82.1206 66.1385 82.4034 63.8342 83.3369C62.3109 83.954 61.7926 84.0689 60.1497 84.1533C56.054 84.364 53.6349 83.3383 52.2699 80.8126C50.8728 78.2275 51.3213 75.1202 53.3826 73.1028C54.9938 71.5258 56.5443 71.0798 59.9117 71.2252C61.4664 71.2924 62.2317 71.4243 63.2068 71.7935ZM62.6883 76.1414V77.7533H64.2887H65.8892V76.1414V74.5295H64.2887H62.6883V76.1414ZM78.7325 76.094L78.7871 77.6584L80.3405 77.7134L81.8939 77.7686V76.149V74.5295H80.2859H78.6777L78.7325 76.094ZM56.2864 77.6584V79.2703H57.8868H59.4873V77.6584V76.0466H57.8868H56.2864V77.6584ZM72.2911 77.6584V79.2703H73.8916H75.492V77.6584V76.0466H73.8916H72.2911V77.6584ZM53.0672 86.0358C54.4733 86.9016 55.8209 87.2462 58.2634 87.3639C61.1731 87.5044 62.8338 87.2361 65.2204 86.2404C67.0308 85.4851 67.1991 85.4507 69.0901 85.4507C70.9811 85.4507 71.1495 85.4851 72.9599 86.2404C75.3465 87.2361 77.0072 87.5044 79.9169 87.3639C82.8529 87.2223 84.2153 86.7673 86.3924 85.2014L86.8424 84.8775L86.7543 86.8622C86.6816 88.4968 86.5748 89.0511 86.1483 90.0066C85.5072 91.4435 84.4057 92.552 82.9295 93.2459C81.8419 93.7571 81.6908 93.7769 78.8813 93.77L75.9628 93.7628L74.0347 92.9571C70.391 91.4347 67.7892 91.4347 64.1456 92.9571L62.2175 93.7628L59.299 93.77C56.4858 93.7769 56.3389 93.7577 55.2287 93.241C53.7896 92.5712 52.6908 91.4556 52.0267 89.9901C51.603 89.0556 51.4983 88.511 51.4256 86.8679L51.3379 84.8775L51.7879 85.2014C52.0355 85.3794 52.6113 85.7549 53.0672 86.0358Z" fill="#E0B08B"/>
</svg>
