<svg width="90" height="90" viewBox="0 0 90 90" fill="none" xmlns="http://www.w3.org/2000/svg">
<path fill-rule="evenodd" clip-rule="evenodd" d="M5.14517 0.184488C3.2156 0.642451 1.45791 2.10582 0.558393 4.0029L0 5.18094V45V84.8191L0.558393 85.9971C1.26896 87.4958 2.42322 88.6492 3.923 89.3593L5.10189 89.9173H36.241H67.3801L68.5237 89.3732C71.0859 88.1544 72.57 85.6965 72.57 82.6725V81.5667H74.4957H76.4214L76.4749 85.4502L76.5284 89.3336L76.9619 89.684C77.3697 90.0138 77.6137 90.031 81.0961 89.9758L84.797 89.9173L85.9758 89.3593C87.4756 88.6492 88.6299 87.4958 89.3404 85.9971L89.8988 84.8191L89.9495 74.4014L90 63.9838L89.5616 63.5457C89.005 62.9894 88.3322 62.987 87.7798 63.5392L87.3479 63.9706V73.88C87.3479 85.0042 87.3676 84.8124 86.0927 86.0992C85.0603 87.141 84.2247 87.3682 81.423 87.3682H79.0793V45V2.63182H81.423C84.2247 2.63182 85.0603 2.85896 86.0927 3.90076C87.4413 5.26199 87.3479 3.10297 87.3479 32.9091V59.6075L87.7798 60.0389C88.331 60.5899 89.0048 60.5889 89.5577 60.0363L89.9923 59.6021L89.9455 32.3915L89.8988 5.18094L89.3404 4.0029C88.6299 2.50419 87.4756 1.35076 85.9758 0.640693L84.797 0.082699L81.0961 0.0241571C77.6137 -0.0310446 77.3697 -0.013816 76.9619 0.315988L76.5284 0.66636L76.4749 4.54982L76.4214 8.43327H74.4957H72.57V7.32748C72.57 4.28383 71.1038 1.85583 68.5237 0.627156L67.3801 0.082699L36.5929 0.0550982C19.0619 0.0394518 5.5213 0.095181 5.14517 0.184488ZM66.9653 2.83593C67.8476 3.09998 68.9603 4.05898 69.4533 4.98L69.8431 5.70835L69.891 20.3806L69.939 35.053L70.3176 35.4556C70.8208 35.9909 71.5859 35.9787 72.1381 35.4267L72.57 34.9953V30.3285V25.6618H74.5052H76.4404V44.4726V63.2834H74.5087H72.5772L72.5295 51.2253L72.482 39.1674L72.0667 38.8313C71.5384 38.4039 70.9627 38.4039 70.4344 38.8313L70.0191 39.1674L69.9311 61.7295L69.8431 84.2916L69.4533 85.02C68.9603 85.941 67.8476 86.9 66.9653 87.1641C65.9722 87.4613 6.49365 87.4566 5.50019 87.1591C5.11632 87.0442 4.42158 86.6082 3.95625 86.1901C2.41671 84.8069 2.55095 88.7433 2.55095 45C2.55095 3.26576 2.50784 5.34655 3.39381 4.29754C3.84032 3.76873 4.85419 3.05339 5.45375 2.84401C6.24243 2.56853 66.0459 2.56062 66.9653 2.83593ZM8.38716 8.84008L8.00469 9.24706V33.9878V58.7285L8.43659 59.1599C8.98689 59.71 9.6614 59.71 10.2117 59.1599L10.6436 58.7285V45.0079V31.2875H36.241H61.8384V55.1086V78.9297H59.0363H56.2343L56.7512 77.9188C57.5917 76.2747 57.6549 75.4747 57.5736 67.5084C57.4997 60.2671 57.4953 60.1924 57.03 58.4529C56.4246 56.1907 55.1041 53.5213 53.768 51.8591L52.7103 50.5434L52.6563 44.3875C52.5972 37.6508 52.6104 37.7394 51.5052 36.6899C50.7892 36.0099 50.0983 35.8583 47.7157 35.8583C44.9403 35.8583 44.0846 36.2099 43.3474 37.6533C43.0394 38.2561 43.0142 38.7664 43.0142 44.3947V50.4838L42.3131 51.2796C40.6983 53.1129 39.2847 55.7974 38.5844 58.3609C38.1841 59.8262 38.1762 60.0173 38.1762 68.2058V76.5564L38.6956 77.6112C38.9813 78.1913 39.2452 78.7252 39.2819 78.7979C39.3189 78.8705 37.9633 78.9297 36.2697 78.9297H33.1904L33.6997 77.9113C33.9839 77.3431 34.2872 76.3521 34.3859 75.6698C34.6235 74.0266 34.6214 58.081 34.3836 56.615C34.2344 55.697 33.7008 54.0972 33.0451 52.6034C32.9878 52.4726 33.081 52.3814 33.2754 52.378C33.7217 52.3705 34.1709 52.0025 34.3686 51.4827C34.5669 50.9618 34.2316 50.0328 33.7831 49.8609C33.2895 49.6716 15.9355 49.7268 15.5764 49.9188C14.6605 50.4085 14.9079 52.1196 15.9239 52.3227C16.2277 52.3833 16.4316 52.5182 16.385 52.6273C14.8444 56.2376 14.8724 55.9899 14.8699 66.0962C14.8688 70.8924 14.9445 75.2718 15.0386 75.8532C15.1326 76.4333 15.4431 77.3628 15.7286 77.9188L16.2478 78.9297H13.4458H10.6436V71.0107V63.0916L10.2117 62.6601C9.6614 62.1101 8.98689 62.1101 8.43659 62.6601L8.00469 63.0916V71.9469V80.8022L8.41179 81.1845L8.81906 81.5667H36.2836H63.7481L64.1126 81.1035L64.4773 80.6403V45V9.35975L64.1126 8.89651L63.7481 8.43327H36.259H8.7698L8.38716 8.84008ZM61.8384 19.8604V28.6505H59.1116C57.6118 28.6505 56.3847 28.6111 56.3847 28.5629C56.3847 28.5149 56.6514 28.0995 56.9774 27.6399C59.2245 24.4722 58.8347 20.0425 56.0635 17.2561C52.4754 13.6483 46.7119 13.9893 43.586 17.9942L43.1901 18.5014L42.8033 17.9942C40.1605 14.5294 35.2622 13.7386 31.5962 16.1849C31.0058 16.5789 30.2442 17.2409 29.9039 17.656L29.285 18.4107L28.1009 17.2323C26.3629 15.5026 24.6351 14.7753 22.2428 14.7664C19.203 14.7551 16.2332 16.6017 14.8984 19.333C13.4423 22.3125 13.7698 25.3696 15.8546 28.2549L16.1403 28.6505H13.3919H10.6436V19.8604V11.0703H36.241H61.8384V19.8604ZM76.4404 17.0476V23.0248H74.5052H72.57V17.0476V11.0703H74.5052H76.4404V17.0476ZM24.3098 17.7778C25.6764 18.2887 26.9943 19.6056 27.5055 20.9713C28.5553 23.7748 27.3296 26.8204 24.6298 28.1174C23.3313 28.7412 21.2997 28.7354 19.9677 28.1039C17.8807 27.1145 16.7163 25.2965 16.7143 23.0248C16.7136 22.2827 16.823 21.4373 16.9647 21.091C18.1909 18.0923 21.3454 16.6694 24.3098 17.7778ZM38.723 17.976C39.2172 18.2282 39.9835 18.8369 40.4258 19.3284C42.9259 22.1071 41.9356 26.5911 38.4711 28.18C37.1928 28.7663 35.1503 28.718 33.8303 28.0703C30.3529 26.3638 29.5236 21.7578 32.2146 19.096C33.4827 17.8416 34.6753 17.3877 36.5049 17.463C37.5049 17.5043 38.042 17.6284 38.723 17.976ZM52.5558 17.9178C53.7043 18.4647 54.7493 19.5302 55.2962 20.7121C55.9035 22.0238 55.938 23.9309 55.3768 25.1726C54.8518 26.3348 53.5575 27.6549 52.464 28.1436C51.2094 28.7044 49.0936 28.7232 47.9187 28.1842C46.7379 27.6424 45.7413 26.6621 45.1317 25.4433C44.1018 23.3836 44.5168 20.7911 46.1473 19.0983C46.7759 18.4457 47.7361 17.8515 48.6439 17.5532C49.4595 17.2852 51.6582 17.49 52.5558 17.9178ZM18.8242 21.8119C17.9669 22.3035 17.776 23.2108 18.3913 23.8706C18.7086 24.2111 18.9312 24.2554 20.3265 24.2554C21.6684 24.2554 21.9554 24.203 22.2548 23.9038C22.7287 23.4302 22.7196 22.4782 22.2369 22.0417C21.7937 21.6409 19.4032 21.48 18.8242 21.8119ZM32.7918 21.8053C32.3527 21.9749 31.9308 22.608 31.9308 23.0972C31.9308 23.2247 32.0949 23.5374 32.2955 23.7922C32.6424 24.2331 32.7387 24.2554 34.2914 24.2554C36.0628 24.2554 36.3584 24.1174 36.592 23.1814C36.6777 22.8385 36.5971 22.5955 36.2729 22.2189C35.8772 21.7592 35.7256 21.7112 34.5447 21.6717C33.8328 21.6478 33.0441 21.7081 32.7918 21.8053ZM46.7905 21.7858C45.9362 22.1317 45.6632 23.2349 46.2668 23.9015C46.544 24.2078 46.8072 24.2554 48.2185 24.2554C49.7712 24.2554 49.8675 24.2331 50.2144 23.7922C50.8066 23.0401 50.6313 22.2893 49.7551 21.8228C49.3195 21.5911 47.3325 21.5662 46.7905 21.7858ZM29.7891 28.1327L30.1983 28.6505H29.3H28.4017L28.7919 28.1231C29.0065 27.833 29.2266 27.6 29.281 27.6053C29.3353 27.6108 29.5641 27.8481 29.7891 28.1327ZM43.6901 28.1231L44.0803 28.6505H43.1821H42.2838L42.693 28.1327C42.918 27.8481 43.1467 27.6108 43.2011 27.6053C43.2554 27.6 43.4755 27.833 43.6901 28.1231ZM49.8766 38.8491C49.9808 39.0437 50.0429 39.8151 50.0147 40.5631L49.9633 41.9235L47.8082 41.9729L45.6531 42.0223V40.3613C45.6531 39.1971 45.7189 38.674 45.873 38.6117C45.9941 38.563 46.9017 38.5168 47.89 38.5092C49.5184 38.4966 49.7049 38.5286 49.8766 38.8491ZM50.0513 48.1586V51.6689L51.2079 52.9492C52.4288 54.3008 53.8383 56.8696 54.346 58.6686L54.6064 59.5915H47.8288H41.051L41.1724 59.0202C41.6049 56.9842 43.1541 54.1964 44.8805 52.3473L45.6531 51.5198V48.0841V44.6484H47.8522H50.0513V48.1586ZM30.7968 54.1856C31.6141 55.9094 31.6542 56.0658 31.723 57.7896L31.7948 59.5915H24.6497H17.5048V58.6485C17.5048 57.1259 17.8016 55.9772 18.6734 54.1248L19.4931 52.3837H24.7178H29.9425L30.7968 54.1856ZM31.7549 66.7134V71.1985L24.6738 71.1524L17.5927 71.1065L17.5458 66.6675L17.4988 62.2286H24.6268H31.7549V66.7134ZM54.9363 66.6675L54.8893 71.1065L47.8082 71.1524L40.7272 71.1985V66.7134V62.2286H47.8552H54.9833L54.9363 66.6675ZM76.4404 72.425V78.9297H74.5052H72.57V72.425V65.9204H74.5052H76.4404V72.425ZM31.751 74.8423C31.7464 76.0476 31.3328 77.0332 30.5009 77.822C29.4143 78.8522 29.0095 78.9297 24.7178 78.9297C20.4248 78.9297 20.0151 78.8511 18.9407 77.822C18.1251 77.0407 17.7261 76.1875 17.5822 74.9172L17.4594 73.8315H24.6071H31.7549L31.751 74.8423ZM54.9169 74.8884C54.7875 76.1251 54.3591 77.0386 53.5414 77.822C52.4737 78.8448 52.0426 78.9297 47.9222 78.9297C45.641 78.9297 43.9389 78.852 43.5283 78.7291C41.9502 78.2566 40.7323 76.5272 40.7289 74.7544L40.7272 73.8315H47.8772H55.0274L54.9169 74.8884Z" fill="#E0B08B"/>
</svg>
