<svg width="102" height="90" viewBox="0 0 102 90" fill="none" xmlns="http://www.w3.org/2000/svg">
<path fill-rule="evenodd" clip-rule="evenodd" d="M41.6339 0.511459C41.1331 1.01854 41.129 1.055 41.129 5C41.129 10.3227 40.8311 10 45.7468 10H49.3548V10.8333C49.3548 11.2917 49.2853 11.6667 49.2006 11.6669C49.1159 11.6669 48.0284 11.7615 46.7843 11.8771C24.7718 13.9213 7.28107 30.6185 3.79436 52.9167C3.55931 54.4196 3.41947 57.0067 3.34729 61.1829L3.2422 67.2619L3.77112 67.7975L4.29983 68.3333H25.1823H46.0645V70V71.6667H30.9403H15.816L15.3113 72.1781C14.825 72.6706 14.8065 72.7929 14.8065 75.5115V78.3333H7.90808H1.00951L0.504859 78.8448L0 79.356V84.1667V88.9773L0.504859 89.4885L1.00951 90H51H100.99L101.495 89.4885L102 88.9773V84.1667V79.356L101.495 78.8448L100.99 78.3333H94.0919H87.1936V75.5115C87.1936 72.7929 87.175 72.6706 86.6887 72.1781L86.184 71.6667H71.0597H55.9355V70V68.3333H76.8177H97.7002L98.2305 67.796L98.7609 67.2588L98.6519 61.1815C98.5363 54.745 98.3138 52.6037 97.3382 48.5417C93.8719 34.1079 83.726 21.8231 70.3093 15.8146C65.2265 13.5383 60.5261 12.3683 54.0333 11.7629L52.6452 11.6335V10.8167V10H56.2532C61.1689 10 60.871 10.3227 60.871 5C60.871 1.055 60.8669 1.01854 60.3661 0.511459L59.8615 0H51H42.1385L41.6339 0.511459ZM57.5806 5V6.66667H51H44.4194V5V3.33333H51H57.5806V5ZM57.6181 15.5025C72.1858 17.8171 84.4663 26.9706 90.903 40.3125C94.0857 46.9092 95.4194 53.1644 95.4194 61.4946V65H51H6.58065V61.4946C6.58065 55.8517 7.11656 51.7217 8.43001 47.2433C13.4961 29.9702 27.9579 17.606 45.7892 15.3035C48.5448 14.9477 54.787 15.0527 57.6181 15.5025ZM52.6452 70V71.6667H51H49.3548V70V68.3333H51H52.6452V70ZM83.9032 76.6667V78.3333H51H18.0968V76.6667V75H51H83.9032V76.6667ZM98.7097 84.1667V86.6667H51H3.29032V84.1667V81.6667H51H98.7097V84.1667Z" fill="#E0B08B"/>
</svg>
