<svg width="89" height="90" viewBox="0 0 89 90" fill="none" xmlns="http://www.w3.org/2000/svg">
<mask id="path-1-inside-1_287_1090" fill="white">
<path fill-rule="evenodd" clip-rule="evenodd" d="M40.1463 0.153417C35.3535 0.627095 29.5498 2.28343 25.1472 4.43407C20.3817 6.76195 16.8095 9.332 13.0293 13.1522C8.00768 18.2268 4.46555 24.0088 2.28734 30.6862C-1.42749 42.0744 -0.600121 54.0207 4.64309 64.7014C10.3634 76.3543 20.5671 84.8822 32.9876 88.3907C46.2303 92.1315 60.5865 89.2695 71.8117 80.6509C74.1226 78.8766 78.0652 74.8922 79.8209 72.5569C84.5504 66.266 87.5292 59.0883 88.673 51.2271C89.1086 48.2328 89.1091 41.9131 88.674 39.0189C87.2094 29.2788 83.1651 20.9144 76.5837 14.0149C70.2239 7.34758 62.8716 3.1239 54.0163 1.05086C50.1636 0.148895 44.1367 -0.241044 40.1463 0.153417ZM50.6159 3.47893C68.1946 6.19567 82.0907 19.7368 85.3239 37.3007C89.5173 60.0798 74.6782 81.9493 52.1371 86.2103C31.1483 90.1778 10.4874 77.2809 4.6413 56.5626C-1.44145 35.0056 10.1741 12.5646 31.1979 5.25554C33.9408 4.30204 37.6706 3.5142 41.2201 3.13873C42.7209 2.97993 48.8151 3.20059 50.6159 3.47893ZM40.6832 6.12043C27.3079 7.59174 15.7817 15.6767 9.89757 27.715C7.10067 33.4371 5.66088 40.2786 5.93899 46.5247C6.38587 56.5656 10.2807 65.55 17.2324 72.575C21.5872 76.976 26.4696 80.034 32.2494 81.9802C47.6423 87.1639 64.2865 82.2561 74.5927 69.4942C81.2719 61.2236 84.2983 50.0034 82.7393 39.2902C80.2726 22.3389 67.141 8.99505 50.3474 6.37472C48.1073 6.02529 42.8149 5.88603 40.6832 6.12043ZM50.4788 9.33996C55.6037 10.2481 60.1524 12.0713 64.3225 14.8888C66.0225 16.0375 68.6916 18.1698 68.6916 18.3791C68.6916 18.44 63.7591 23.4753 57.7304 29.5683L46.7692 40.6467H31.0562H15.343L14.9038 41.0907C14.468 41.5309 14.4645 41.5626 14.4645 44.9874C14.4645 48.4122 14.468 48.4438 14.9038 48.8841L15.343 49.3281H26.7597H38.1764L28.245 59.3659C22.7827 64.8868 18.2706 69.4038 18.2179 69.4038C18.0121 69.4038 15.8509 66.6558 14.7605 65.0074C5.14634 50.4756 7.29342 30.942 19.8299 18.8857C25.5882 13.3479 32.9208 9.87784 40.6832 9.0173C43.1492 8.74383 48.0203 8.90444 50.4788 9.33996ZM25.9184 20.6265C25.04 20.9063 23.5419 22.474 23.2725 23.3953C22.7768 25.0911 23.1263 26.443 24.3911 27.7212C25.5789 28.9216 26.1444 29.0715 29.4818 29.0715C32.1277 29.0715 32.21 29.0831 32.6377 29.5155C32.9148 29.7953 33.0771 30.1661 33.0771 30.5184C33.0771 30.8707 32.9148 31.2415 32.6377 31.5213L32.1985 31.9653H27.3342C24.0383 31.9653 22.2325 32.0362 21.7334 32.1852C20.7503 32.4788 19.2678 33.977 18.9773 34.9705C18.8576 35.38 18.7597 36.2993 18.7597 37.0133C18.7597 38.151 18.8141 38.3669 19.199 38.7558C19.4759 39.0357 19.8428 39.1998 20.1914 39.1998C20.5401 39.1998 20.9069 39.0357 21.1838 38.7558C21.5677 38.368 21.6232 38.1499 21.6232 37.0294C21.6232 35.909 21.6786 35.6909 22.0625 35.3031L22.5017 34.8591H27.3661C30.6619 34.8591 32.4677 34.7882 32.9668 34.6392C33.9499 34.3456 35.4325 32.8474 35.7229 31.8539C36.2187 30.1581 35.8692 28.8062 34.6044 27.528C33.4166 26.3276 32.851 26.1777 29.5137 26.1777C26.8678 26.1777 26.7855 26.1661 26.3577 25.7337C25.7765 25.1464 25.7765 24.3152 26.3577 23.7279L26.7969 23.2839H33.7929H40.789L41.2282 22.8399C41.8094 22.2526 41.8094 21.4214 41.2282 20.8341L40.789 20.3901L33.6668 20.4086C29.0231 20.4207 26.3268 20.4965 25.9184 20.6265ZM72.0453 21.8996C80.8798 32.5153 82.7978 47.834 76.8679 60.4164C69.9587 75.0769 54.298 83.3438 38.5832 80.6259C31.9414 79.4771 26.2085 76.722 20.9073 72.1312L20.2809 71.5888L31.2869 60.4585L42.2928 49.3281H58.0058H73.719L74.1582 48.8841C74.594 48.4438 74.5975 48.4122 74.5975 44.9874C74.5975 41.5626 74.594 41.5309 74.1582 41.0907L73.719 40.6467H62.3023H50.8856L60.817 30.6088C66.2793 25.088 70.7914 20.571 70.844 20.571C70.8967 20.571 71.4371 21.1689 72.0453 21.8996ZM20.1914 44.9874V46.4343H18.7597H17.3279V44.9874V43.5405H18.7597H20.1914V44.9874ZM42.4729 44.9874L41.0495 46.4343H32.0521H23.0549V44.9874V43.5405H33.4756H43.8962L42.4729 44.9874ZM63.1436 44.9874V46.4343H54.1546H45.1658L46.5891 44.9874L48.0125 43.5405H55.5781H63.1436V44.9874ZM71.734 44.9874V46.4343H68.8706H66.0071V44.9874V43.5405H68.8706H71.734V44.9874Z"/>
</mask>
<path fill-rule="evenodd" clip-rule="evenodd" d="M40.1463 0.153417C35.3535 0.627095 29.5498 2.28343 25.1472 4.43407C20.3817 6.76195 16.8095 9.332 13.0293 13.1522C8.00768 18.2268 4.46555 24.0088 2.28734 30.6862C-1.42749 42.0744 -0.600121 54.0207 4.64309 64.7014C10.3634 76.3543 20.5671 84.8822 32.9876 88.3907C46.2303 92.1315 60.5865 89.2695 71.8117 80.6509C74.1226 78.8766 78.0652 74.8922 79.8209 72.5569C84.5504 66.266 87.5292 59.0883 88.673 51.2271C89.1086 48.2328 89.1091 41.9131 88.674 39.0189C87.2094 29.2788 83.1651 20.9144 76.5837 14.0149C70.2239 7.34758 62.8716 3.1239 54.0163 1.05086C50.1636 0.148895 44.1367 -0.241044 40.1463 0.153417ZM50.6159 3.47893C68.1946 6.19567 82.0907 19.7368 85.3239 37.3007C89.5173 60.0798 74.6782 81.9493 52.1371 86.2103C31.1483 90.1778 10.4874 77.2809 4.6413 56.5626C-1.44145 35.0056 10.1741 12.5646 31.1979 5.25554C33.9408 4.30204 37.6706 3.5142 41.2201 3.13873C42.7209 2.97993 48.8151 3.20059 50.6159 3.47893ZM40.6832 6.12043C27.3079 7.59174 15.7817 15.6767 9.89757 27.715C7.10067 33.4371 5.66088 40.2786 5.93899 46.5247C6.38587 56.5656 10.2807 65.55 17.2324 72.575C21.5872 76.976 26.4696 80.034 32.2494 81.9802C47.6423 87.1639 64.2865 82.2561 74.5927 69.4942C81.2719 61.2236 84.2983 50.0034 82.7393 39.2902C80.2726 22.3389 67.141 8.99505 50.3474 6.37472C48.1073 6.02529 42.8149 5.88603 40.6832 6.12043ZM50.4788 9.33996C55.6037 10.2481 60.1524 12.0713 64.3225 14.8888C66.0225 16.0375 68.6916 18.1698 68.6916 18.3791C68.6916 18.44 63.7591 23.4753 57.7304 29.5683L46.7692 40.6467H31.0562H15.343L14.9038 41.0907C14.468 41.5309 14.4645 41.5626 14.4645 44.9874C14.4645 48.4122 14.468 48.4438 14.9038 48.8841L15.343 49.3281H26.7597H38.1764L28.245 59.3659C22.7827 64.8868 18.2706 69.4038 18.2179 69.4038C18.0121 69.4038 15.8509 66.6558 14.7605 65.0074C5.14634 50.4756 7.29342 30.942 19.8299 18.8857C25.5882 13.3479 32.9208 9.87784 40.6832 9.0173C43.1492 8.74383 48.0203 8.90444 50.4788 9.33996ZM25.9184 20.6265C25.04 20.9063 23.5419 22.474 23.2725 23.3953C22.7768 25.0911 23.1263 26.443 24.3911 27.7212C25.5789 28.9216 26.1444 29.0715 29.4818 29.0715C32.1277 29.0715 32.21 29.0831 32.6377 29.5155C32.9148 29.7953 33.0771 30.1661 33.0771 30.5184C33.0771 30.8707 32.9148 31.2415 32.6377 31.5213L32.1985 31.9653H27.3342C24.0383 31.9653 22.2325 32.0362 21.7334 32.1852C20.7503 32.4788 19.2678 33.977 18.9773 34.9705C18.8576 35.38 18.7597 36.2993 18.7597 37.0133C18.7597 38.151 18.8141 38.3669 19.199 38.7558C19.4759 39.0357 19.8428 39.1998 20.1914 39.1998C20.5401 39.1998 20.9069 39.0357 21.1838 38.7558C21.5677 38.368 21.6232 38.1499 21.6232 37.0294C21.6232 35.909 21.6786 35.6909 22.0625 35.3031L22.5017 34.8591H27.3661C30.6619 34.8591 32.4677 34.7882 32.9668 34.6392C33.9499 34.3456 35.4325 32.8474 35.7229 31.8539C36.2187 30.1581 35.8692 28.8062 34.6044 27.528C33.4166 26.3276 32.851 26.1777 29.5137 26.1777C26.8678 26.1777 26.7855 26.1661 26.3577 25.7337C25.7765 25.1464 25.7765 24.3152 26.3577 23.7279L26.7969 23.2839H33.7929H40.789L41.2282 22.8399C41.8094 22.2526 41.8094 21.4214 41.2282 20.8341L40.789 20.3901L33.6668 20.4086C29.0231 20.4207 26.3268 20.4965 25.9184 20.6265ZM72.0453 21.8996C80.8798 32.5153 82.7978 47.834 76.8679 60.4164C69.9587 75.0769 54.298 83.3438 38.5832 80.6259C31.9414 79.4771 26.2085 76.722 20.9073 72.1312L20.2809 71.5888L31.2869 60.4585L42.2928 49.3281H58.0058H73.719L74.1582 48.8841C74.594 48.4438 74.5975 48.4122 74.5975 44.9874C74.5975 41.5626 74.594 41.5309 74.1582 41.0907L73.719 40.6467H62.3023H50.8856L60.817 30.6088C66.2793 25.088 70.7914 20.571 70.844 20.571C70.8967 20.571 71.4371 21.1689 72.0453 21.8996ZM20.1914 44.9874V46.4343H18.7597H17.3279V44.9874V43.5405H18.7597H20.1914V44.9874ZM42.4729 44.9874L41.0495 46.4343H32.0521H23.0549V44.9874V43.5405H33.4756H43.8962L42.4729 44.9874ZM63.1436 44.9874V46.4343H54.1546H45.1658L46.5891 44.9874L48.0125 43.5405H55.5781H63.1436V44.9874ZM71.734 44.9874V46.4343H68.8706H66.0071V44.9874V43.5405H68.8706H71.734V44.9874Z" fill="#E0B08B" stroke="#E0B08B" stroke-width="2" mask="url(#path-1-inside-1_287_1090)"/>
</svg>
