<svg width="90" height="75" viewBox="0 0 90 75" fill="none" xmlns="http://www.w3.org/2000/svg">
<path fill-rule="evenodd" clip-rule="evenodd" d="M71.9166 0.254189C64.3576 1.79314 59.2303 8.34285 59.6595 15.912C59.8557 19.3749 60.98 22.1491 63.3008 24.8979C65.6208 27.6455 68.6581 29.2572 73.1035 30.0993L73.4991 30.1743V47.5282V64.8822H71.7352C69.7629 64.8822 69.1619 65.0589 68.157 65.9341C66.9193 67.0123 66.7426 67.5793 66.6724 70.6959C66.6293 72.6124 66.6765 73.6154 66.8266 73.9751C67.2481 74.9848 67.3682 75 74.8944 75H81.7577L82.332 74.4915L82.9062 73.9828L82.9632 71.4403C83.0298 68.456 82.8099 67.4362 81.8625 66.3381C80.8926 65.2138 79.989 64.8822 77.896 64.8822H76.1349L76.1797 47.4932L76.2246 30.1042L77.5901 29.8753C82.5818 29.0388 87.0986 25.3312 88.9785 20.527C92.0427 12.6961 87.9699 3.77763 80.0148 0.899286C77.5447 0.00543061 74.3774 -0.246817 71.9166 0.254189ZM78.2467 3.04321C83.9266 4.77423 87.6936 10.0467 87.3397 15.7698C86.7895 24.662 77.3974 30.1343 69.3671 26.2416C68.4967 25.8196 67.3334 25.114 66.7818 24.6733C65.0268 23.2715 63.4102 20.8064 62.6562 18.3829C62.4086 17.5869 62.3355 16.7987 62.3415 14.9909C62.3483 12.8835 62.4002 12.4892 62.8352 11.2404C64.3361 6.93054 67.7483 3.86764 72.1804 2.8522C73.5617 2.53575 76.9295 2.64182 78.2467 3.04321ZM0.432462 7.91808C-0.117721 8.46374 -0.117721 9.13256 0.432462 9.67823L0.863957 10.1065H23.5273C45.2598 10.1065 46.2024 10.1196 46.4815 10.4256C47.205 11.2188 47.0236 11.4694 42.56 15.8389C38.4538 19.8585 38.34 19.9888 38.0548 20.9962C37.6763 22.333 37.8055 23.608 38.4357 24.7569C39.0103 25.8043 43.2131 29.9452 45.2837 31.5044C49.8508 34.9431 54.6818 37.0654 60.1358 38.0285C61.2527 38.2256 61.3028 38.2582 62.3337 39.4556C63.3587 40.6462 64.1772 41.8075 64.1791 42.0735C64.1796 42.1456 62.4141 42.2044 60.2557 42.2044C57.2868 42.2044 56.1159 42.2679 55.447 42.465C53.3161 43.0926 51.8716 45.0363 51.8716 47.2758C51.8716 49.4895 53.3187 51.4346 55.428 52.056C56.054 52.2405 57.1043 52.3222 58.8491 52.3222C60.2337 52.3222 61.3665 52.3419 61.3663 52.3658C61.3661 52.3897 60.4655 55.1822 59.3648 58.5713C57.2041 65.2245 57.0316 65.5758 55.75 65.929C55.1884 66.0838 49.5858 66.1883 49.5858 66.044C49.5858 66.0114 49.7502 65.3637 49.9512 64.6048C50.2193 63.5922 50.3166 62.6912 50.3166 61.2189C50.3166 58.7241 49.9259 57.1325 48.7633 54.891C47.227 51.9293 44.123 49.2823 40.97 48.2452C37.5287 47.1132 34.0091 47.2858 30.8316 48.7422C25.7507 51.0712 22.6754 55.8285 22.6863 61.3424C22.6889 62.6617 22.8064 63.4517 23.3356 65.7108L23.4276 66.1033H12.0786H0.72962L0.365293 66.563C-0.118249 67.1727 -0.0950386 67.7686 0.432462 68.2917L0.863957 68.72L12.8727 68.7305L24.8812 68.7411L25.6725 69.7717C27.0079 71.5113 29.5028 73.3482 31.5748 74.1173C34.2405 75.1068 37.8122 75.2503 40.3546 74.4706C43.0851 73.6329 45.7875 71.83 47.3691 69.7909L48.1814 68.7435L52.1804 68.6882C56.0603 68.6343 56.2084 68.6193 57.1466 68.1808C58.2259 67.6763 59.2779 66.6915 59.7159 65.776C59.8752 65.4429 61.5442 60.4152 63.4249 54.6032L66.8446 44.036L66.7853 42.6405C66.742 41.6231 66.6153 41.0209 66.3176 40.4186C65.7217 39.213 53.5598 25.173 52.9882 25.0306C52.0883 24.8064 51.0989 25.9185 51.473 26.7334C51.5748 26.9553 53.1378 28.8452 54.9461 30.9331C56.7542 33.0212 58.1899 34.773 58.1362 34.8262C57.9775 34.9837 55.0917 34.029 53.2653 33.2147C49.5142 31.5421 46.6017 29.4826 43.0487 25.9901C39.7034 22.7019 39.6602 22.3578 42.2625 19.7379L43.8802 18.1095L45.61 20.1275C48.1907 23.1381 48.5516 23.3739 49.4741 22.6538C49.8121 22.3902 49.9375 22.132 49.9375 21.7001C49.9375 21.1968 49.6305 20.7515 47.8945 18.7358L45.8513 16.3635L47.4296 14.7614C49.2023 12.962 49.4905 12.3753 49.3757 10.7999C49.2786 9.46942 48.6421 8.53526 47.4215 7.93168L46.5275 7.48982H23.6957H0.863957L0.432462 7.91808ZM70.687 7.98506L70.1583 8.50962V15.16V21.8102L70.59 22.2383C71.14 22.7841 71.8141 22.7841 72.3641 22.2383C72.781 21.8248 72.7958 21.7273 72.7958 19.3843V16.9585L74.8121 16.8702C76.5337 16.7949 76.9694 16.7134 77.7932 16.3136C79.4618 15.5036 80.4011 13.9949 80.4001 12.1253C80.3994 10.8454 80.0813 10.0355 79.1988 9.06645C77.9854 7.73386 77.5117 7.58855 74.1598 7.52034L71.2158 7.46051L70.687 7.98506ZM76.6473 10.3272C77.665 10.8461 78.1026 12.3828 77.4825 13.261C76.9348 14.0369 76.4746 14.1974 74.5981 14.2665L72.7958 14.3328V12.2195V10.1065L74.5102 10.1091C75.5203 10.1105 76.3981 10.2002 76.6473 10.3272ZM0.365293 19.114C-0.227441 19.8614 -0.0908185 20.6014 0.716784 21.0158C1.12771 21.2267 2.37859 21.271 7.92085 21.271C13.922 21.271 14.8081 21.3074 16.3433 21.6178C20.2517 22.408 23.5335 24.1591 26.2879 26.924C27.8924 28.5345 30.779 32.4803 31.0229 33.3963C31.235 34.1918 30.8221 35.0949 30.0266 35.576C29.4664 35.9149 29.1174 35.9231 15.1585 35.9236L0.863957 35.9243L0.432462 36.3526C-0.117721 36.8983 -0.117721 37.5671 0.432462 38.1128L0.863957 38.541H15.1705C31.6517 38.541 30.7648 38.6179 32.3016 37.0542C33.8306 35.4987 34.1606 33.3708 33.1475 31.6014C32.1036 29.7781 29.656 26.6167 28.0469 25.0132C25.522 22.4971 22.8424 20.8549 19.3891 19.7071C16.593 18.7778 15.2281 18.6557 7.61842 18.655L0.72962 18.6543L0.365293 19.114ZM13.6516 43.4382C13.071 43.8912 13.0163 44.8249 13.54 45.3444C13.8614 45.6632 14.126 45.6933 16.625 45.6933C19.2927 45.6933 19.3688 45.683 19.79 45.265C20.0273 45.0295 20.2216 44.6335 20.2216 44.3849C20.2216 44.1363 20.0273 43.7403 19.79 43.5048C19.3704 43.0884 19.2858 43.0766 16.7366 43.0766C14.3506 43.0766 14.0733 43.109 13.6516 43.4382ZM63.7425 45.0391C63.7014 45.1591 63.3435 46.2581 62.9474 47.4813L62.2272 49.7055H59.3152C56.6854 49.7055 56.3397 49.6701 55.7481 49.3402C54.9028 48.8689 54.5091 48.1908 54.5091 47.206C54.5091 46.2986 55.0947 45.4555 55.9949 45.0665C56.7454 44.7422 63.8529 44.7171 63.7425 45.0391ZM39.2116 50.4331C39.6468 50.5344 40.6711 50.9322 41.4876 51.3167C44.3254 52.6533 46.6114 55.466 47.4088 58.6022C47.7832 60.0747 47.7772 62.5549 47.3956 63.996C45.7169 70.3357 38.8777 73.9439 32.7594 71.7178C30.9003 71.0415 29.6401 70.2007 28.246 68.7067C26.1384 66.4484 25.2164 63.8753 25.3753 60.6955C25.4741 58.7166 25.7912 57.5803 26.734 55.8254C28.2669 52.972 31.4989 50.7483 34.8828 50.2187C35.9156 50.0572 38.0531 50.1629 39.2116 50.4331ZM34.6697 55.362C33.5975 55.7085 33.2333 56.0877 33.2333 56.8577C33.2333 57.8193 33.6993 58.1626 34.7674 57.9883C35.2292 57.9129 36.095 57.8437 36.6912 57.8343C37.6281 57.8194 37.8769 57.8883 38.5218 58.3405C40.4407 59.6858 40.59 62.4133 38.8266 63.9105C36.7058 65.7115 33.5844 64.5778 32.9771 61.786C32.6342 60.2106 30.42 60.3976 30.42 62.0019C30.42 63.4242 31.5464 65.3063 32.9854 66.2886C34.1024 67.0511 35.0894 67.3518 36.4862 67.3551C38.9424 67.3609 41.1076 65.9964 42.1287 63.7991C42.5644 62.8616 42.6388 62.4855 42.6395 61.2189C42.6402 59.9801 42.5641 59.5747 42.1771 58.7557C41.1381 56.5575 39.2051 55.2734 36.7825 55.1724C35.9452 55.1374 35.1416 55.2096 34.6697 55.362ZM79.4872 67.6786C80.1354 68.0227 80.3567 68.7737 80.3567 70.6302V72.3833H74.8028H69.2489L69.308 70.3617C69.3655 68.395 69.3804 68.3287 69.8605 67.9195C70.3533 67.4992 70.3574 67.4989 74.7514 67.4989C77.4313 67.4989 79.2811 67.569 79.4872 67.6786Z" fill="#E0B08B"/>
</svg>
