<svg width="90" height="90" viewBox="0 0 90 90" fill="none" xmlns="http://www.w3.org/2000/svg">
<path fill-rule="evenodd" clip-rule="evenodd" d="M44.4727 0.0543226C43.1661 0.57535 4.34549 19.4204 3.91676 19.7419C2.70826 20.6476 2.74518 22.4984 3.99094 23.449L4.63078 23.9372L24.0244 23.9848L43.418 24.0326V35.9862V47.9399H30.2316H17.0453L15.7736 46.9035C11.8477 43.704 6.92789 41.9638 1.80176 41.9619L0 41.9612V50.202C0 55.0718 0.0734766 58.8298 0.179473 59.389C0.757969 62.4407 3.13805 64.937 6.20561 65.7099C6.65965 65.8242 7.03125 65.9886 7.03125 66.0749C7.03125 66.1613 5.80518 71.1363 4.30664 77.1301C2.80811 83.1239 1.58203 88.27 1.58203 88.5658C1.58203 89.1863 2.25668 89.9667 2.79299 89.9667C3.43125 89.9667 4.02346 89.6354 4.27254 89.139C4.40789 88.8689 5.69654 83.92 7.13584 78.1412C8.57514 72.3626 9.79313 67.635 9.84217 67.6355C9.89139 67.6361 11.1934 71.6916 12.7354 76.6476C16.6721 89.2996 16.6087 89.1135 17.139 89.5711C17.3913 89.7888 17.7971 89.9667 18.041 89.9667C18.5621 89.9667 19.5117 89.0907 19.5117 88.6099C19.5117 88.429 17.9692 83.3423 16.084 77.3059C14.1987 71.2695 12.6562 66.2284 12.6562 66.1034C12.6562 65.9221 13.8145 65.876 18.3691 65.876H24.082L24.0817 65.3925C24.0794 62.9252 23.5559 59.2265 22.9245 57.2157C22.8336 56.9264 23.2226 56.908 29.4316 56.908H36.0352V59.8973V62.8867H38.2324H40.4297V69.7165C40.4297 75.9066 40.3977 76.6717 40.0878 77.8838C39.037 81.9938 36.1375 85.0742 32.0801 86.3913C30.8835 86.7795 30.2323 86.864 27.7135 86.9564C24.8781 87.0607 24.7391 87.0829 24.4176 87.4805C23.8159 88.2248 23.9985 89.2961 24.7978 89.7095C25.5466 90.0968 64.4534 90.0968 65.2022 89.7095C66.0015 89.2961 66.1841 88.2248 65.5824 87.4805C65.2609 87.0829 65.1219 87.0607 62.2865 86.9564C59.7677 86.864 59.1165 86.7795 57.9199 86.3913C53.8625 85.0742 50.963 81.9938 49.9122 77.8838C49.6023 76.6717 49.5703 75.9066 49.5703 69.7165V62.8867H51.7676H53.9648V59.8973V56.908H60.5684C66.7774 56.908 67.1664 56.9264 67.0755 57.2157C66.4441 59.2265 65.9206 62.9252 65.9183 65.3925L65.918 65.876H70.8984C73.6378 65.876 75.9213 65.9184 75.973 65.9703C76.0249 66.022 74.8143 71.0666 73.2829 77.1804C71.7514 83.2941 70.4962 88.4407 70.4934 88.6175C70.4856 89.1024 71.4394 89.9667 71.9824 89.9667C72.2573 89.9667 72.6469 89.768 72.9309 89.4831C73.3641 89.0486 73.6854 87.9079 76.1047 78.223C77.5851 72.2959 78.8187 67.469 78.8462 67.4964C78.8736 67.5241 80.3644 72.2548 82.1591 78.0093C83.9537 83.7638 85.542 88.7311 85.6886 89.0476C85.9474 89.6061 86.5297 89.9667 87.1733 89.9667C87.7115 89.9667 88.418 89.1645 88.418 88.5531C88.418 88.25 86.9113 83.1621 85.07 77.2467C83.2286 71.3314 81.6808 66.3529 81.6303 66.1838C81.5518 65.9196 81.6627 65.876 82.414 65.876C84.2637 65.876 86.6579 64.7193 88.0026 63.1759C88.7999 62.2605 89.5869 60.6213 89.8205 59.389C89.9265 58.8298 90 55.0718 90 50.202V41.9612L88.1982 41.9619C83.0721 41.9638 78.1523 43.704 74.2264 46.9035L72.9547 47.9399H59.7684H46.582V35.9862V24.0326L65.9756 23.9848L85.3692 23.9372L86.0091 23.449C87.2548 22.4984 87.2917 20.6476 86.0832 19.7419C85.3358 19.1816 45.8239 0.119561 45.2108 0.0235499C44.9499 -0.0174219 44.6177 -0.00353018 44.4727 0.0543226ZM63.4365 12.0029L81.6003 20.772L63.3002 20.8168C53.235 20.8414 36.765 20.8414 26.6998 20.8168L8.39971 20.772L26.6558 11.9456C36.6968 7.09126 44.9931 3.14532 45.0925 3.17679C45.1916 3.20827 53.4465 7.18007 63.4365 12.0029ZM6.64049 45.5803C13.7816 47.3649 19.4173 53.473 20.7322 60.8529C20.8343 61.4266 20.918 62.1191 20.918 62.3915V62.8867H14.0389C9.43488 62.8867 6.94072 62.8209 6.49723 62.688C5.38207 62.3539 4.19502 61.3192 3.60668 60.169L3.07617 59.1317L3.02484 52.0531L2.97334 44.9745L3.99164 45.0737C4.5515 45.1282 5.74365 45.3561 6.64049 45.5803ZM86.9753 52.0411L86.9238 59.1317L86.3933 60.169C85.805 61.3192 84.6179 62.3539 83.5028 62.688C83.0593 62.8209 80.5651 62.8867 75.9611 62.8867H69.082V62.3915C69.082 60.8196 70.0028 57.5785 71.003 55.6299C72.0545 53.5814 72.8893 52.4002 74.4077 50.8129C77.6203 47.4541 81.8557 45.458 86.7996 44.9729C86.9827 44.955 87.0166 46.3258 86.9753 52.0411ZM69.3766 52.4153L68.4668 53.9014H45H21.5332L20.6234 52.4153L19.7137 50.9293H45H70.2863L69.3766 52.4153ZM50.9766 58.4027V59.8973H48.7793H46.582V68.3264C46.582 77.5593 46.6251 78.0598 47.6379 80.5902C48.3845 82.455 49.5828 84.2261 51.097 85.7025L52.4046 86.9774H45H37.5954L38.903 85.7025C40.4172 84.2261 41.6155 82.455 42.362 80.5902C43.3749 78.0598 43.418 77.5593 43.418 68.3264V59.8973H41.2207H39.0234V58.4027V56.908H45H50.9766V58.4027Z" fill="#E0B08B"/>
</svg>
