<svg width="90" height="90" viewBox="0 0 90 90" fill="none" xmlns="http://www.w3.org/2000/svg">
<path fill-rule="evenodd" clip-rule="evenodd" d="M40.431 1.49414V2.98828H41.9252H43.4194V5.24443V7.50059L41.2551 7.71047C26.0297 9.18668 12.984 19.5398 8.10747 34.0167C6.98806 37.3396 6.38986 40.2873 6.11897 43.8135L5.90627 46.582H3.49482C2.16868 46.582 0.955403 46.6313 0.798952 46.6912C0.398509 46.8448 -0.000527361 47.6891 0.00298838 48.375C0.0152935 50.6892 1.23262 53.4431 3.05518 55.2792C4.41261 56.6467 5.60075 57.4007 7.38306 58.0254C8.47452 58.4079 8.81098 58.4288 14.8992 58.494L21.2725 58.5621L19.2939 60.21C18.043 61.2517 17.2539 61.7962 17.1482 61.6906C17.0471 61.5895 13.6238 61.5234 8.49051 61.5234H0V63.0176V64.5117H7.47095H14.9419V75.7617V87.0117H7.47095H0V88.5059V90H8.36149C14.3811 90 16.8304 89.9427 17.1069 89.7956C17.8542 89.3976 17.9189 89.1394 17.9247 86.5343L17.9303 84.0354L36.7834 83.9791L55.6366 83.9227L56.7871 83.5362C57.42 83.3235 58.4276 82.8517 59.0263 82.4878C60.5038 81.5899 79.4448 65.9067 79.9305 65.1792C80.9825 63.604 81.2874 61.6778 80.7325 60.1172C80.5433 59.5854 80.3298 59.0152 80.2577 58.8502C80.1556 58.6157 80.2364 58.5281 80.6263 58.4506C82.4076 58.0962 83.0263 57.9032 84.202 57.3356C86.0151 56.4604 87.9391 54.5472 88.8333 52.7305C89.4751 51.4262 89.994 49.4891 90 48.375C90.0035 47.6891 89.6045 46.8448 89.204 46.6912C89.0476 46.6313 87.8343 46.582 86.5081 46.582H84.0967L83.884 43.8135C83.6131 40.2873 83.0149 37.3396 81.8955 34.0167C77.0179 19.5369 63.9766 9.18703 48.7479 7.71047L46.5836 7.50059V5.24443V2.98828H48.0778H49.5719V1.49414V0H45.0015H40.431V1.49414ZM48.9567 10.7304C55.3462 11.4597 61.5302 13.9551 66.8378 17.9455C68.6672 19.321 72.1975 22.8493 73.5932 24.6973C77.7357 30.1816 80.2311 36.6175 80.852 43.418C80.9536 44.5298 81.0369 45.6571 81.0373 45.9229L81.0378 46.4062H45.0015H8.96514L8.96567 45.9229C8.96602 45.6571 9.04934 44.5298 9.15095 43.418C9.77183 36.6175 12.2673 30.1816 16.4097 24.6973C17.8055 22.8493 21.3358 19.321 23.1652 17.9455C28.3748 14.0287 34.683 11.4567 40.8397 10.7394C42.6714 10.526 47.1231 10.521 48.9567 10.7304ZM40.6275 13.819C35.4895 14.5165 30.2793 16.5405 26.1923 19.4265C24.9911 20.2746 22.5007 22.3407 22.5007 22.4891C22.5007 22.5494 22.9555 23.0486 23.5115 23.5983L24.5223 24.5976L25.6649 23.629C28.8514 20.9276 32.6971 18.8736 36.8274 17.6669C38.6278 17.141 42.4863 16.5254 43.9907 16.5243L45.0015 16.5234V15.0293V13.5352L43.727 13.5533C43.026 13.5631 41.6313 13.6828 40.6275 13.819ZM19.4828 25.6333C19.0413 26.1819 18.4123 27.0134 18.0853 27.4809L17.4908 28.331L17.9238 28.6819C18.1618 28.8749 18.7088 29.2393 19.1395 29.4917L19.9223 29.9505L20.3765 29.3537C20.6263 29.0254 21.2077 28.2839 21.6682 27.7059L22.5055 26.6551L22.0198 26.1432C21.7526 25.8618 21.2532 25.4074 20.9099 25.1336L20.286 24.6356L19.4828 25.6333ZM86.6291 50.2295C86.3153 51.3707 85.7723 52.2471 84.7513 53.2607C83.605 54.3987 82.2172 55.1104 80.6472 55.3651C79.1258 55.6121 10.8772 55.6121 9.35574 55.3651C6.56143 54.9116 4.07439 52.7764 3.37388 50.2295L3.19247 49.5703H45.0015H86.8105L86.6291 50.2295ZM48.2347 58.8016C49.8263 59.557 49.8131 62.0919 48.2142 62.7249C47.906 62.8469 45.6526 62.9372 42.101 62.9699C35.8987 63.0272 35.8505 63.035 34.5455 64.1809C32.5763 65.9097 32.5763 69.0903 34.5455 70.8191C35.9265 72.0316 35.4311 71.9824 46.2388 71.9824H56.0021L64.7993 65.7014C69.6379 62.247 73.8993 59.294 74.2693 59.1393C75.978 58.4255 78.0319 59.8744 78.0456 61.8035C78.0547 63.0809 77.6485 63.4686 67.678 71.7029C62.4088 76.0547 57.7242 79.8196 57.2679 80.0696C55.5114 81.0316 55.5728 81.0288 36.0803 81.0322L18.1061 81.0352V73.0775V65.1201L21.4773 62.3109C23.3313 60.766 25.0061 59.3891 25.1989 59.2511C26.148 58.5721 26.5083 58.5508 37.2403 58.5429C46.2102 58.5362 47.7519 58.5726 48.2347 58.8016ZM62.2724 63.8147L54.8776 69.0943L45.8811 69.0442L36.8847 68.9941L36.4605 68.5009C35.9186 67.8707 35.9184 67.1295 36.4603 66.4991L36.8843 66.0059L42.8326 65.918C48.6408 65.8322 48.7995 65.8204 49.5719 65.4187C52.0161 64.1482 53.0842 61.3724 52.108 58.8287C52.0036 58.557 52.6494 58.5352 60.8313 58.5352H69.6672L62.2724 63.8147ZM5.96094 75.2996C3.67659 76.1161 2.46436 78.7709 3.32923 81.0628C4.48556 84.1264 8.3919 84.9468 10.6803 82.6063C11.4659 81.8026 11.835 80.9355 11.9187 79.6971C12.1302 76.5686 8.95916 74.2279 5.96094 75.2996ZM8.53358 78.4784C9.45822 79.4028 8.79867 80.9297 7.47482 80.9297C6.05129 80.9297 5.5111 79.1578 6.66461 78.2722C7.14522 77.9033 8.05948 78.0042 8.53358 78.4784Z" fill="#E0B08B"/>
</svg>
