<svg width="88" height="89" viewBox="0 0 88 89" fill="none" xmlns="http://www.w3.org/2000/svg">
<path fill-rule="evenodd" clip-rule="evenodd" d="M39.6952 0.151712C34.9563 0.620127 29.2178 2.25806 24.8647 4.3848C20.1527 6.68681 16.6206 9.22831 12.8829 13.006C7.9177 18.0243 4.41538 23.742 2.26164 30.3453C-1.41145 41.6069 -0.593378 53.4205 4.59092 63.9825C10.247 75.506 20.336 83.939 32.6169 87.4086C45.7108 91.1078 59.9058 88.2776 71.0048 79.7548C73.2897 78.0002 77.1881 74.0601 78.924 71.7508C83.6004 65.5297 86.5457 58.4318 87.6766 50.6579C88.1073 47.6969 88.1079 41.4474 87.6777 38.5854C86.2295 28.9534 82.2306 20.682 75.7232 13.8592C69.4349 7.26594 62.1652 3.08919 53.4093 1.03918C49.6 0.147241 43.6408 -0.238366 39.6952 0.151712ZM50.0472 3.44028C67.4284 6.12682 81.1683 19.5175 84.3652 36.8863C88.5115 59.4122 73.8392 81.0388 51.5513 85.2524C30.7984 89.1758 10.3696 76.4222 4.58915 55.9341C-1.42525 34.6166 10.0598 12.4249 30.8474 5.19715C33.5594 4.25424 37.2474 3.47515 40.757 3.10386C42.2409 2.94682 48.2666 3.16502 50.0472 3.44028ZM41.0224 5.7997C36.23 6.16528 31.2356 7.57696 26.7774 9.82568C9.76425 18.4072 1.59434 38.4069 7.67191 56.5955C9.66603 62.5633 12.5326 67.202 17.0448 71.7626C20.3793 75.1329 23.5164 77.4165 27.4916 79.3674C42.0852 86.5295 59.7131 83.5631 71.1046 72.0282C74.3139 68.7784 76.4144 65.7996 78.4613 61.595C82.9321 52.4116 83.6059 42.1184 80.3761 32.3472C78.4528 26.5289 75.5008 21.7528 71.0165 17.2042C67.5776 13.7161 64.1503 11.2685 59.9567 9.30611C54.1467 6.58737 47.3052 5.32038 41.0224 5.7997ZM47.4183 8.90047C59.843 10.1444 70.6235 17.8113 76.0042 29.2299C78.7168 34.9861 79.8642 41.6164 79.2376 47.9115C77.537 64.993 64.3187 78.3529 47.4183 80.0717C32.8581 81.5524 18.7604 73.5593 12.2592 60.1371C3.60686 42.274 11.0842 20.7661 28.9348 12.1715C34.6392 9.42505 41.1496 8.27288 47.4183 8.90047ZM39.8722 21.784C31.5846 22.6528 23.5801 25.8459 17.3102 30.7842C14.0652 33.34 13.5688 33.9835 13.5688 35.6343C13.5688 37.7441 14.957 39.1227 17.0802 39.1212C18.2766 39.1205 18.648 38.9259 20.6524 37.2499C31.72 27.9953 47.3088 26.1549 60.2222 32.5783C62.8332 33.8769 65.6301 35.7057 67.5889 37.3949C69.2995 38.8701 69.8454 39.1475 71.0394 39.1475C73.0163 39.1475 74.4672 37.6641 74.4672 35.6429C74.4672 34.2055 74.003 33.4668 72.083 31.8496C66.8173 27.4141 59.8601 23.9912 53.2324 22.5756C49.4889 21.7761 43.3931 21.4148 39.8722 21.784ZM47.7467 24.6472C56.0674 25.424 63.7976 28.6603 70.274 34.0788C71.4338 35.0491 71.6463 35.3092 71.6012 35.7025C71.5042 36.547 70.8719 36.4086 69.4561 35.2331C63.7015 30.4553 57.6446 27.6682 50.2241 26.3837C48.4333 26.0737 47.2711 25.9997 44.1191 25.9949C41.7617 25.9913 39.6676 26.08 38.8104 26.2197C30.876 27.5121 24.8601 30.1476 19.0361 34.8824C17.167 36.4019 16.5626 36.5944 16.4601 35.7025C16.415 35.3092 16.6275 35.0491 17.7873 34.0788C22.6989 29.9695 28.1189 27.2018 34.2023 25.6965C38.711 24.5809 43.26 24.2283 47.7467 24.6472ZM40.403 31.8069C38.4098 32.0168 35.7811 32.5951 33.4789 33.3298C28.2969 34.9836 21.5943 39.3058 20.7511 41.5375C19.9444 43.6725 21.4517 46.0446 23.7369 46.236C24.9549 46.3381 25.7222 45.9793 27.8004 44.3357C30.7706 41.9866 34.5833 40.2146 38.545 39.3421C40.3282 38.9493 41.007 38.8937 44.0306 38.8937C47.0543 38.8937 47.7331 38.9493 49.5163 39.3421C53.478 40.2146 57.2907 41.9866 60.2609 44.3357C62.3391 45.9793 63.1064 46.3381 64.3244 46.236C66.6096 46.0446 68.1169 43.6725 67.3102 41.5375C66.4769 39.3323 59.8817 35.0593 54.648 33.3339C50.1565 31.8532 45.1041 31.3116 40.403 31.8069ZM47.3043 34.6544C53.271 35.3272 58.9334 37.6888 63.5408 41.4259C64.636 42.3141 64.8873 42.7446 64.5505 43.1547C64.1833 43.602 63.774 43.4473 62.4201 42.3495C51.7727 33.7152 35.9191 33.8343 25.2971 42.6283C24.2984 43.4554 23.8629 43.5836 23.5108 43.1547C23.174 42.7446 23.4253 42.3141 24.5205 41.4259C30.8835 36.2649 39.3291 33.7547 47.3043 34.6544ZM40.4328 41.894C39.5733 42.036 38.2594 42.3248 37.513 42.5361C33.5713 43.6521 28.6871 46.5871 27.9163 48.3028C26.7737 50.8465 28.7161 53.6893 31.3889 53.3847C32.1562 53.2973 32.4333 53.1492 35.1427 51.3776C37.9322 49.5537 41.3586 48.6568 44.827 48.8426C48.2612 49.0264 50.7106 49.8672 53.7638 51.9103C55.9441 53.3692 56.6165 53.5942 57.8232 53.2679C60.191 52.6278 61.2326 49.9375 59.9005 47.9027C58.9999 46.5275 54.6452 43.8719 51.6398 42.8651C48.3923 41.7774 43.6369 41.3653 40.4328 41.894ZM48.6315 45.0012C51.432 45.6485 54.7123 47.1653 56.6689 48.7174C57.6455 49.492 57.8563 49.9372 57.444 50.3539C57.098 50.7035 56.8304 50.6118 55.6661 49.744C52.5136 47.395 48.0267 45.9205 44.0306 45.9205C40.0274 45.9205 35.5482 47.3946 32.3814 49.7544C31.2362 50.6077 30.8458 50.6996 30.5285 50.1904C30.2525 49.7472 30.4717 49.4103 31.5688 48.5909C34.2913 46.5583 37.7036 45.2058 41.6417 44.5984C42.8442 44.4129 47.1638 44.6617 48.6315 45.0012ZM41.927 50.4936C37.4403 51.7132 34.6643 56.4086 35.8077 60.845C36.9915 65.4389 41.6302 68.2726 46.0582 67.1068C50.2643 65.9996 53.0126 61.9046 52.406 57.6489C51.6853 52.5915 46.7092 49.1937 41.927 50.4936ZM46.4196 53.6233C47.5381 54.1597 48.6039 55.2308 49.1634 56.3812C49.5227 57.1195 49.5982 57.5407 49.597 58.7957C49.5956 60.1815 49.5425 60.4158 48.9955 61.4429C48.3272 62.6985 47.7713 63.2409 46.4385 63.939C45.6726 64.3402 45.3053 64.4133 44.0306 64.418C42.784 64.4224 42.375 64.348 41.6417 63.9835C37.0417 61.6974 37.4249 55.1364 42.262 53.3599C43.3787 52.9498 45.2644 53.0692 46.4196 53.6233Z" fill="#E0B08B"/>
</svg>
