<svg width="58" height="40" viewBox="0 0 58 40" fill="none" xmlns="http://www.w3.org/2000/svg">
<path fill-rule="evenodd" clip-rule="evenodd" d="M2.80486 0.068318C2.24548 0.199237 1.24085 0.770456 0.921204 1.13921C0.76185 1.32302 0.489426 1.73477 0.315778 2.05439L0 2.63528V13.6115V24.5878L0.315778 25.1687C0.78341 26.0293 1.13657 26.3835 1.95665 26.8152L2.69495 27.2039H29H55.305L55.9034 26.8973C56.7901 26.4434 57.155 26.1006 57.5996 25.3045L58 24.5878V13.6115V2.63528L57.5996 1.91858C57.155 1.12249 56.7901 0.77967 55.9034 0.325719L55.305 0.0191809L29.2343 0.00177819C14.8955 -0.00777626 3.00217 0.0221382 2.80486 0.068318ZM55.059 1.94076C55.274 2.028 55.6018 2.29269 55.7876 2.52904L56.1253 2.95877V13.6228C56.1253 24.2158 56.1236 24.2888 55.8836 24.6008C55.7508 24.7736 55.4965 25.0204 55.3185 25.1494L54.9949 25.384H29.0116H3.02819L2.58551 25.0562C1.77492 24.4559 1.81616 25.0694 1.81616 13.6226C1.81616 6.56978 1.856 3.17374 1.94118 2.95547C2.10745 2.52927 2.49834 2.12867 2.92929 1.94281C3.46571 1.71134 54.4885 1.70929 55.059 1.94076ZM3.97857 3.88134C3.69325 4.15819 3.69091 4.1781 3.69091 6.33194C3.69091 8.48579 3.69325 8.50569 3.97857 8.78254L4.26611 9.06178H11.1899H18.1137L18.4012 8.78254C18.6865 8.50569 18.6889 8.48579 18.6889 6.33194C18.6889 4.1781 18.6865 4.15819 18.4012 3.88134L18.1137 3.6021H11.1899H4.26611L3.97857 3.88134ZM42.4109 3.88134C42.1256 4.15819 42.1232 4.1781 42.1232 6.33194C42.1232 9.2556 41.9236 9.06178 44.9354 9.06178C47.9471 9.06178 47.7475 9.2556 47.7475 6.33194C47.7475 3.40828 47.9471 3.6021 44.9354 3.6021C42.7166 3.6021 42.6961 3.60437 42.4109 3.88134ZM48.9725 3.88134C48.6872 4.15819 48.6848 4.1781 48.6848 6.33194C48.6848 9.2556 48.4852 9.06178 51.497 9.06178C54.5088 9.06178 54.3091 9.2556 54.3091 6.33194C54.3091 3.40828 54.5088 3.6021 51.497 3.6021C49.2782 3.6021 49.2577 3.60437 48.9725 3.88134ZM16.8141 6.33194V7.24189H11.1899H5.56566V6.33194V5.42199H11.1899H16.8141V6.33194ZM45.8727 6.33194V7.24189H44.9354H43.998V6.33194V5.42199H44.9354H45.8727V6.33194ZM52.4343 6.33194V7.24189H51.497H50.5596V6.33194V5.42199H51.497H52.4343V6.33194ZM6.79069 18.4405C6.50537 18.7174 6.50303 18.7373 6.50303 20.8911C6.50303 23.0449 6.50537 23.0649 6.79069 23.3417L7.07823 23.6209H29H50.9218L51.2093 23.3417C51.4946 23.0649 51.497 23.0449 51.497 20.8911C51.497 18.7373 51.4946 18.7174 51.2093 18.4405L50.9218 18.1613H29H7.07823L6.79069 18.4405ZM49.6222 20.8911V21.8011H29H8.37778V20.8911V19.9812H29H49.6222V20.8911ZM17.1018 29.3599C16.7237 29.7268 16.7389 30.0356 17.1773 30.887C17.6295 31.7658 17.746 32.7145 17.4722 33.2895C17.368 33.5082 17.0711 33.9432 16.8123 34.256C15.7706 35.515 15.7291 37.2288 16.6951 39.0865C17.0671 39.802 17.3084 40 17.8078 40C18.1903 40 18.6889 39.5306 18.6889 39.1702C18.6889 39.021 18.5256 38.5815 18.3258 38.1936C17.8735 37.3149 17.757 36.3661 18.0309 35.7912C18.135 35.5724 18.4319 35.1375 18.6908 34.8247C19.479 33.8718 19.6984 32.6779 19.3346 31.3217C19.1094 30.4824 18.5192 29.3497 18.2284 29.1987C17.8494 29.0017 17.4052 29.0653 17.1018 29.3599ZM22.726 29.3599C22.3479 29.7268 22.3632 30.0356 22.8015 30.887C23.2538 31.7658 23.3703 32.7145 23.0964 33.2895C22.9923 33.5082 22.6953 33.9432 22.4365 34.256C21.3949 35.515 21.3534 37.2288 22.3193 39.0865C22.6914 39.802 22.9326 40 23.432 40C23.8146 40 24.3131 39.5306 24.3131 39.1702C24.3131 39.021 24.1498 38.5815 23.95 38.1936C23.4977 37.3149 23.3813 36.3661 23.6551 35.7912C23.7593 35.5724 24.0562 35.1375 24.315 34.8247C25.1032 33.8718 25.3227 32.6779 24.9589 31.3217C24.7337 30.4824 24.1435 29.3497 23.8526 29.1987C23.4736 29.0017 23.0294 29.0653 22.726 29.3599ZM28.3503 29.3599C27.9722 29.7268 27.9874 30.0356 28.4257 30.887C28.878 31.7658 28.9945 32.7145 28.7207 33.2895C28.6165 33.5082 28.3196 33.9432 28.0608 34.256C27.0191 35.515 26.9776 37.2288 27.9436 39.0865C28.3156 39.802 28.5569 40 29.0562 40C29.4388 40 29.9374 39.5306 29.9374 39.1702C29.9374 39.021 29.774 38.5815 29.5743 38.1936C29.122 37.3149 29.0055 36.3661 29.2793 35.7912C29.3835 35.5724 29.6804 35.1375 29.9392 34.8247C30.7275 33.8718 30.9469 32.6779 30.5831 31.3217C30.3579 30.4824 29.7677 29.3497 29.4769 29.1987C29.0978 29.0017 28.6536 29.0653 28.3503 29.3599ZM33.9745 29.3599C33.5964 29.7268 33.6116 30.0356 34.05 30.887C34.5023 31.7658 34.6187 32.7145 34.3449 33.2895C34.2407 33.5082 33.9438 33.9432 33.685 34.256C32.6433 35.515 32.6019 37.2288 33.5678 39.0865C33.9398 39.802 34.1811 40 34.6805 40C35.0631 40 35.5616 39.5306 35.5616 39.1702C35.5616 39.021 35.3983 38.5815 35.1985 38.1936C34.7462 37.3149 34.6297 36.3661 34.9036 35.7912C35.0077 35.5724 35.3047 35.1375 35.5635 34.8247C36.3517 33.8718 36.5712 32.6779 36.2073 31.3217C35.9821 30.4824 35.392 29.3497 35.1011 29.1987C34.7221 29.0017 34.2779 29.0653 33.9745 29.3599ZM39.5988 29.3599C39.2207 29.7268 39.2359 30.0356 39.6742 30.887C40.1265 31.7658 40.243 32.7145 39.9691 33.2895C39.865 33.5082 39.5681 33.9432 39.3092 34.256C38.2676 35.515 38.2261 37.2288 39.1921 39.0865C39.5641 39.802 39.8053 40 40.3047 40C40.6873 40 41.1859 39.5306 41.1859 39.1702C41.1859 39.021 41.0225 38.5815 40.8227 38.1936C40.3705 37.3149 40.254 36.3661 40.5278 35.7912C40.632 35.5724 40.9289 35.1375 41.1877 34.8247C41.9759 33.8718 42.1954 32.6779 41.8316 31.3217C41.6064 30.4824 41.0162 29.3497 40.7254 29.1987C40.3463 29.0017 39.9021 29.0653 39.5988 29.3599Z" fill="#333333"/>
</svg>
    