<svg width="70" height="72" viewBox="0 0 70 72" fill="none" xmlns="http://www.w3.org/2000/svg">
<path fill-rule="evenodd" clip-rule="evenodd" d="M20.1084 0.162949C16.9359 0.744106 14.3898 2.05178 12.2159 4.21659C9.74458 6.67764 8.27762 9.87855 7.97629 13.4675L7.86834 14.7536L6.94268 14.9394C5.03098 15.3232 2.71655 16.8134 1.66272 18.3388C-0.455184 21.4043 -0.556294 25.1666 1.39656 28.2457C2.42461 29.8668 4.36963 31.3378 6.19503 31.875L6.80027 32.0532L6.80113 34.7605C6.80155 36.2497 6.87048 37.7141 6.95422 38.0148C7.13337 38.657 8.05148 39.7022 8.65515 39.9512L9.07882 40.1261V42.1651C9.07882 45.0001 8.70414 44.7715 13.3511 44.7715C17.9911 44.7715 17.6234 44.9912 17.6234 42.2189V40.2335H34.9973H52.3712V42.2189C52.3712 44.9912 52.0035 44.7715 56.6434 44.7715C61.2904 44.7715 60.9157 45.0001 60.9157 42.1651V40.1261L61.3394 39.9512C61.943 39.7022 62.8612 38.657 63.0403 38.0148C63.124 37.7141 63.193 36.2497 63.1934 34.7605L63.1942 32.0532L63.7995 31.875C66.4029 31.1089 68.643 28.9137 69.5417 26.2477C71.2147 21.2844 68.1444 15.9876 62.9806 14.9287L62.1262 14.7536L62.0182 13.4675C61.4875 7.14549 57.2796 2.08894 51.1607 0.420343L49.7366 0.0320534L35.4245 0.00553406C24.217 -0.0151709 20.8946 0.0190064 20.1084 0.162949ZM50.7335 2.05419C56.1316 3.56665 59.8747 8.05495 60.2967 13.5213L60.3869 14.6912L59.9748 14.7781C58.5607 15.0763 58.1742 15.2009 57.2131 15.6679C55.7245 16.3911 54.0623 18.0491 53.3236 19.5476C52.2809 21.6629 52.0972 24.2009 52.8398 26.2292L53.1903 27.1865H50.6294C48.243 27.1865 48.076 27.1696 48.1794 26.9383C48.2403 26.8017 48.3178 25.9148 48.3512 24.9671C48.4081 23.3622 48.3917 23.2236 48.1131 22.9462C47.8762 22.7102 47.6376 22.6484 46.9643 22.6484H46.1144L46.0743 16.929L46.034 11.2096L45.6046 10.5181C45.292 10.015 44.9677 9.71886 44.4133 9.43041L43.6517 9.03418H35.0615C29.3796 9.03418 26.3355 9.08481 26.0704 9.18394C25.2692 9.48317 24.6095 10.0615 24.2501 10.7798L23.8894 11.5008V17.0745V22.6484H23.0349C22.3567 22.6484 22.1188 22.7098 21.8814 22.9462C21.6028 23.2236 21.5865 23.3622 21.6433 24.9671C21.6767 25.9148 21.7542 26.8017 21.8152 26.9383C21.9186 27.1696 21.7518 27.1865 19.3726 27.1865H16.8192L17.1809 26.1583C17.4861 25.2911 17.5433 24.8749 17.5467 23.4993C17.5512 21.6802 17.2725 20.5654 16.4479 19.103C15.7669 17.8953 14.0517 16.2893 12.7815 15.6698C11.8203 15.201 11.4345 15.0765 10.0197 14.7781L9.60758 14.6912L9.69787 13.5213C10.147 7.70254 14.4444 2.92224 20.1631 1.87962C21.0597 1.71625 23.7877 1.68547 35.4245 1.70788L49.5942 1.73497L50.7335 2.05419ZM43.617 10.9054C44.378 11.2506 44.3963 11.3995 44.3963 17.2524V22.6484H34.9973H25.5983L25.6032 17.224C25.6087 11.424 25.6202 11.3234 26.326 10.9339C26.7971 10.6738 43.0476 10.647 43.617 10.9054ZM34.1092 13.706C32.8944 14.0936 32.0635 15.1092 31.9108 16.3931C31.687 18.275 33.3964 19.9901 35.2754 19.7684C36.8939 19.5776 37.945 18.4857 38.0884 16.8465C38.2314 15.2115 36.9115 13.718 35.2402 13.6236C34.8323 13.6005 34.3235 13.6376 34.1092 13.706ZM35.6887 15.4761C36.6498 15.9711 36.621 17.4967 35.6421 17.9409C34.9114 18.2724 34.115 18.0333 33.7761 17.3807C33.1076 16.0934 34.396 14.8104 35.6887 15.4761ZM10.6569 16.6685C13.655 17.4479 15.9144 20.3835 15.9144 23.4993C15.9144 24.6013 15.6509 25.6109 15.0489 26.8135C14.4069 28.0964 14.3881 28.2192 14.7752 28.6046C15.0573 28.8856 15.2498 28.8883 34.9973 28.8883C54.7447 28.8883 54.9372 28.8856 55.2193 28.6046C55.6064 28.2192 55.5876 28.0964 54.9456 26.8135C53.8334 24.5914 53.792 22.5748 54.814 20.4154C56.9405 15.923 63.1283 15.0695 66.4996 18.8037C68.9128 21.4766 68.8974 25.5779 66.4641 28.2291C65.3727 29.4182 64.0943 30.1202 62.3142 30.5075C61.5001 30.6845 61.4853 30.7509 61.4853 34.2235C61.4853 37.689 61.4195 38.0386 60.7061 38.3622C60.421 38.4915 54.3336 38.5317 34.9834 38.5317C7.41334 38.5317 9.0566 38.5802 8.67936 37.7557C8.56358 37.5028 8.50918 36.3686 8.50918 34.2097C8.50918 30.7523 8.49408 30.6852 7.68036 30.5068C5.20543 29.9645 3.35255 28.5777 2.39129 26.5483C1.07073 23.7602 1.60676 20.7014 3.79701 18.5254C5.64619 16.6884 8.1382 16.0139 10.6569 16.6685ZM7.90594 20.5131C6.69119 20.9007 5.86023 21.9164 5.70757 23.2002C5.4837 25.0821 7.19318 26.7972 9.07212 26.5756C10.6906 26.3847 11.7417 25.2928 11.8851 23.6536C12.0281 22.0186 10.7083 20.5252 9.03695 20.4307C8.62909 20.4076 8.12026 20.4447 7.90594 20.5131ZM60.3125 20.5131C59.0977 20.9007 58.2668 21.9164 58.1141 23.2002C57.8902 25.0821 59.5997 26.7972 61.4786 26.5756C63.0971 26.3847 64.1482 25.2928 64.2916 23.6536C64.4346 22.0186 63.1148 20.5252 61.4435 20.4307C61.0356 20.4076 60.5268 20.4447 60.3125 20.5131ZM9.48539 22.2832C10.4465 22.7782 10.4177 24.3038 9.43883 24.748C8.70813 25.0795 7.91177 24.8404 7.57284 24.1878C6.90437 22.9006 8.19275 21.6176 9.48539 22.2832ZM61.8919 22.2832C62.853 22.7782 62.8243 24.3038 61.8454 24.748C61.1147 25.0795 60.3183 24.8404 59.9794 24.1878C59.3109 22.9006 60.5993 21.6176 61.8919 22.2832ZM46.6748 25.2082C46.6748 26.1986 46.4259 26.7765 45.8955 27.017C45.3588 27.2607 24.6357 27.2607 24.099 27.017C23.5686 26.7765 23.3197 26.1986 23.3197 25.2082V24.3502H34.9973H46.6748V25.2082ZM15.9144 41.6516V43.0698H13.3511H10.7877V41.6516V40.2335H13.3511H15.9144V41.6516ZM59.2068 41.6516V43.0698H56.6434H54.0801V41.6516V40.2335H56.6434H59.2068V41.6516ZM37.8454 44.4879C37.5717 44.7605 37.5606 44.9606 37.5606 49.5932V54.4149H35.0504H32.54L33.1035 53.8063C34.3667 52.4415 35.1214 49.7169 34.4276 49.026C34.1494 48.7489 33.953 48.7424 25.8831 48.7424C17.8132 48.7424 17.6168 48.7489 17.3385 49.026C16.6447 49.7169 17.3995 52.4415 18.6627 53.8063L19.2262 54.4149H15.3793H11.5322L10.7706 54.8112C8.92772 55.77 8.52613 58.239 9.97799 59.6848C10.7316 60.4353 11.3914 60.6481 12.9747 60.6517C14.0393 60.6541 14.3615 60.6976 14.3079 60.8321C14.2693 60.9296 13.3331 63.2592 12.2278 66.0092C11.1225 68.7591 10.2181 71.1044 10.2181 71.2209C10.2181 71.3374 10.3463 71.5604 10.5029 71.7164C10.7666 71.979 10.9776 72 13.3511 72C15.6058 72 15.9445 71.9701 16.1645 71.751C16.3021 71.614 16.6704 70.8482 16.9831 70.0492L17.5516 68.5964H34.9973H52.4429L53.0114 70.0492C53.3242 70.8482 53.6924 71.614 53.83 71.751C54.05 71.9701 54.3887 72 56.6434 72C59.017 72 59.2279 71.979 59.4916 71.7164C59.6483 71.5604 59.7764 71.3374 59.7764 71.2209C59.7764 71.1044 58.872 68.7591 57.7668 66.0092C56.6614 63.2592 55.7252 60.9296 55.6866 60.8321C55.633 60.6973 55.9582 60.6548 57.0392 60.6548C58.3204 60.6548 58.5382 60.6152 59.2239 60.2586C60.3243 59.6861 60.8445 58.8119 60.8445 57.5349C60.8445 56.2578 60.3243 55.3837 59.2239 54.8112L58.4623 54.4149H53.423H48.3837V53.5763V52.7376L50.0114 52.6899C51.3865 52.6496 51.7017 52.5966 52.0408 52.3486C52.7515 51.8287 52.9404 51.2502 52.9404 49.5932C52.9404 47.8811 52.7423 47.3167 51.9585 46.7952C51.5297 46.5099 51.2988 46.4733 49.9291 46.4733H48.3837V45.6224C48.3837 44.1368 48.6412 44.2043 42.9722 44.2043C38.3201 44.2043 38.1192 44.2153 37.8454 44.4879ZM46.6748 50.1605V54.4149H42.9722H39.2695V50.1605V45.9061H42.9722H46.6748V50.1605ZM51.1607 49.5932V50.9405L49.7722 50.981L48.3837 51.0216V49.5932V48.1649L49.7722 48.2054L51.1607 48.246V49.5932ZM32.8611 50.7C32.8611 51.1509 32.1724 52.3501 31.5591 52.967C31.2318 53.2962 30.6058 53.7408 30.168 53.9548L29.3721 54.344H25.8831H22.3941L21.5875 53.9496C20.5883 53.461 19.7475 52.6394 19.2697 51.6846C18.5893 50.3249 17.9532 50.4441 25.8831 50.4441C32.5129 50.4441 32.8611 50.4569 32.8611 50.7ZM58.4741 56.3188C59.4218 56.8069 59.4218 58.2628 58.4741 58.7509C58.1392 58.9234 54.7001 58.953 35.0111 58.953C17.4275 58.953 11.8515 58.9127 11.567 58.7836C10.5923 58.3414 10.561 56.8414 11.5154 56.3147C12.0429 56.0236 57.9086 56.0277 58.4741 56.3188ZM18.905 60.6924C18.905 60.7129 18.0463 62.8668 16.9969 65.4786L15.0888 70.2273L13.7041 70.2682C12.6201 70.3001 12.3354 70.2693 12.3921 70.1263C12.432 70.0258 13.2478 67.9973 14.205 65.6183C15.1622 63.2394 16.0009 61.1495 16.0688 60.9739C16.1849 60.674 16.2735 60.6548 17.5486 60.6548C18.2947 60.6548 18.905 60.6717 18.905 60.6924ZM50.4626 63.7006C51.1207 65.3367 51.6591 66.7246 51.6591 66.785C51.6591 66.8453 44.1613 66.8947 34.9973 66.8947C25.8332 66.8947 18.3354 66.8452 18.3354 66.7846C18.3354 66.7241 18.8232 65.4636 19.4193 63.9838C20.0155 62.5038 20.5587 61.149 20.6266 60.9732L20.7498 60.6534L35.0079 60.6895L49.2659 60.7257L50.4626 63.7006ZM55.7322 65.4744C56.7816 68.0862 57.6403 70.2423 57.6403 70.2659C57.6403 70.2893 57.0251 70.2903 56.273 70.2679L54.9058 70.2273L52.9976 65.4786C51.9482 62.8668 51.0895 60.7107 51.0895 60.6871C51.0895 60.6637 51.7047 60.6627 52.4567 60.6852L53.824 60.7257L55.7322 65.4744Z" fill="#333333"/>
</svg>
