<svg width="41" height="42" viewBox="0 0 41 42" fill="none" xmlns="http://www.w3.org/2000/svg">
<path fill-rule="evenodd" clip-rule="evenodd" d="M2.16763 0.07275C1.74155 0.168992 1.00915 0.579233 0.732656 0.876411C0.592453 1.02721 0.370283 1.34302 0.238859 1.57825L0 2.00597V21.0001V39.9942L0.296227 40.5099C0.644171 41.1156 1.02697 41.456 1.69096 41.75L2.17302 41.9634L20.2526 41.9875C40.3562 42.0142 38.9348 42.0524 39.7926 41.463C40.2724 41.1333 40.6725 40.5827 40.8559 39.9998C41.048 39.3892 41.048 2.61099 40.8559 2.00039C40.6723 1.41694 40.2721 0.866647 39.7926 0.538127C38.9419 -0.0447428 40.3797 -0.00511363 20.4207 0.0041578C10.5279 0.00883454 2.31401 0.0396846 2.16763 0.07275ZM7.59819 4.9766C7.22234 6.36223 6.89048 7.70068 6.86075 7.95084C6.79843 8.47546 6.93863 9.3176 7.17167 9.81858C7.26024 10.0089 9.13678 13.011 11.3418 16.4897C13.5467 19.9683 15.3732 22.8696 15.4006 22.9368C15.4297 23.0085 14.9878 23.7853 14.3311 24.8163L13.212 26.5735L7.88807 26.5764L2.56417 26.5794V14.6168C2.56417 5.42187 2.58833 2.63134 2.66847 2.55569C2.74522 2.48324 3.50074 2.45723 5.52721 2.45723H8.28156L7.59819 4.9766ZM14.2985 2.53911C14.2985 2.58416 13.9831 3.78666 13.5976 5.21134C13.0785 7.12954 12.9121 7.86945 12.9563 8.06267C12.9893 8.20626 14.3427 10.4199 15.964 12.982L18.9117 17.6403L17.9755 19.1135C17.2544 20.2482 17.0163 20.5634 16.9392 20.4856C16.6985 20.2426 9.57894 8.89849 9.50184 8.63496C9.45465 8.47381 9.43961 8.22373 9.46829 8.07916C9.52444 7.79659 10.8851 2.73029 10.9506 2.55979C11.0006 2.42983 14.2985 2.40948 14.2985 2.53911ZM24.6084 5.05364L25.3108 7.65005L22.875 11.4544L20.4392 15.2586L18.0337 11.4568L15.6284 7.65506L16.3292 5.0561L17.0301 2.45723H20.4681H23.9062L24.6084 5.05364ZM30.1667 3.19566C31.4556 7.93254 31.5282 8.23752 31.4467 8.57572C31.3972 8.78108 29.1906 12.3142 25.7224 17.7414L20.0787 26.5729L18.1882 26.5762C17.1484 26.5779 16.2977 26.5602 16.2977 26.5367C16.2977 26.5132 18.9133 22.4057 22.1102 17.4088C25.3071 12.412 27.9498 8.20626 27.983 8.06267C28.0276 7.86887 27.8627 7.13454 27.3422 5.21134C26.9567 3.78666 26.6413 2.58342 26.6413 2.53739C26.6413 2.48267 27.218 2.46141 28.3091 2.47594L29.9768 2.49825L30.1667 3.19566ZM38.2713 2.55569C38.3514 2.63134 38.3756 5.42187 38.3756 14.6168V26.5794H30.7607C24.7039 26.5794 23.1546 26.5584 23.1888 26.4768C23.2124 26.4204 25.5496 22.7559 28.3826 18.3335C31.2157 13.9111 33.6231 10.1035 33.7324 9.87191C34.0002 9.30496 34.1447 8.50401 34.079 7.95084C34.0493 7.70068 33.7174 6.36223 33.3415 4.9766L32.6582 2.45723H35.4125C37.439 2.45723 38.1945 2.48324 38.2713 2.55569ZM38.3756 30.2715V31.5022H20.4699H2.56417V30.2715V29.0408H20.4699H38.3756V30.2715ZM6.69847 36.7328L4.92442 39.5019L3.86511 39.5251C3.15871 39.5405 2.76565 39.5166 2.68507 39.4534C2.58633 39.3761 2.56417 38.8647 2.56417 36.6613V33.9637H5.51835H8.47261L6.69847 36.7328ZM13.5613 36.7328L11.7881 39.5019L9.86456 39.524C8.80656 39.5361 7.95943 39.5177 7.98195 39.483C8.00455 39.4483 8.75432 38.2753 9.64805 36.8764C10.5418 35.4775 11.3288 34.2499 11.3971 34.1483C11.5195 33.966 11.5451 33.9637 13.4277 33.9637H15.3345L13.5613 36.7328ZM38.3756 36.6613C38.3756 38.8324 38.3525 39.3768 38.2576 39.4511C38.1712 39.5188 35.0263 39.538 26.4862 39.5228L14.8327 39.5019L16.4376 36.9995C17.3203 35.6231 18.118 34.377 18.2102 34.2303L18.3779 33.9637H28.3767H38.3756V36.6613Z" fill="#333333"/>
</svg>
