<svg width="54" height="49" viewBox="0 0 54 49" fill="none" xmlns="http://www.w3.org/2000/svg">
<path fill-rule="evenodd" clip-rule="evenodd" d="M9.27511 0.0731873C7.10413 0.394037 5.25706 2.06252 4.6913 4.21363C4.55945 4.71474 4.53393 5.93548 4.53393 11.7372V18.6627L2.27213 25.9456L0.0104426 33.2287L0.000844421 40.5921C-0.00580047 45.738 0.0264747 48.0557 0.108217 48.2879C0.347434 48.9672 0.496047 48.9996 3.37371 48.9996C6.87135 48.9996 6.74889 49.0987 6.74889 46.2685V44.5607H27H47.2511V46.2685C47.2511 49.0987 47.1287 48.9996 50.6263 48.9996C53.504 48.9996 53.6526 48.9672 53.8918 48.2879C53.9735 48.0557 54.0058 45.738 53.9992 40.5921L53.9896 33.2287L51.7279 25.9456L49.4661 18.6627V11.7372C49.4661 4.15618 49.4726 4.24663 48.8341 2.99394C48.4684 2.27673 47.5343 1.28567 46.773 0.807423C46.4848 0.626423 45.9406 0.374193 45.5635 0.246981L44.8779 0.0157437L27.3692 0.0012261C17.7393 -0.00681602 9.59702 0.0255613 9.27511 0.0731873ZM45.0412 2.46243C45.737 2.72427 46.2176 3.09452 46.6278 3.68483C47.2434 4.57103 47.2485 4.63505 47.2498 11.5306L47.2511 17.8233H45.7258H44.2005L44.0964 17.4316C44.0391 17.2163 43.7967 16.2645 43.5576 15.3167C42.8923 12.6786 42.5688 12.12 41.3672 11.5343L40.6634 11.1912H36.2312C31.8276 11.1912 31.7956 11.1927 31.2613 11.4322C30.646 11.7079 29.9655 12.3561 29.6475 12.9692C29.3155 13.6092 29.215 14.3522 29.215 16.1664V17.8233H27H24.785V16.1664C24.785 14.3339 24.6886 13.6344 24.3408 12.9448C24.0512 12.3707 23.3435 11.7141 22.6941 11.4169C22.2135 11.1969 22.0884 11.1912 17.771 11.1912H13.3411L12.7519 11.4648C12.0141 11.8074 11.434 12.3748 11.1186 13.0622C10.9844 13.3543 10.6797 14.3688 10.4412 15.3167C10.2028 16.2645 9.96091 17.2163 9.90364 17.4316L9.79953 17.8233H8.27416H6.74889L6.75016 11.5306C6.75153 4.63505 6.75659 4.57103 7.37225 3.68483C7.77537 3.10465 8.25802 2.72782 8.93137 2.46723C9.42014 2.27819 10.0735 2.27088 26.9725 2.26618C44.0341 2.26138 44.5209 2.2667 45.0412 2.46243ZM21.6424 13.4409C21.8573 13.5 22.1301 13.6705 22.2489 13.8199C22.4533 14.0772 22.4646 14.23 22.4646 16.7327V19.3739L22.1401 19.6952L21.8155 20.0166H17.1746H12.5337L12.2254 19.7113C11.9986 19.4867 11.9171 19.3065 11.9171 19.029C11.9171 18.8216 12.1813 17.6077 12.504 16.3315C13.1177 13.9057 13.2993 13.5126 13.8566 13.4041C14.3605 13.3059 21.2705 13.3386 21.6424 13.4409ZM40.5987 13.6978C40.8727 13.9724 40.9839 14.298 41.4972 16.3315C41.8193 17.6077 42.0829 18.8216 42.0829 19.029C42.0829 19.3065 42.0014 19.4867 41.7746 19.7113L41.4663 20.0166H36.8254H32.1845L31.8599 19.6952L31.5354 19.3739V16.7327C31.5354 14.2228 31.5463 14.0779 31.753 13.8176C31.8727 13.667 32.1218 13.4992 32.3067 13.4449C32.4965 13.3892 34.3069 13.3545 36.4644 13.3654L40.286 13.3845L40.5987 13.6978ZM10.1357 20.6143C10.5517 21.3097 11.3119 21.9207 12.0122 22.1224C12.3857 22.23 13.6015 22.2621 17.2963 22.2621H22.0954L22.6755 21.9916C23.4612 21.6252 23.8976 21.239 24.2761 20.5747L24.5942 20.0166H27H29.4058L29.7239 20.5747C30.1024 21.239 30.5388 21.6252 31.3245 21.9916L31.9046 22.2621H36.7037C40.3985 22.2621 41.6143 22.23 41.9878 22.1224C42.6881 21.9207 43.4483 21.3097 43.8643 20.6143L44.222 20.0166H45.8778H47.5337L49.2381 25.4968C50.1757 28.511 50.9427 31.0254 50.9427 31.0845C50.9427 31.1579 43.3443 31.192 27 31.192C10.6557 31.192 3.05729 31.1579 3.05729 31.0845C3.05729 31.0254 3.8243 28.511 4.76186 25.4968L6.46633 20.0166H8.12217H9.77802L10.1357 20.6143ZM51.389 33.7789L51.7338 34.1203V38.2177V42.3152H27H2.26623V38.2226V34.13L2.57084 33.8152C2.73833 33.6421 2.97565 33.4808 3.09821 33.4567C3.22066 33.4326 14.0587 33.4184 27.1826 33.4252L51.0442 33.4375L51.389 33.7789ZM4.53393 45.6574V46.754H3.37371H2.21349V45.6574V44.5607H3.37371H4.53393V45.6574ZM51.7865 45.6574V46.754H50.6263H49.4661V45.6574V44.5607H50.6263H51.7865V45.6574Z" fill="#333333"/>
</svg>
