<svg width="70" height="70" viewBox="0 0 70 70" fill="none" xmlns="http://www.w3.org/2000/svg">
<path fill-rule="evenodd" clip-rule="evenodd" d="M31.7575 0.0805419C23.5565 0.877952 16.0549 4.41151 10.2316 10.2202C4.79045 15.6477 1.47086 22.2989 0.254476 30.2102C-0.0848252 32.4167 -0.0848252 37.5913 0.254476 39.7978C1.47004 47.7039 4.76196 54.3056 10.2134 59.7696C15.6415 65.2101 22.2934 68.5293 30.2057 69.7456C32.4124 70.0848 37.5876 70.0848 39.7943 69.7456C47.7014 68.5301 54.3038 65.2386 59.7684 59.7878C65.2095 54.3603 68.5291 47.7091 69.7455 39.7978C70.0848 37.5913 70.0848 32.4167 69.7455 30.2102C68.53 22.3041 65.238 15.7023 59.7866 10.2384C54.3953 4.83473 47.6645 1.46142 39.9313 0.287359C38.2197 0.0275365 33.525 -0.0912121 31.7575 0.0805419ZM39.4519 5.75692C45.7752 6.74471 51.3499 9.58057 55.888 14.1184C60.4618 18.6916 63.2639 24.2277 64.2752 30.6896C64.4416 31.7529 64.5111 33.0224 64.5111 35.004C64.5111 36.9856 64.4416 38.2551 64.2752 39.3184C63.2639 45.7803 60.4618 51.3164 55.888 55.8896C51.3142 60.4629 45.7775 63.2646 39.3149 64.2759C37.2398 64.6006 32.7602 64.6006 30.6851 64.2759C24.2225 63.2646 18.6858 60.4629 14.112 55.8896C9.53819 51.3164 6.73612 45.7803 5.72479 39.3184C5.40001 37.2435 5.40001 32.7645 5.72479 30.6896C6.73612 24.2277 9.53819 18.6916 14.112 14.1184C19.157 9.0738 25.1388 6.28697 32.6028 5.5038C33.7172 5.38684 38.1255 5.54982 39.4519 5.75692ZM47.4652 23.3047C47.1596 23.4359 43.944 26.5494 38.5979 31.8902L30.2101 40.2697L26.6806 36.7639C24.7395 34.8355 22.9641 33.163 22.7354 33.047C21.3274 32.3324 19.7409 32.846 19.0394 34.2433C18.6281 35.0628 18.6052 35.8188 18.969 36.5702C19.1435 36.9307 20.9202 38.8011 24.0031 41.8696C27.7602 45.6093 28.88 46.6481 29.3 46.7828C29.9973 47.0065 31.0558 46.8752 31.6145 46.4955C32.2741 46.0475 50.2932 28.0474 50.7965 27.334C51.1796 26.791 51.2314 26.609 51.2318 25.8049C51.2322 25.0113 51.1785 24.816 50.8213 24.3088C50.0583 23.2257 48.6382 22.8008 47.4652 23.3047Z" fill="#E0B08B"/>
</svg>
