<svg width="38" height="51" viewBox="0 0 38 51" fill="none" xmlns="http://www.w3.org/2000/svg">
<path fill-rule="evenodd" clip-rule="evenodd" d="M17.4889 0.0547035C14.4363 0.37623 11.5463 1.76586 9.271 4.00624C7.31619 5.93114 6.16374 7.97052 5.47935 10.7162C5.26519 11.5751 5.25202 11.9612 5.21218 18.5551L5.17019 25.4905H3.70481C2.86984 25.4905 2.04825 25.5461 1.79511 25.6197C1.20216 25.7922 0.307922 26.6727 0.132724 27.2566C-0.0418272 27.8383 -0.0451737 31.6369 0.128406 32.2072C0.283418 32.7167 0.956362 33.4919 1.4011 33.6733L1.72862 33.8069V42.1426V50.4782L1.99363 50.7391C2.25637 50.9979 2.27526 51 4.31935 51C6.36344 51 6.38233 50.9979 6.64508 50.7391L6.91009 50.4782V42.2359V33.9936H19.0002H31.0903V42.2359V50.4782L31.3553 50.7391C31.618 50.9979 31.6369 51 33.681 51C35.7251 51 35.744 50.9979 36.0068 50.7391L36.2718 50.4782V42.1426V33.8069L36.5993 33.6733C37.044 33.4919 37.717 32.7167 37.872 32.2072C38.0434 31.6437 38.0424 27.8369 37.8706 27.2723C37.8 27.0404 37.5323 26.6206 37.2756 26.3395C36.6174 25.6188 36.1694 25.4905 34.3095 25.4905H32.8174V19.1001C32.8174 11.9723 32.7731 11.3561 32.1194 9.39077C31.4108 7.26093 30.3931 5.64437 28.7294 4.00624C26.5561 1.86641 23.976 0.571803 21.0374 0.146857C19.9883 -0.00481871 18.4371 -0.0451026 17.4889 0.0547035ZM21.4504 1.93582C25.6218 2.82536 29.0432 5.79307 30.409 9.70645C31.0274 11.478 31.0143 11.2991 31.0597 18.6614L31.1019 25.4905H30.2377H29.3735L29.3378 18.7145C29.3033 12.1606 29.2945 11.9119 29.0701 11.1258C27.6885 6.28796 23.4221 3.17207 18.5144 3.41665C13.6447 3.65931 9.63263 7.14338 8.7983 11.854C8.66758 12.5922 8.63725 13.9624 8.63725 19.127V25.4905H7.77367H6.91009L6.91225 19.1397C6.91343 15.5081 6.96039 12.4703 7.02181 12.0448C7.402 9.41181 8.57625 7.06451 10.4305 5.23101C12.291 3.39114 14.6758 2.20271 17.3292 1.79297C18.2172 1.65575 20.5099 1.73525 21.4504 1.93582ZM21.0528 5.33231C23.3034 5.93699 25.0213 7.14561 26.2373 8.97985C26.754 9.75917 27.0517 10.4224 27.3976 11.5649C27.5523 12.0758 27.5796 13.0085 27.6101 18.8208L27.645 25.4905H19.0047H10.3644V19.1756C10.3644 14.1707 10.396 12.6989 10.517 12.0807C11.2068 8.55724 13.7844 5.98663 17.381 5.23548C18.2462 5.05478 20.213 5.10665 21.0528 5.33231ZM15.792 12.1277C14.0386 13.8542 13.8187 14.1094 13.8187 14.4177C13.8187 14.8816 14.2285 15.2867 14.6975 15.2867C15.0054 15.2867 15.2737 15.0642 16.9738 13.4C18.0338 12.3624 18.9289 11.4049 18.9629 11.2722C19.0999 10.7368 18.611 10.1848 17.9998 10.1848C17.8395 10.1848 17.1403 10.8002 15.792 12.1277ZM18.3812 14.6772C15.0252 17.9816 14.6823 18.3516 14.6823 18.6679C14.6823 19.1357 15.0911 19.5382 15.5662 19.5382C15.8874 19.5382 16.2632 19.2006 19.6192 15.8961C22.9751 12.5917 23.3181 12.2217 23.3181 11.9054C23.3181 11.4376 22.9093 11.0351 22.4342 11.0351C22.113 11.0351 21.7372 11.3728 18.3812 14.6772ZM20.9735 17.2296C19.2201 18.9561 19.0002 19.2113 19.0002 19.5196C19.0002 19.9852 19.4098 20.3886 19.8827 20.3886C20.1958 20.3886 20.455 20.1721 22.2084 18.4456C23.9618 16.7191 24.1817 16.4639 24.1817 16.1556C24.1817 15.69 23.772 15.2867 23.2992 15.2867C22.986 15.2867 22.7269 15.5032 20.9735 17.2296ZM18.1366 29.7421V32.293H10.1976H2.25853L1.99363 32.0321C1.73078 31.7734 1.72862 31.7548 1.72862 29.7421C1.72862 27.7294 1.73078 27.7108 1.99363 27.452L2.25853 27.1911H10.1976H18.1366V29.7421ZM36.0068 27.452C36.2696 27.7108 36.2718 27.7294 36.2718 29.7421C36.2718 31.7548 36.2696 31.7734 36.0068 32.0321L35.7418 32.293H27.8028H19.8638V29.7421V27.1911H27.8028H35.7418L36.0068 27.452ZM7.1751 29.1527C7.008 29.3171 6.91009 29.535 6.91009 29.7421C6.91009 29.9491 7.008 30.167 7.1751 30.3314L7.44 30.5924H9.93261H12.4252L12.6901 30.3314C12.8572 30.167 12.9551 29.9491 12.9551 29.7421C12.9551 29.535 12.8572 29.3171 12.6901 29.1527L12.4252 28.8917H9.93261H7.44L7.1751 29.1527ZM25.3102 29.1527C25.1431 29.3171 25.0452 29.535 25.0452 29.7421C25.0452 29.9491 25.1431 30.167 25.3102 30.3314L25.5752 30.5924H28.0678H30.5604L30.8253 30.3314C30.9924 30.167 31.0903 29.9491 31.0903 29.7421C31.0903 29.535 30.9924 29.3171 30.8253 29.1527L30.5604 28.8917H28.0678H25.5752L25.3102 29.1527ZM5.18293 41.6465V49.2994H4.31935H3.45577V41.6465V33.9936H4.31935H5.18293V41.6465ZM34.5446 41.6465V49.2994H33.681H32.8174V41.6465V33.9936H33.681H34.5446V41.6465ZM13.0024 37.4924C12.4839 37.618 11.5604 38.1514 11.2671 38.4947C11.1202 38.6665 10.8706 39.0512 10.7122 39.3499C10.4495 39.8454 10.4209 40.0197 10.3842 41.349C10.3443 42.792 10.3465 42.8076 10.6192 43.0762C10.8479 43.3014 10.9952 43.3471 11.493 43.3471H12.0916V46.9126V50.4782L12.3566 50.7391C12.6193 50.9979 12.6382 51 14.6823 51C16.7264 51 16.7453 50.9979 17.008 50.7391L17.273 50.4782V46.9126V43.3471H19.0002H20.7273V46.9126V50.4782L20.9924 50.7391C21.2551 50.9979 21.274 51 23.3181 51C25.3622 51 25.3811 50.9979 25.6438 50.7391L25.9088 50.4782V46.9126V43.3471H26.5074C27.0061 43.3471 27.1523 43.3016 27.3831 43.0744C27.6585 42.8032 27.6598 42.7934 27.6151 41.3472C27.5744 40.0311 27.543 39.8411 27.2851 39.3499C26.866 38.5512 26.5384 38.2164 25.7794 37.8113L25.0992 37.4481L19.2161 37.4302C15.9804 37.4204 13.1842 37.4484 13.0024 37.4924ZM24.8725 39.2437C25.0706 39.3252 25.3715 39.571 25.541 39.7901C25.7954 40.1183 25.8568 40.3161 25.8913 40.9174L25.9332 41.6465H19.0124H12.0916V41.0688C12.0916 40.1413 12.4251 39.5485 13.1171 39.2456C13.6035 39.0327 24.3556 39.031 24.8725 39.2437ZM15.5459 46.3233V49.2994H14.6823H13.8187V46.3233V43.3471H14.6823H15.5459V46.3233ZM24.1817 46.3233V49.2994H23.3181H22.4545V46.3233V43.3471H23.3181H24.1817V46.3233Z" fill="#333333"/>
</svg>
