<svg width="36" height="49" viewBox="0 0 36 49" fill="none" xmlns="http://www.w3.org/2000/svg">
<path fill-rule="evenodd" clip-rule="evenodd" d="M16.5685 0.0525582C13.6765 0.361476 10.9386 1.69661 8.78306 3.84913C6.93112 5.69855 5.83933 7.65795 5.19097 10.296C4.98807 11.1212 4.9756 11.4921 4.93786 17.8274L4.89808 24.4908H3.50982C2.71879 24.4908 1.94045 24.5443 1.70063 24.615C1.13889 24.7808 0.291716 25.6267 0.125738 26.1877C-0.0396258 26.7466 -0.0427961 30.3962 0.121647 30.9442C0.268501 31.4337 0.906027 32.1784 1.32736 32.3528L1.63764 32.4811V40.4899V48.4987L1.8887 48.7493C2.13761 48.998 2.15551 49 4.09202 49C6.02853 49 6.04642 48.998 6.29534 48.7493L6.5464 48.4987V40.5796V32.6606H18.0002H29.454V40.5796V48.4987L29.705 48.7493C29.9539 48.998 29.9718 49 31.9083 49C33.8448 49 33.8627 48.998 34.1117 48.7493L34.3627 48.4987V40.4899V32.4811L34.673 32.3528C35.0943 32.1784 35.7319 31.4337 35.8787 30.9442C36.0411 30.4028 36.0402 26.7453 35.8774 26.2028C35.8105 25.98 35.5569 25.5767 35.3137 25.3066C34.6902 24.6141 34.2658 24.4908 32.5037 24.4908H31.0902V18.3511C31.0902 11.5028 31.0482 10.9107 30.4289 9.0225C29.7576 6.97619 28.7934 5.42303 27.2173 3.84913C25.1584 1.79322 22.7141 0.549379 19.9301 0.141098C18.9363 -0.00462974 17.4668 -0.0433338 16.5685 0.0525582ZM20.3214 1.8599C24.2733 2.71456 27.5146 5.56589 28.8086 9.3258C29.3943 11.0279 29.382 10.856 29.425 17.9295L29.465 24.4908H28.6463H27.8275L27.7937 17.9806C27.7611 11.6837 27.7527 11.4447 27.5401 10.6895C26.2313 6.04137 22.1894 3.04768 17.54 3.28266C12.9266 3.5158 9.12565 6.86324 8.33524 11.3892C8.21139 12.0984 8.18265 13.4148 8.18265 18.3769V24.4908H7.36453H6.5464L6.54845 18.3891C6.54957 14.8999 6.59406 11.9813 6.65225 11.5725C7.01243 9.04272 8.12487 6.78747 9.8815 5.02587C11.6441 3.25815 13.9034 2.11633 16.4171 1.72265C17.2584 1.59081 19.4305 1.6672 20.3214 1.8599ZM19.9448 5.1232C22.0769 5.70417 23.7044 6.86539 24.8564 8.6277C25.3459 9.37645 25.6279 10.0137 25.9556 11.1114C26.1022 11.6022 26.1281 12.4984 26.1569 18.0827L26.19 24.4908H18.0045H9.81891V18.4236C9.81891 13.615 9.84887 12.2009 9.96351 11.607C10.617 8.22166 13.0589 5.75186 16.4662 5.03016C17.2859 4.85656 19.1491 4.90639 19.9448 5.1232ZM14.9608 11.6521C13.2997 13.3109 13.0914 13.5561 13.0914 13.8523C13.0914 14.298 13.4796 14.6872 13.924 14.6872C14.2156 14.6872 14.4699 14.4734 16.0804 12.8745C17.0847 11.8776 17.9327 10.9576 17.9649 10.8302C18.0947 10.3158 17.6315 9.78535 17.0525 9.78535C16.9006 9.78535 16.2381 10.3766 14.9608 11.6521ZM17.4138 14.1016C14.2344 17.2765 13.9095 17.632 13.9095 17.9359C13.9095 18.3853 14.2968 18.772 14.7469 18.772C15.0512 18.772 15.4072 18.4476 18.5866 15.2727C21.7659 12.0979 22.0908 11.7424 22.0908 11.4385C22.0908 10.9891 21.7035 10.6023 21.2535 10.6023C20.9491 10.6023 20.5931 10.9268 17.4138 14.1016ZM19.8696 16.554C18.2085 18.2127 18.0002 18.4579 18.0002 18.7542C18.0002 19.2015 18.3883 19.589 18.8362 19.589C19.1329 19.589 19.3784 19.381 21.0395 17.7222C22.7006 16.0635 22.9089 15.8183 22.9089 15.522C22.9089 15.0747 22.5208 14.6872 22.0729 14.6872C21.7762 14.6872 21.5307 14.8952 19.8696 16.554ZM17.1821 28.5757V31.0266H9.66091H2.13966L1.8887 30.7759C1.63968 30.5273 1.63764 30.5095 1.63764 28.5757C1.63764 26.6419 1.63968 26.6241 1.8887 26.3755L2.13966 26.1248H9.66091H17.1821V28.5757ZM34.1117 26.3755C34.3607 26.6241 34.3627 26.6419 34.3627 28.5757C34.3627 30.5095 34.3607 30.5273 34.1117 30.7759L33.8607 31.0266H26.3395H18.8183V28.5757V26.1248H26.3395H33.8607L34.1117 26.3755ZM6.79746 28.0094C6.63916 28.1674 6.5464 28.3768 6.5464 28.5757C6.5464 28.7746 6.63916 28.984 6.79746 29.142L7.04842 29.3927H9.40984H11.7713L12.0222 29.142C12.1805 28.984 12.2733 28.7746 12.2733 28.5757C12.2733 28.3768 12.1805 28.1674 12.0222 28.0094L11.7713 27.7587H9.40984H7.04842L6.79746 28.0094ZM23.9781 28.0094C23.8198 28.1674 23.7271 28.3768 23.7271 28.5757C23.7271 28.7746 23.8198 28.984 23.9781 29.142L24.2291 29.3927H26.5905H28.9519L29.2029 29.142C29.3612 28.984 29.454 28.7746 29.454 28.5757C29.454 28.3768 29.3612 28.1674 29.2029 28.0094L28.9519 27.7587H26.5905H24.2291L23.9781 28.0094ZM4.91015 40.0133V47.3661H4.09202H3.27389V40.0133V32.6606H4.09202H4.91015V40.0133ZM32.7265 40.0133V47.3661H31.9083H31.0902V40.0133V32.6606H31.9083H32.7265V40.0133ZM12.3181 36.0221C11.8269 36.1428 10.9519 36.6552 10.6741 36.9851C10.535 37.1501 10.2984 37.5198 10.1484 37.8068C9.89949 38.2829 9.87239 38.4503 9.83762 39.7275C9.79989 41.1139 9.80193 41.1289 10.0603 41.3869C10.277 41.6033 10.4166 41.6473 10.8881 41.6473H11.4552V45.0729V48.4987L11.7062 48.7493C11.9551 48.998 11.973 49 13.9095 49C15.8461 49 15.8639 48.998 16.1129 48.7493L16.3639 48.4987V45.0729V41.6473H18.0002H19.6364V45.0729V48.4987L19.8875 48.7493C20.1364 48.998 20.1543 49 22.0908 49C24.0273 49 24.0452 48.998 24.2941 48.7493L24.5452 48.4987V45.0729V41.6473H25.1123C25.5847 41.6473 25.7232 41.6035 25.9418 41.3852C26.2028 41.1246 26.2041 41.1152 26.1617 39.7257C26.1232 38.4613 26.0934 38.2787 25.8491 37.8068C25.452 37.0394 25.1416 36.7177 24.4226 36.3285L23.7782 35.9795L18.2047 35.9624C15.1393 35.953 12.4903 35.9798 12.3181 36.0221ZM23.5634 37.7048C23.7511 37.7831 24.0361 38.0192 24.1968 38.2297C24.4377 38.545 24.4959 38.7351 24.5286 39.3128L24.5683 40.0133H18.0117H11.4552V39.4583C11.4552 38.5672 11.7712 37.9975 12.4267 37.7066C12.8875 37.502 23.0737 37.5004 23.5634 37.7048ZM14.7277 44.5067V47.3661H13.9095H13.0914V44.5067V41.6473H13.9095H14.7277V44.5067ZM22.9089 44.5067V47.3661H22.0908H21.2727V44.5067V41.6473H22.0908H22.9089V44.5067Z" fill="#828282"/>
</svg>
