<svg width="50" height="50" viewBox="0 0 50 50" fill="none" xmlns="http://www.w3.org/2000/svg">
<path fill-rule="evenodd" clip-rule="evenodd" d="M23.0731 0.0532345C16.9619 0.601322 11.5136 3.11348 7.30508 7.32358C3.46019 11.1699 1.06644 15.9343 0.195134 21.4751C-0.0647137 23.1276 -0.0651313 26.8735 0.194403 28.5421C0.794694 32.4005 2.15292 35.9047 4.24088 38.9819C4.56556 39.4603 4.61442 39.5928 4.50073 39.6869C4.42369 39.7507 4.23337 40.0864 4.07771 40.4328C3.52471 41.663 3.62598 43.1683 4.33662 44.2822C4.50125 44.5402 5.2881 45.3963 6.08518 46.1846C7.76422 47.8451 7.88731 47.8961 8.62008 47.2351L9.04436 46.8523L10.2138 48.0166L11.3833 49.1809L11.9819 48.5832L12.5805 47.9855L11.4077 46.8111L10.2349 45.6368L10.8335 45.0391L11.4322 44.4414L12.6095 45.6136L13.7869 46.7859L14.3558 46.2106L14.9247 45.6354L13.7575 44.4637L12.5904 43.2919L13.0034 42.853C13.7089 42.1029 13.6642 41.9945 11.9286 40.2448C10.6957 39.002 10.3145 38.6825 9.70269 38.3799C8.66309 37.8655 7.71766 37.7969 6.64351 38.158L5.87367 38.4168L5.25584 37.4665C3.59257 34.909 2.36704 31.6448 1.86217 28.4279C1.5757 26.6026 1.60357 23.0917 1.91854 21.3149C2.38019 18.7112 3.23772 16.1323 4.29862 14.1572C7.87322 7.50214 14.0617 3.11786 21.6115 1.8917C23.1993 1.63381 26.7774 1.63381 28.4144 1.89159C29.8593 2.11925 31.6679 2.57123 32.8282 2.99465C33.3129 3.17164 33.748 3.31633 33.7952 3.31633C33.884 3.31633 34.3712 2.28739 34.4231 1.99041C34.5051 1.52081 30.074 0.344582 27.249 0.0859656C26.1678 -0.012957 24.0006 -0.0300523 23.0731 0.0532345ZM38.027 1.41282L37.4284 2.01053L38.6012 3.18488L39.774 4.35924L39.1754 4.95694L38.5768 5.55465L37.3995 4.38238L36.2221 3.21011L35.6531 3.7854L35.0842 4.36059L36.2514 5.53234L37.4186 6.70409L37.0056 7.14304C36.2899 7.90388 36.3349 8.00947 38.1386 9.80019C39.4184 11.0707 39.8041 11.3908 40.3787 11.6593C41.3813 12.1277 42.3339 12.1848 43.3654 11.8381L44.1353 11.5792L44.7531 12.5295C45.5015 13.6803 46.4625 15.6154 46.9779 17.0096C48.4839 21.083 48.7788 25.745 47.8056 30.0921C45.8993 38.6063 39.3254 45.4013 30.8992 47.567C28.6736 48.139 27.4332 48.2897 24.9523 48.2888C21.98 48.2879 19.8028 47.9299 17.2434 47.0216C16.6783 46.821 16.1777 46.6973 16.1309 46.7465C16.0008 46.8834 15.518 48.077 15.5632 48.15C15.6903 48.3552 18.6277 49.2349 20.2247 49.5458C24.4956 50.3778 28.9962 50.0617 33.1411 48.639C42.1447 45.5482 48.5449 37.6992 49.8686 28.1252C50.0436 26.8591 50.0439 23.0507 49.869 21.8187C49.3067 17.8578 47.9038 14.1618 45.768 11.0142C45.4434 10.5357 45.3945 10.4032 45.5082 10.3091C45.5852 10.2453 45.7756 9.90965 45.9312 9.56326C46.4842 8.33303 46.3829 6.82772 45.6723 5.71382C45.5077 5.45583 44.7208 4.59982 43.9237 3.81146C42.2447 2.15094 42.1216 2.09996 41.3888 2.76094L40.9646 3.14371L39.7951 1.97946L38.6256 0.815116L38.027 1.41282ZM44.4305 6.89787C44.6535 7.38832 44.6876 8.1601 44.5122 8.74488C44.242 9.6455 43.2007 10.4021 42.2302 10.403C41.2921 10.4038 41.014 10.2494 39.7836 9.04342L38.6284 7.91118L40.4032 6.12942L42.178 4.34767L43.206 5.40694C43.7715 5.98943 44.3224 6.66042 44.4305 6.89787ZM23.4907 9.2151C20.4508 9.65051 18.2875 10.4334 16.117 11.8836C14.9028 12.695 12.8438 14.7156 12.0076 15.9164C10.7675 17.6975 9.80928 19.9988 9.37666 22.2357C9.12453 23.5396 9.12558 26.4655 9.37864 27.7603C10.0436 31.1624 11.4136 33.7489 13.827 36.1585C16.2367 38.5646 18.9078 39.9736 22.2379 40.5953C23.6796 40.8644 26.3293 40.8644 27.771 40.5953C31.1011 39.9736 33.7723 38.5646 36.182 36.1585C38.5918 33.7524 40.003 31.0854 40.6256 27.7603C40.8951 26.3208 40.8951 23.6752 40.6256 22.2357C40.003 18.9107 38.5918 16.2436 36.182 13.8376C33.8087 11.4678 31.3088 10.1235 28.032 9.45516C27.0768 9.26024 24.2269 9.10961 23.4907 9.2151ZM27.8754 11.1233C32.8541 12.2057 36.7561 15.6336 38.3969 20.3663C38.9873 22.0693 39.1446 23.0454 39.1433 24.998C39.1422 26.8598 39.0008 27.8344 38.5162 29.3239C37.3521 32.9014 34.7105 35.9848 31.3712 37.6639C28.0714 39.323 24.1102 39.6113 20.6071 38.4472C19.9398 38.2254 19.0679 37.8801 18.6694 37.6797C14.7434 35.7056 11.9237 31.986 11.0459 27.623C10.7946 26.3742 10.7946 23.6219 11.0459 22.3731C12.2454 16.411 16.8684 11.96 22.8818 10.9775C24.1244 10.7745 26.6041 10.8469 27.8754 11.1233ZM24.5574 15.9394C24.3135 16.0812 19.1582 26.3768 19.1582 26.7223C19.1582 26.8685 19.2735 27.1031 19.4145 27.2438C19.6706 27.4997 19.671 27.4997 21.92 27.4997H24.1693V30.5795V33.6593L24.4256 33.9151C24.6964 34.1856 25.0917 34.2433 25.4311 34.0619C25.6878 33.9248 30.8508 23.6474 30.8508 23.2737C30.8508 23.1276 30.7354 22.8929 30.5945 22.7522C30.3383 22.4963 30.338 22.4963 28.0889 22.4963H25.8397V19.4165V16.3367L25.5834 16.0809C25.3126 15.8105 24.8815 15.7511 24.5574 15.9394ZM24.468 23.9651C24.6911 24.1452 24.9014 24.1641 26.6861 24.1641H28.6579L27.2749 26.9294L25.8918 29.6945L25.8397 27.9623C25.7709 25.6791 25.9515 25.8319 23.3228 25.8319H21.351L22.734 23.0667L24.1171 20.3015L24.1693 22.0338C24.2194 23.6983 24.2311 23.7739 24.468 23.9651ZM8.86803 39.7971C9.10146 39.9102 9.76157 40.4733 10.3349 41.0484L11.3773 42.094L9.60414 43.8712L7.83093 45.6484L6.80292 44.5891C6.2374 44.0066 5.68649 43.3356 5.57844 43.0982C5.35544 42.6077 5.3213 41.8359 5.49669 41.2511C5.88745 39.949 7.63018 39.1973 8.86803 39.7971Z" fill="#333333"/>
</svg>
