<svg width="29" height="29" viewBox="0 0 29 29" fill="none" xmlns="http://www.w3.org/2000/svg">
<path fill-rule="evenodd" clip-rule="evenodd" d="M1.95785 0.0809952C1.03228 0.310745 0.264857 1.10159 0.0680334 2.0284C-0.0226778 2.45568 -0.0226778 26.5413 0.0680334 26.9685C0.26984 27.9189 1.08114 28.7303 2.0314 28.9321C2.45489 29.0221 26.5393 29.0229 26.9686 28.933C27.9198 28.7338 28.7291 27.9241 28.932 26.9685C29.0227 26.5413 29.0227 2.45568 28.932 2.0284C28.729 1.07237 27.922 0.265101 26.9686 0.0642893C26.5133 -0.031586 2.34634 -0.0154463 1.95785 0.0809952ZM8.55451 5.24483C8.55451 9.1717 8.53815 8.99427 8.92257 9.23099C9.37114 9.50718 9.88998 9.36198 10.1258 8.89421L10.2532 8.64152V5.1702V1.69887L18.4878 1.71359C26.705 1.72826 26.7227 1.72854 26.8788 1.84509C26.9648 1.90931 27.0877 2.03219 27.1519 2.11816C27.266 2.271 27.2686 2.33585 27.2686 4.97454V7.6745L21.1433 7.70282C15.0593 7.73096 15.0168 7.73193 14.858 7.84842C14.3733 8.20411 14.4017 8.87082 14.9181 9.25664C15.0671 9.36804 15.1584 9.37421 16.9081 9.39046L18.7419 9.40751L18.7585 11.6658C18.7745 13.8447 18.7792 13.9295 18.8918 14.0803C19.2888 14.6118 19.9715 14.625 20.317 14.1078C20.4452 13.9158 20.4455 13.9106 20.4455 11.6586V9.40173H23.8717H27.298L27.2833 18.062C27.2686 26.7092 27.2685 26.7226 27.1519 26.8787C27.0877 26.9647 26.9648 27.0876 26.8788 27.1518C26.726 27.266 26.6531 27.2689 23.584 27.2842L20.4455 27.2997L20.4453 22.8953C20.4451 18.5742 20.4429 18.4873 20.3305 18.303C20.1727 18.0441 19.7817 17.8743 19.4649 17.9271C19.1789 17.9747 18.839 18.2987 18.7835 18.5765C18.7633 18.6774 18.7468 19.3301 18.7468 20.027V21.2941L17.0622 21.2944C16.0141 21.2946 15.2931 21.3182 15.1538 21.3569C14.4579 21.5501 14.2917 22.3896 14.8591 22.8462L15.0765 23.0213L16.9117 23.0384L18.7468 23.0555V25.1762V27.2969H14.5H10.2532V24.6756C10.2532 22.0694 10.2525 22.0528 10.1258 21.8029C9.97005 21.4956 9.7196 21.3413 9.37658 21.3413C9.07522 21.3413 8.7972 21.4938 8.6536 21.7378C8.56295 21.8918 8.55451 22.1365 8.55451 24.603V27.2997L5.41603 27.2842C2.34685 27.2689 2.27404 27.266 2.12115 27.1518C2.0352 27.0876 1.91232 26.9647 1.84811 26.8787C1.73243 26.7238 1.73124 26.6748 1.71635 21.4599L1.70134 16.1974H5.12793H8.55451L8.55474 16.7495C8.55491 17.2005 8.57552 17.3355 8.66748 17.4862C9.01294 18.053 9.81586 18.0261 10.1271 17.4374C10.2583 17.1893 10.2587 17.1834 10.2418 15.2813C10.2256 13.4485 10.2203 13.3677 10.1065 13.2141C9.70193 12.6685 8.99867 12.6663 8.66748 13.2096C8.57552 13.3604 8.55491 13.4953 8.55474 13.9463L8.55451 14.4985H5.12878H1.70304V8.47101C1.70304 4.33915 1.72201 2.39344 1.76346 2.28414C1.84381 2.07195 2.03271 1.8725 2.24097 1.77996C2.37551 1.7201 3.04927 1.70396 5.48268 1.70221L8.55451 1.7V5.24483Z" fill="#333333"/>
</svg>
