<svg width="40" height="45" viewBox="0 0 40 45" fill="none" xmlns="http://www.w3.org/2000/svg">
<path fill-rule="evenodd" clip-rule="evenodd" d="M17.3893 0.125786C16.7215 0.335719 15.8836 0.970417 15.5106 1.54904C15.3405 1.81286 15.1443 2.31632 15.0746 2.66771L14.948 3.30657L13.0977 3.30814C11.8275 3.30918 11.0277 3.35932 10.5466 3.46804C8.51795 3.92658 6.8178 5.39402 6.15981 7.25434C5.99642 7.71642 5.65704 9.99921 5.65041 10.6813C5.64943 10.7818 5.06406 10.8116 3.08964 10.8116H0.530064L0.247975 11.0821C-0.0209624 11.34 -0.031072 11.3901 0.0320858 12.1506C0.123181 13.2476 0.353744 14.0355 0.905967 15.1375C1.63092 16.5841 3.11725 18.3227 4.49759 19.3386L4.8136 19.5712L3.87939 29.4224C3.04203 38.2531 2.95952 39.3268 3.08388 39.7864C3.24705 40.3894 3.69002 40.9846 4.18354 41.2637C4.53064 41.4601 4.5364 41.4763 4.58347 42.3722C4.63684 43.3902 4.7874 43.7539 5.38702 44.3122C6.16546 45.0372 5.48507 45.0015 18.5229 44.999C30.1068 44.9967 30.2777 44.9938 30.76 44.7844C31.8246 44.3223 32.2951 43.6038 32.368 42.3285L32.4166 41.4798L32.8761 41.1693C33.454 40.7787 33.9114 39.9442 33.9151 39.2739C33.9165 39.0128 33.7131 36.6293 33.4632 33.9772C33.2132 31.3252 33.0301 29.1347 33.0563 29.1096C33.0825 29.0845 33.7385 28.8979 34.5137 28.6949C35.2891 28.492 36.2704 28.1623 36.6944 27.9623C38.3215 27.195 39.541 25.6124 39.8986 23.8044C39.9543 23.5224 40 21.3143 40 18.8977C40 14.1392 39.9635 13.7722 39.3973 12.8459C39.0121 12.2154 38.1464 11.472 37.4148 11.1431C36.7996 10.8667 36.7649 10.8634 34.0487 10.8312C31.3255 10.7989 31.3039 10.7968 31.2567 10.5706C31.2306 10.4451 31.1561 9.79094 31.0911 9.11663C30.853 6.64476 29.8023 4.98635 27.8526 4.00486C26.7501 3.4499 25.9364 3.31053 23.7853 3.30835L21.974 3.30657L21.9004 2.86357C21.7202 1.77877 20.9927 0.818961 19.9763 0.325087C19.283 -0.0117025 18.1134 -0.101867 17.3893 0.125786ZM19.4535 1.95066C19.7777 2.17206 20.2076 2.86544 20.2132 3.17628C20.2151 3.2752 19.7966 3.30657 18.4763 3.30657C16.7954 3.30657 16.7371 3.29938 16.7371 3.09289C16.7371 2.63383 17.2723 1.97276 17.8242 1.75021C18.2478 1.57937 19.0552 1.67871 19.4535 1.95066ZM26.7575 5.35639C27.7553 5.80961 28.3985 6.40835 28.8694 7.32199L29.2584 8.07656L30.7137 23.3858C31.5141 31.8059 32.17 38.873 32.1711 39.0906C32.1727 39.3735 32.0971 39.5592 31.9063 39.7421L31.6396 39.998H18.4873H5.33517L5.03014 39.7463C4.76609 39.5284 4.72805 39.4269 4.74685 38.9906C4.80131 37.7299 7.62744 8.4195 7.73016 8.04998C7.90909 7.40611 8.23238 6.86803 8.77286 6.31391C9.37292 5.69871 9.82133 5.42352 10.6317 5.17262C11.2066 4.99469 11.7386 4.98354 18.6394 5.00428L26.0314 5.02648L26.7575 5.35639ZM17.3411 11.025C16.73 11.3174 16.4189 11.623 16.1258 12.2188L15.8696 12.74L15.8685 19.0342C15.8676 23.7193 15.9017 25.438 16.0012 25.7568C16.3409 26.8442 17.7507 27.6337 18.9224 27.3927C19.6192 27.2495 20.3628 26.7618 20.6732 26.2446C20.9075 25.8543 20.9334 25.8421 21.6123 25.8006C22.2099 25.7641 22.3473 25.7168 22.5675 25.4713C22.8975 25.1034 22.8941 24.7324 22.5577 24.4098C22.3386 24.1997 22.1832 24.1539 21.688 24.1539H21.0853V23.5414V22.929L21.7015 22.88C22.2013 22.8401 22.3658 22.7775 22.5712 22.5485C22.8977 22.1846 22.8929 21.8126 22.5577 21.4912C22.3386 21.2811 22.1832 21.2353 21.688 21.2353H21.0853V20.6228V20.0103L21.7015 19.9613C22.2013 19.9215 22.3658 19.8589 22.5712 19.6299C22.8977 19.266 22.8929 18.8939 22.5577 18.5726C22.3386 18.3624 22.1832 18.3167 21.688 18.3167H21.0853V17.7042V17.0917L21.7015 17.0427C22.2013 17.0029 22.3658 16.9402 22.5712 16.7112C22.8977 16.3473 22.8929 15.9753 22.5577 15.654C22.3386 15.4438 22.1832 15.398 21.688 15.398H21.0853V14.7856V14.1731L21.7015 14.1241C22.2013 14.0842 22.3658 14.0216 22.5712 13.7926C22.8977 13.4287 22.8929 13.0567 22.5577 12.7353C22.3298 12.5167 22.1891 12.4794 21.5926 12.4794C20.9253 12.4794 20.8885 12.4661 20.7643 12.1786C20.581 11.7542 20.02 11.2303 19.509 11.0067C18.9184 10.748 17.9022 10.7566 17.3411 11.025ZM5.428 12.8703C5.42246 13.4458 5.02373 17.3875 4.96535 17.4435C4.77457 17.6264 3.35662 15.9946 2.72841 14.8689C2.3212 14.1394 1.84442 12.9257 1.84442 12.6186C1.84442 12.5082 2.21478 12.4794 3.63806 12.4794H5.4317L5.428 12.8703ZM19.0791 12.7353L19.346 12.9911V19.0705C19.346 24.476 19.3267 25.1763 19.1719 25.3882C18.9337 25.7144 18.545 25.8416 18.1862 25.7108C17.5944 25.4951 17.6139 25.7169 17.6102 19.1386C17.6067 13.1127 17.6097 13.0249 17.832 12.7541C18.1346 12.3852 18.7051 12.3766 19.0791 12.7353ZM37.0166 12.847C37.346 13.0424 37.6736 13.3568 37.8774 13.6727L38.2064 14.1831V18.9861V23.7891L37.8623 24.4854C37.1864 25.8535 36.2511 26.5166 34.293 27.0157C33.6951 27.1681 33.1247 27.3155 33.0254 27.3431C32.8726 27.3857 32.8327 27.2705 32.7669 26.5959C32.7109 26.0226 32.7252 25.7769 32.8179 25.722C32.8889 25.6799 33.4455 25.512 34.0548 25.349C35.0734 25.0764 35.2066 25.0101 35.7098 24.5251C36.053 24.1943 36.3063 23.8377 36.3892 23.5686C36.4835 23.2625 36.5214 21.9238 36.5214 18.8993V14.6589L36.2546 14.4031C35.989 14.1484 35.9776 14.1472 33.8053 14.1472C32.1541 14.1472 31.6127 14.1155 31.5811 14.0169C31.5581 13.9453 31.5123 13.5675 31.4793 13.1777L31.4195 12.4688L33.9522 12.5002L36.4849 12.5315L37.0166 12.847ZM34.7821 19.4517C34.7821 22.7607 34.765 23.1087 34.5919 23.3119C34.3434 23.6039 32.4993 24.1137 32.4993 23.8905C32.4993 23.6993 31.8732 17.0686 31.7884 16.3622L31.7227 15.815H33.2524H34.7821V19.4517ZM30.6513 42.1417C30.6513 42.6433 30.5123 42.9891 30.226 43.1999C30.0929 43.2979 27.3987 43.3277 18.4443 43.3302L6.83497 43.3335L6.56821 43.0776C6.34906 42.8676 6.30134 42.7185 6.30134 42.2437V41.6657H18.4763H30.6513V42.1417Z" fill="#333333"/>
</svg>
