<svg width="41" height="51" viewBox="0 0 41 51" fill="none" xmlns="http://www.w3.org/2000/svg">
<path fill-rule="evenodd" clip-rule="evenodd" d="M7.51572 0.198599C6.60318 0.603662 6.80397 -0.0395296 3.23153 13.9169C0.605448 24.1765 -0.0361794 26.819 0.00154419 27.2199C0.0606844 27.8483 0.489342 28.4229 1.10162 28.6947C1.52582 28.883 1.97491 28.8934 9.72978 28.8956L17.9105 28.898V33.1408V37.3837L15.6003 37.4178C13.306 37.4517 13.2867 37.4539 12.7829 37.7434C11.7823 38.3182 11.6385 38.5809 10.1902 42.4779L8.85898 46.0597L8.26889 46.3143C6.92573 46.8936 5.90926 48.2889 5.77184 49.7418C5.70922 50.4043 5.72292 50.467 5.98655 50.7247L6.26823 51H20.5196H34.771L35.0527 50.7247C35.3163 50.467 35.33 50.4043 35.2674 49.7418C35.1299 48.2888 34.1135 46.8936 32.7701 46.3142L32.1798 46.0596L31.0609 43.0308C29.4165 38.5798 29.231 38.2349 28.1839 37.6816C27.7841 37.4704 27.5628 37.4491 25.4389 37.4178L23.1287 37.3837V33.1408V28.898H28.7818H34.4349V32.8296C34.4349 36.3263 34.4161 36.7612 34.2648 36.7612C33.9687 36.7612 32.9714 37.839 32.8277 38.3143C32.5266 39.3106 32.7389 40.1049 33.5072 40.8558C34.6199 41.9434 36.1552 41.9202 37.1853 40.8003C37.8757 40.0497 38.0662 39.2557 37.7816 38.3143C37.6379 37.839 36.6406 36.7612 36.3445 36.7612C36.1932 36.7612 36.1744 36.3263 36.1744 32.8296V28.898L37.8322 28.8956C39.7336 28.893 40.169 28.7729 40.6878 28.1081C41.2751 27.3556 41.3804 27.8746 37.8077 13.9169C34.2352 -0.0395296 34.436 0.603662 33.5235 0.198599C33.0947 0.0082882 32.551 0 20.5196 0C8.48816 0 7.94448 0.0082882 7.51572 0.198599ZM10.728 1.88143C10.7239 1.98366 9.63465 7.70978 8.30748 14.606L5.89426 27.1447L3.85511 27.1736C2.21843 27.1969 1.80478 27.1741 1.75933 27.0584C1.70465 26.9192 7.91274 2.41826 8.12527 1.93456C8.22551 1.70643 8.28748 1.69548 9.48289 1.69548C10.6061 1.69548 10.7346 1.71471 10.728 1.88143ZM15.1926 1.82501C15.1926 1.89621 14.6545 7.5607 13.9968 14.4128C13.3391 21.2648 12.8009 26.9445 12.8009 27.0344C12.8009 27.1768 12.4725 27.1978 10.2462 27.1978C8.58448 27.1978 7.6914 27.16 7.6914 27.0895C7.6914 26.9454 12.4695 1.99885 12.5297 1.82831C12.5959 1.64108 15.1926 1.63778 15.1926 1.82501ZM19.6499 14.4466V27.1978H17.0951C15.1588 27.1978 14.5404 27.1665 14.5404 27.0683C14.5404 26.9971 15.0785 21.3326 15.7362 14.4805C16.3939 7.62849 16.9321 1.9488 16.9321 1.85891C16.9321 1.72056 17.1407 1.69548 18.291 1.69548H19.6499V14.4466ZM24.1071 1.85891C24.1071 1.9488 24.6453 7.62849 25.303 14.4805C25.9607 21.3326 26.4988 26.9971 26.4988 27.0683C26.4988 27.1665 25.8804 27.1978 23.9441 27.1978H21.3893V14.4466V1.69548H22.7482C23.8985 1.69548 24.1071 1.72056 24.1071 1.85891ZM30.9199 14.2873C32.2471 21.1835 33.3363 26.9096 33.3404 27.0119C33.3473 27.1839 33.1565 27.1978 30.793 27.1978C28.5667 27.1978 28.2383 27.1768 28.2383 27.0344C28.2383 26.9445 27.7001 21.2648 27.0424 14.4128C26.3847 7.5607 25.8466 1.89472 25.8466 1.82172C25.8466 1.72109 26.1691 1.69622 27.1767 1.71875L28.5069 1.74861L30.9199 14.2873ZM32.9139 1.93456C33.1265 2.41826 39.3346 26.9192 39.2799 27.0584C39.2344 27.1741 38.8208 27.1969 37.1841 27.1736L35.1449 27.1447L32.7317 14.606C31.4045 7.70978 30.3153 1.98366 30.3112 1.88143C30.3046 1.71471 30.4331 1.69548 31.5563 1.69548C32.7517 1.69548 32.8137 1.70643 32.9139 1.93456ZM21.3893 33.1484V37.3988H20.5196H19.6499V33.1484V28.898H20.5196H21.3893V33.1484ZM35.9075 38.5097C36.0758 38.6741 36.1744 38.8919 36.1744 39.0989C36.1744 39.3059 36.0758 39.5237 35.9075 39.6881C35.7393 39.8526 35.5164 39.949 35.3046 39.949C35.0929 39.949 34.87 39.8526 34.7018 39.6881C34.5335 39.5237 34.4349 39.3059 34.4349 39.0989C34.4349 38.8919 34.5335 38.6741 34.7018 38.5097C34.87 38.3452 35.0929 38.2488 35.3046 38.2488C35.5164 38.2488 35.7393 38.3452 35.9075 38.5097ZM27.486 39.2802C27.6586 39.3799 27.8703 39.607 27.9562 39.7849C28.1563 40.199 30.1951 45.6821 30.1951 45.8062C30.1951 45.8592 26.0034 45.8995 20.5196 45.8995C15.0358 45.8995 10.8441 45.8592 10.8441 45.8062C10.8441 45.6826 12.8826 40.1998 13.0819 39.7873C13.4251 39.0769 13.1229 39.1049 20.5029 39.1018C26.5969 39.0991 27.199 39.1145 27.486 39.2802ZM31.7588 47.7289C32.2451 47.8694 33.3478 48.8441 33.3478 49.1335C33.3478 49.2835 32.0875 49.2998 20.5196 49.2998C8.95172 49.2998 7.6914 49.2835 7.6914 49.1335C7.6914 48.8751 8.78864 47.8695 9.21339 47.7386C9.7849 47.5625 31.1509 47.5534 31.7588 47.7289Z" fill="#828282"/>
</svg>
