<svg width="50" height="50" viewBox="0 0 50 50" fill="none" xmlns="http://www.w3.org/2000/svg">
<path fill-rule="evenodd" clip-rule="evenodd" d="M2.85843 0.102493C1.78644 0.356917 0.80995 1.1699 0.310218 2.22383L0 2.8783V25V47.1217L0.310218 47.7762C0.70498 48.6088 1.34623 49.2496 2.17945 49.6441L2.83438 49.9541H20.1339H37.4334L38.0687 49.6518C39.4922 48.9746 40.3167 47.6092 40.3167 45.9292V45.3148H41.3865H42.4563L42.486 47.4723L42.5158 49.6298L42.7566 49.8245C42.9831 50.0077 43.1187 50.0172 45.0534 49.9866L47.1094 49.9541L47.7644 49.6441C48.5976 49.2496 49.2388 48.6088 49.6336 47.7762L49.9438 47.1217L49.972 41.3341L50 35.5465L49.7564 35.3031C49.4472 34.9941 49.0734 34.9928 48.7666 35.2995L48.5266 35.5392V41.0444C48.5266 47.2245 48.5376 47.118 47.8293 47.8329C47.2557 48.4117 46.7915 48.5379 45.235 48.5379H43.933V25V1.46212H45.235C46.7915 1.46212 47.2557 1.58831 47.8293 2.16709C48.5785 2.92333 48.5266 1.72387 48.5266 18.2828V33.1153L48.7666 33.355C49.0728 33.6611 49.4471 33.6605 49.7543 33.3535L49.9957 33.1123L49.9697 17.9953L49.9438 2.8783L49.6336 2.22383C49.2388 1.39122 48.5976 0.75042 47.7644 0.355941L47.1094 0.0459439L45.0534 0.0134206C43.1187 -0.017247 42.9831 -0.00767557 42.7566 0.175549L42.5158 0.3702L42.486 2.52768L42.4563 4.68515H41.3865H40.3167V4.07082C40.3167 2.3799 39.5021 1.03102 38.0687 0.34842L37.4334 0.0459439L20.3294 0.0306101C10.5899 0.0219177 3.06739 0.0528783 2.85843 0.102493ZM37.2029 1.57552C37.6931 1.72221 38.3113 2.25499 38.5852 2.76667L38.8017 3.1713L38.8283 11.3225L38.855 19.4739L39.0653 19.6975C39.3449 19.9949 39.7699 19.9882 40.0767 19.6815L40.3167 19.4418V16.8492V14.2566H41.3918H42.4669V24.707V35.1574H41.3937H40.3207L40.2942 28.4585L40.2678 21.7597L40.037 21.5729C39.7435 21.3355 39.4237 21.3355 39.1302 21.5729L38.8995 21.7597L38.8506 34.2941L38.8017 46.8287L38.5852 47.2333C38.3113 47.745 37.6931 48.2778 37.2029 48.4245C36.6512 48.5896 3.60758 48.587 3.05566 48.4217C2.8424 48.3579 2.45643 48.1157 2.19792 47.8834C1.34262 47.115 1.41719 49.3018 1.41719 25C1.41719 1.81431 1.39325 2.97031 1.88545 2.38752C2.13351 2.09374 2.69677 1.69633 3.02986 1.58001C3.46802 1.42696 36.6922 1.42257 37.2029 1.57552ZM4.65953 4.91115L4.44705 5.13726V18.8821V32.627L4.687 32.8666C4.99272 33.1722 5.36744 33.1722 5.67317 32.8666L5.91311 32.627V25.0044V17.3819H20.1339H34.3547V30.6159V43.8498H32.7979H31.2413L31.5284 43.2882C31.9954 42.3749 32.0305 41.9304 31.9853 37.5047C31.9443 33.4817 31.9418 33.4402 31.6833 32.4738C31.347 31.217 30.6134 29.734 29.8711 28.8106L29.2835 28.0797L29.2535 24.6597C29.2206 20.9171 29.228 20.9663 28.614 20.3833C28.2162 20.0055 27.8324 19.9213 26.5087 19.9213C24.9668 19.9213 24.4914 20.1166 24.0819 20.9185C23.9108 21.2534 23.8968 21.5369 23.8968 24.6637V28.0465L23.5073 28.4887C22.6102 29.5072 21.8249 30.9985 21.4358 32.4227C21.2134 33.2368 21.209 33.343 21.209 37.8921V42.5313L21.4975 43.1173C21.6563 43.4396 21.8029 43.7362 21.8233 43.7766C21.8438 43.8169 21.0907 43.8498 20.1498 43.8498H18.4391L18.7221 43.284C18.8799 42.9684 19.0484 42.4178 19.1033 42.0388C19.2353 41.1259 19.2341 32.2672 19.102 31.4528C19.0191 30.9428 18.7227 30.054 18.3584 29.2241C18.3265 29.1515 18.3783 29.1008 18.4863 29.0989C18.7343 29.0947 18.9838 28.8903 19.0937 28.6015C19.2038 28.3121 19.0175 27.796 18.7684 27.7005C18.4942 27.5953 8.85305 27.626 8.65357 27.7326C8.14475 28.0047 8.28217 28.9553 8.8466 29.0681C9.01539 29.1018 9.12867 29.1768 9.10277 29.2374C8.24688 31.2431 8.26243 31.1055 8.26106 36.7201C8.26047 39.3847 8.3025 41.8177 8.35479 42.1407C8.40698 42.463 8.57948 42.9793 8.73811 43.2882L9.02654 43.8498H7.46987H5.91311V39.4504V35.0509L5.67317 34.8112C5.36744 34.5056 4.99272 34.5056 4.687 34.8112L4.44705 35.0509V39.9705V44.8901L4.67321 45.1025L4.89948 45.3148H20.1576H35.4156L35.6181 45.0575L35.8208 44.8001V25V5.19986L35.6181 4.94251L35.4156 4.68515H20.1439H4.87211L4.65953 4.91115ZM34.3547 11.0335V15.9169H32.8398C32.0065 15.9169 31.3248 15.895 31.3248 15.8683C31.3248 15.8416 31.473 15.6108 31.6541 15.3555C32.9025 13.5957 32.6859 11.1347 31.1464 9.58669C29.153 7.58236 25.951 7.77184 24.2144 9.9968L23.9945 10.2786L23.7796 9.9968C22.3114 8.07187 19.5901 7.63256 17.5534 8.99161C17.2254 9.21048 16.8023 9.5783 16.6133 9.80889L16.2695 10.2282L15.6116 9.57351C14.646 8.61256 13.6862 8.20851 12.3571 8.20353C10.6683 8.19728 9.01842 9.22318 8.27689 10.7405C7.46792 12.3958 7.6499 14.0942 8.80809 15.6972L8.96682 15.9169H7.43996H5.91311V11.0335V6.15016H20.1339H34.3547V11.0335ZM42.4669 9.47086V12.7916H41.3918H40.3167V9.47086V6.15016H41.3918H42.4669V9.47086ZM13.5054 9.87657C14.2647 10.1604 14.9968 10.892 15.2808 11.6507C15.864 13.2082 15.1831 14.9002 13.6832 15.6208C12.9618 15.9673 11.8332 15.9641 11.0932 15.6133C9.93373 15.0636 9.28681 14.0536 9.28574 12.7916C9.28535 12.3793 9.34614 11.9096 9.42482 11.7172C10.106 10.0513 11.8586 9.26078 13.5054 9.87657ZM21.5128 9.98664C21.7873 10.1268 22.2131 10.4649 22.4588 10.738C23.8477 12.2817 23.2976 14.7728 21.3728 15.6556C20.6627 15.9813 19.5279 15.9544 18.7946 15.5946C16.8627 14.6466 16.402 12.0877 17.897 10.6089C18.6015 9.91203 19.264 9.65985 20.2805 9.70165C20.836 9.7246 21.1344 9.79356 21.5128 9.98664ZM29.1977 9.95432C29.8357 10.2582 30.4163 10.8501 30.7201 11.5067C31.0575 12.2354 31.0767 13.2949 30.7649 13.9848C30.4732 14.6304 29.7542 15.3638 29.1467 15.6353C28.4497 15.9469 27.2742 15.9574 26.6215 15.6579C25.9655 15.3569 25.4118 14.8123 25.0732 14.1352C24.501 12.9909 24.7316 11.5506 25.6374 10.6102C25.9866 10.2476 26.5201 9.91749 27.0244 9.75175C27.4775 9.60291 28.699 9.71669 29.1977 9.95432ZM10.4579 12.1177C9.98163 12.3908 9.87558 12.8949 10.2174 13.2614C10.3937 13.4506 10.5173 13.4752 11.2925 13.4752C12.038 13.4752 12.1974 13.4461 12.3638 13.2799C12.6271 13.0168 12.622 12.4879 12.3538 12.2454C12.1076 12.0227 10.7796 11.9334 10.4579 12.1177ZM18.2177 12.114C17.9737 12.2083 17.7393 12.56 17.7393 12.8318C17.7393 12.9026 17.8305 13.0764 17.9419 13.2179C18.1347 13.4628 18.1881 13.4752 19.0508 13.4752C20.0349 13.4752 20.1991 13.3986 20.3289 12.8786C20.3765 12.688 20.3317 12.5531 20.1516 12.3439C19.9318 12.0884 19.8475 12.0618 19.1915 12.0398C18.796 12.0265 18.3578 12.06 18.2177 12.114ZM25.9947 12.1032C25.5201 12.2954 25.3684 12.9083 25.7038 13.2786C25.8578 13.4488 26.004 13.4752 26.7881 13.4752C27.6507 13.4752 27.7041 13.4628 27.8969 13.2179C28.2259 12.8001 28.1285 12.3829 27.6417 12.1238C27.3997 11.9951 26.2959 11.9812 25.9947 12.1032ZM16.5495 15.6293L16.7768 15.9169H16.2778H15.7787L15.9955 15.6239C16.1147 15.4628 16.237 15.3334 16.2672 15.3363C16.2974 15.3393 16.4245 15.4712 16.5495 15.6293ZM24.2723 15.6239L24.4891 15.9169H23.99H23.491L23.7183 15.6293C23.8433 15.4712 23.9704 15.3393 24.0006 15.3363C24.0308 15.3334 24.1531 15.4628 24.2723 15.6239ZM27.7092 21.5828C27.7671 21.6909 27.8016 22.1195 27.786 22.5351L27.7574 23.2908L26.5601 23.3183L25.3629 23.3457V22.4229C25.3629 21.7762 25.3994 21.4855 25.485 21.451C25.5523 21.4239 26.0565 21.3982 26.6056 21.394C27.5102 21.387 27.6138 21.4048 27.7092 21.5828ZM27.8063 26.7548V28.7049L28.4488 29.4162C29.1271 30.1671 29.9102 31.5942 30.1922 32.5937L30.3369 33.1064H26.5716H22.8061L22.8736 32.789C23.1138 31.6579 23.9745 30.1091 24.9336 29.0818L25.3629 28.6221V26.7134V24.8047H26.5846H27.8063V26.7548ZM17.1093 30.1031C17.5634 31.0608 17.5857 31.1477 17.6239 32.1053L17.6638 33.1064H13.6943H9.72487V32.5825C9.72487 31.7366 9.88975 31.0985 10.3741 30.0693L10.8295 29.102H13.7321H16.6347L17.1093 30.1031ZM17.6416 37.063V39.5547L13.7077 39.5291L9.77374 39.5036L9.74764 37.0375L9.72155 34.5714H13.6816H17.6416V37.063ZM30.5202 37.0375L30.4941 39.5036L26.5601 39.5291L22.6262 39.5547V37.063V34.5714H26.5862H30.5463L30.5202 37.0375ZM42.4669 40.2361V43.8498H41.3918H40.3167V40.2361V36.6224H41.3918H42.4669V40.2361ZM17.6394 41.5791C17.6369 42.2487 17.4071 42.7962 16.9449 43.2344C16.3413 43.8068 16.1164 43.8498 13.7321 43.8498C11.3471 43.8498 11.1195 43.8062 10.5226 43.2344C10.0695 42.8004 9.84782 42.3264 9.76787 41.6207L9.69965 41.0175H13.6706H17.6416L17.6394 41.5791ZM30.5094 41.6047C30.4375 42.2917 30.1995 42.7992 29.7452 43.2344C29.152 43.8027 28.9126 43.8498 26.6235 43.8498C25.3561 43.8498 24.4105 43.8067 24.1824 43.7384C23.3057 43.4759 22.629 42.5151 22.6272 41.5302L22.6262 41.0175H26.5984H30.5708L30.5094 41.6047Z" fill="#333333"/>
</svg>
