<svg width="41" height="41" viewBox="0 0 41 41" fill="none" xmlns="http://www.w3.org/2000/svg">
<path fill-rule="evenodd" clip-rule="evenodd" d="M8.64966 0.0868284C7.68196 0.45864 6.19594 1.74527 4.44354 3.72858C2.69037 5.71274 0.945144 8.12798 0.311061 9.44762L0 10.0949L0.0989313 10.9522C0.883291 17.7528 6.54066 26.6354 14.1292 32.9813C19.4803 37.4561 25.2579 40.3498 30.0165 40.9383C30.8005 41.0353 30.8468 41.0314 31.3415 40.8288C33.3609 40.0018 38.1262 36.1685 39.9296 33.9205C41.0363 32.5407 41.2281 31.8287 40.7643 30.8213C40.4113 30.0547 39.9515 29.6431 37.9755 28.3251C33.7985 25.539 30.8023 23.9952 29.5718 23.9952C28.5649 23.9952 28.0223 24.3796 26.4681 26.1938C25.8721 26.8894 25.3351 27.4702 25.2747 27.4845C25.0926 27.5276 23.6295 26.9264 22.5979 26.3845C19.1406 24.5685 16.45 21.878 14.6502 18.4369C14.1055 17.3955 13.5021 15.9262 13.5455 15.7472C13.5597 15.6884 14.1339 15.1561 14.8212 14.5644C16.6391 12.9993 17.0259 12.4594 17.0296 11.4819C17.0345 10.1965 15.6011 7.37991 12.7968 3.16436C12.0546 2.04859 11.3119 1.03141 11.0898 0.826518C10.358 0.15122 9.30928 -0.166633 8.64966 0.0868284ZM21.9012 2.70242V4.07063L22.307 4.07132C24.0863 4.0744 26.4495 4.64904 28.2845 5.52487C31.4187 7.02075 33.7867 9.33953 35.3138 12.4082C36.2706 14.3311 36.6775 15.7788 36.8697 17.9452L36.9739 19.121H38.3226H39.6712V18.7452C39.6712 18.0881 39.5048 16.6298 39.3188 15.6577C38.813 13.0137 37.405 9.99696 35.73 7.96884C32.6691 4.26261 28.5675 2.00959 23.8824 1.46103C23.2867 1.39125 22.5972 1.33421 22.3502 1.33421H21.9012V2.70242ZM9.92491 3.74996C11.292 5.68033 12.8156 8.24479 13.7988 10.2703C14.0727 10.8347 14.297 11.3216 14.2972 11.3522C14.2975 11.3828 13.8267 11.8061 13.2511 12.2927C11.7985 13.521 10.916 14.3835 10.7467 14.7407C10.5454 15.1651 10.6192 15.7055 11.059 17.0294C11.9824 19.8087 14.05 23.0199 16.3156 25.1933C18.7624 27.5404 21.8132 29.366 24.6659 30.1901C25.4801 30.4252 25.8612 30.458 26.2148 30.3235C26.5606 30.1918 27.2869 29.4628 28.4936 28.0357C29.1001 27.3185 29.6238 26.7318 29.6573 26.7321C29.6909 26.7322 30.1796 26.9568 30.7435 27.2309C32.7741 28.2185 35.3238 29.7347 37.2324 31.09L38.2226 31.7931L37.5309 32.5514C36.0213 34.2065 32.9918 36.7428 31.113 37.9245L30.5427 38.2832L29.9596 38.1857C22.4185 36.9258 13.0647 29.9806 7.33519 21.3871C4.9071 17.7452 3.38443 14.2346 2.85457 11.0566L2.75752 10.4747L3.05474 9.98498C4.09454 8.27164 6.75194 5.07789 8.44334 3.50873C8.86743 3.11536 9.22095 2.79221 9.22898 2.79067C9.23701 2.78922 9.55021 3.22089 9.92491 3.74996ZM21.9012 9.51894V10.8871L22.5759 10.9434C24.5689 11.1098 26.2992 11.9399 27.7533 13.4271C29.1355 14.8409 29.9054 16.5119 30.0709 18.4582L30.1273 19.121H31.482H32.8366V18.7685C32.8366 17.5888 32.3124 15.4988 31.7201 14.3176C30.6779 12.2386 28.8281 10.3664 26.8136 9.35133C25.5434 8.71144 24.1202 8.31842 22.679 8.20947L21.9012 8.15073V9.51894Z" fill="#333333"/>
</svg>
