<svg width="55" height="44" viewBox="0 0 55 44" fill="none" xmlns="http://www.w3.org/2000/svg">
<path fill-rule="evenodd" clip-rule="evenodd" d="M25.239 0.0549683C16.7718 0.501023 9.51307 2.76758 3.27632 6.91304C0.457347 8.78669 0.00194484 9.30832 6.95749e-06 10.6658C-0.000961983 11.3727 0.0971164 11.6799 1.65377 15.8451C3.43307 20.606 3.58487 20.902 4.47953 21.3572C5.2718 21.7602 5.73678 21.7391 8.12899 21.1922C9.33844 20.9156 10.3911 20.6689 10.4682 20.6439C10.5568 20.6151 10.5784 20.6473 10.5266 20.7314C10.4816 20.8046 8.61001 23.7603 6.36756 27.2997C4.12511 30.8392 2.18518 33.931 2.05664 34.1704C1.82969 34.593 1.82291 34.7138 1.82291 38.3094C1.82291 41.9085 1.82947 42.0254 2.05739 42.4498C2.18626 42.6901 2.4862 43.0617 2.72381 43.2758C3.58832 44.0546 1.68909 43.9991 27.4998 43.9991C47.665 43.9991 50.7857 43.9783 51.2509 43.8406C51.8981 43.6489 52.6141 43.062 52.9382 42.4579C53.1713 42.0233 53.1768 41.9277 53.1768 38.3094C53.1768 34.7244 53.1693 34.5919 52.9453 34.1763C52.818 33.9401 50.8668 30.8294 48.6094 27.2636C46.3519 23.6977 44.5307 20.7544 44.5623 20.7228C44.594 20.6912 45.6222 20.897 46.8471 21.1799C48.5906 21.5827 49.1912 21.6806 49.6122 21.6309C50.244 21.5563 50.9831 21.131 51.4104 20.596C51.6047 20.3528 52.2907 18.6683 53.356 15.8188C54.9044 11.6768 55.0013 11.3729 55 10.6658C54.9976 9.41213 54.6432 8.95019 52.5311 7.44767C48.7563 4.76254 44.0011 2.62255 39.0733 1.3912C34.8144 0.327003 29.6127 -0.175305 25.239 0.0549683ZM30.1375 1.92163C38.1039 2.40226 45.1528 4.68428 51.1228 8.71562C52.6262 9.73076 53.2306 10.2712 53.2306 10.6C53.2306 10.8777 50.1868 19.1188 49.9527 19.4753C49.8647 19.609 49.6579 19.7477 49.4931 19.7834C49.2985 19.8256 47.5695 19.4727 44.564 18.7776C40.389 17.8119 39.9108 17.6794 39.6923 17.4278C39.4571 17.1568 39.4501 17.0811 39.4501 14.81C39.4501 11.6059 39.3318 11.2609 37.9041 10.3002C36.1987 9.15266 33.827 8.16672 31.6798 7.71251C29.2655 7.20183 25.7342 7.20183 23.3198 7.71251C21.1727 8.16672 18.801 9.15266 17.0956 10.3002C15.6679 11.2609 15.5496 11.6059 15.5496 14.81C15.5496 17.0846 15.5429 17.1565 15.3059 17.4312C15.0847 17.6876 14.636 17.812 10.4343 18.7809C7.43437 19.4727 5.70093 19.8253 5.5066 19.7834C5.34178 19.7477 5.13496 19.609 5.047 19.4753C4.81284 19.1188 1.76908 10.8777 1.76908 10.6C1.76908 10.271 2.37391 9.73044 3.87685 8.71616C11.1986 3.77499 20.5886 1.34547 30.1375 1.92163ZM30.299 9.33312C31.3166 9.47708 32.5492 9.78433 33.5555 10.1448C35.0182 10.6688 37.2864 11.92 37.4735 12.3061C37.5228 12.4077 37.5879 13.6502 37.6184 15.0673C37.6791 17.8946 37.7238 18.1066 38.4018 18.7827C38.8698 19.2494 39.3723 19.4684 40.6005 19.741C41.2036 19.8748 41.7434 20.0132 41.8001 20.0486C41.8938 20.107 50.9821 34.3975 51.2754 34.9475C51.3622 35.1104 51.4004 36.1507 51.4004 38.35V41.518L51.1406 41.8192L50.8807 42.1204H27.4998H4.11897L3.85908 41.8192L3.5993 41.518V38.35C3.5993 36.1507 3.63752 35.1104 3.72429 34.9475C4.01756 34.3975 13.1059 20.107 13.1996 20.0486C13.2563 20.0132 13.7961 19.8748 14.3992 19.741C15.6499 19.4633 16.1184 19.2555 16.6 18.7644C17.2854 18.0653 17.3205 17.8993 17.3813 15.0673C17.4118 13.6502 17.4769 12.4077 17.5262 12.3061C17.5754 12.2045 17.9159 11.9323 18.2829 11.7011C20.5314 10.2851 23.1514 9.41535 25.7234 9.23103C27.0691 9.13451 29.2371 9.18293 30.299 9.33312ZM25.8483 16.622C22.5339 17.2217 19.7608 19.3367 18.3485 22.3419C16.045 27.2435 18.0972 33.1107 22.9757 35.5712C25.3214 36.7544 28.3218 36.9463 30.8397 36.0745C32.6612 35.4438 34.3173 34.2454 35.5019 32.701C38.6097 28.6493 38.217 22.9969 34.58 19.432C33.2972 18.1748 31.974 17.3997 30.2328 16.8859C29.4573 16.657 29.001 16.5963 27.8228 16.5656C27.0234 16.5447 26.1349 16.5702 25.8483 16.622ZM29.8145 18.6629C31.2634 19.1183 32.1992 19.6905 33.3196 20.8061C34.198 21.6807 34.4219 21.9797 34.851 22.8505C35.5226 24.2132 35.7221 25.0744 35.7216 26.6078C35.7213 28.0742 35.473 29.1033 34.8166 30.3591C32.7305 34.3508 27.8596 35.9208 23.7856 33.9144C21.717 32.8958 20.1679 30.997 19.5143 28.6788C19.3339 28.0396 19.2783 27.5514 19.2781 26.6078C19.2776 25.0744 19.4771 24.2132 20.1487 22.8505C20.5777 21.9797 20.8017 21.6807 21.6801 20.8061C22.4789 20.0106 22.9016 19.6836 23.5702 19.3433C25.1684 18.5301 26.0129 18.3381 27.769 18.3888C28.7195 18.4162 29.2601 18.4887 29.8145 18.6629ZM26.5723 23.9902C25.5058 24.3675 24.7827 25.4015 24.7796 26.5542C24.7773 27.4121 25.041 28.0099 25.6707 28.5744C26.7587 29.5499 28.241 29.5499 29.329 28.5744C29.9587 28.0099 30.2223 27.4121 30.2201 26.5542C30.215 24.6672 28.355 23.3598 26.5723 23.9902ZM27.8745 25.7481C28.1978 25.8707 28.4585 26.3979 28.3852 26.7804C28.3201 27.1201 27.873 27.4667 27.4998 27.4667C27.1267 27.4667 26.6796 27.1201 26.6144 26.7804C26.5445 26.4153 26.7971 25.8718 27.0917 25.7539C27.4197 25.6227 27.5411 25.6218 27.8745 25.7481Z" fill="#828282"/>
</svg>
