<svg width="43" height="42" viewBox="0 0 43 42" fill="none" xmlns="http://www.w3.org/2000/svg">
<path fill-rule="evenodd" clip-rule="evenodd" d="M8.89775 0.0503292C7.75183 0.162236 6.0429 0.718077 5.00418 1.31683C2.57438 2.71738 0.983919 4.8185 0.228848 7.62535C0.0419078 8.32034 0.0411516 8.35028 0.0130896 16.3507C-0.0181651 25.2336 -0.0394217 24.8452 0.521315 25.6398C0.849826 26.1052 1.45257 26.5337 1.99676 26.6886L2.38635 26.7995L2.42945 32.3698C2.47188 37.8452 2.47574 37.9493 2.65831 38.4735C3.20233 40.0357 4.44563 41.2493 6.04113 41.7755C6.5581 41.9461 6.75588 41.9572 9.74247 41.983C13.3218 42.0139 13.6767 41.9764 14.7677 41.4515C15.9162 40.8989 16.9696 39.688 17.394 38.4325C17.4797 38.179 17.515 36.8177 17.5493 32.4467L17.5936 26.789L17.8555 26.7368C18.6478 26.5787 19.4068 25.9477 19.8067 25.1148L20.0301 24.6493L20.056 17.4295C20.0822 10.1285 20.0418 8.70766 19.7768 7.59196C18.6336 2.77826 13.9824 -0.446112 8.89775 0.0503292ZM31.3965 0.116702C27.7365 0.702652 24.6569 3.27412 23.485 6.72288C22.9683 8.24338 22.9708 8.19399 22.9708 16.8142V24.6493L23.2062 25.1415C23.5884 25.9406 24.2567 26.5152 25.0251 26.7057L25.4073 26.8005L25.4493 32.4934L25.4913 38.1863L25.7135 38.7015C26.2642 39.9777 27.1299 40.9183 28.2525 41.4598C29.2815 41.9564 29.6513 41.9983 33.0185 41.9999C35.7225 42.0012 36.0707 41.9858 36.6566 41.8395C38.3952 41.4053 39.7536 40.1649 40.3426 38.4735C40.5252 37.9493 40.529 37.8452 40.5715 32.3698L40.6146 26.7995L41.0042 26.6886C41.5484 26.5337 42.1511 26.1052 42.4796 25.6398C43.0395 24.8464 43.0184 25.2305 42.9867 16.3929C42.9555 7.71765 42.9742 8.0811 42.486 6.68186C41.5831 4.09422 39.4899 1.87226 36.9463 0.801432C35.3017 0.109072 33.123 -0.159783 31.3965 0.116702ZM11.8804 2.69671C14.6248 3.40219 16.6834 5.49839 17.3631 8.27973C17.4718 8.72473 17.4998 9.66223 17.529 13.8401L17.5641 18.8652H10.0342H2.50423L2.53237 13.717C2.55968 8.72399 2.56598 8.55022 2.74258 7.9518C3.58823 5.08645 5.86974 3.05597 8.81844 2.54468C9.53637 2.42014 11.1083 2.49816 11.8804 2.69671ZM34.8611 2.69342C37.4987 3.38578 39.4807 5.31675 40.2583 7.9518C40.4349 8.55022 40.4412 8.72399 40.4686 13.717L40.4967 18.8652H32.973H25.4493V14.4026C25.4493 11.8661 25.4875 9.57666 25.5378 9.09827C25.8843 5.80105 28.2538 3.26748 31.6358 2.5784C32.4271 2.41719 34.026 2.47421 34.8611 2.69342ZM17.5327 22.7023C17.547 23.5299 17.522 24.0988 17.4668 24.1996C17.379 24.3596 17.2679 24.3621 10.0459 24.3621C4.45538 24.3621 2.69007 24.3387 2.6132 24.2637C2.54254 24.1947 2.51238 23.7403 2.51238 22.7455V21.3256L10.011 21.3466L17.5096 21.3675L17.5327 22.7023ZM40.4885 22.7459C40.4885 23.7404 40.4584 24.1947 40.3877 24.2637C40.3108 24.3387 38.5455 24.3621 32.9551 24.3621C25.7923 24.3621 25.6212 24.3584 25.5363 24.2034C25.4412 24.0299 25.4131 21.4712 25.5054 21.3812C25.5361 21.3511 28.9199 21.3265 33.025 21.3265H40.4885V22.7459ZM15.0311 32.2251V37.6269L14.7698 38.1374C14.591 38.4868 14.3765 38.7499 14.0904 38.9707C13.3724 39.5249 13.1699 39.5513 9.84942 39.5236C7.00003 39.4997 6.91207 39.494 6.49492 39.3097C5.96081 39.0735 5.43637 38.5585 5.18398 38.0223L4.99091 37.612L4.96755 32.2177L4.94428 26.8234H9.98763H15.0311V32.2251ZM38.0334 32.2177C38.0103 37.5489 38.0079 37.6165 37.8285 37.9957C37.5719 38.5378 37.0304 39.0784 36.5168 39.3052C36.0861 39.4952 36.021 39.4995 33.1515 39.5236C29.849 39.5512 29.6654 39.5277 28.9373 38.9854C28.6482 38.7702 28.4335 38.5132 28.2442 38.1561L27.9699 37.6387V32.2311V26.8234H33.0133H38.0566L38.0334 32.2177Z" fill="#333333"/>
</svg>
    