<svg width="58" height="40" viewBox="0 0 58 40" fill="none" xmlns="http://www.w3.org/2000/svg">
<path fill-rule="evenodd" clip-rule="evenodd" d="M5.91869 0.192434C5.51807 0.317681 5.16305 0.558887 4.72981 0.999988C3.69493 2.05351 3.74194 1.53419 3.74194 11.9245V20.9511H2.15804C0.632153 20.9511 0.563512 20.9618 0.287077 21.2434L0 21.5355V27.6182V33.7009L0.287077 33.993C0.44494 34.1538 0.655423 34.2853 0.754819 34.2853C0.905198 34.2853 0.935484 34.4761 0.935484 35.4217C0.935484 36.4696 0.957819 36.581 1.22256 36.8504C1.45819 37.0904 1.6254 37.1427 2.15804 37.1427H2.80645V38.2791C2.80645 39.327 2.82879 39.4383 3.09353 39.7077C3.37254 39.9919 3.42867 40 5.12692 40C6.61785 40 6.90948 39.9695 7.1209 39.7917C7.2659 39.6696 7.52994 39.0902 7.7582 38.3927L8.14806 37.2022H28.9415H49.735L50.1249 38.3927C50.3531 39.0902 50.6172 39.6696 50.7622 39.7917C50.9736 39.9695 51.2652 40 52.7561 40C54.4544 40 54.5105 39.9919 54.7895 39.7077C55.0543 39.4383 55.0766 39.327 55.0766 38.2791V37.1427H55.7835C56.3782 37.1427 56.5361 37.0962 56.7774 36.8504C57.0422 36.581 57.0645 36.4696 57.0645 35.4217C57.0645 34.4761 57.0948 34.2853 57.2452 34.2853C57.3446 34.2853 57.5551 34.1538 57.7129 33.993L58 33.7009V27.6182V21.5355L57.7129 21.2434C57.4365 20.9618 57.3678 20.9511 55.842 20.9511H54.2581V11.9166C54.2581 1.53514 54.3067 2.0653 53.2562 0.989393C52.1986 -0.0938948 54.4231 -0.00376974 28.9495 0.00563566C9.33367 0.012779 6.41754 0.0364711 5.91869 0.192434ZM51.9464 2.35091L52.3286 2.74011L52.36 11.8456L52.3914 20.9511H50.0505H47.7097V18.5837C47.7097 15.6803 47.6072 15.2449 46.7078 14.3236C45.7319 13.3242 45.7876 13.3315 39.2903 13.3315C32.7831 13.3315 32.8529 13.3221 31.8573 14.3358C30.9672 15.2419 30.871 15.6574 30.871 18.5917V20.9511H29H27.129V18.5837C27.129 15.6803 27.0266 15.2449 26.1271 14.3236C25.1513 13.3242 25.207 13.3315 18.7097 13.3315C12.2025 13.3315 12.2723 13.3221 11.2767 14.3358C10.3866 15.2419 10.2903 15.6574 10.2903 18.5917V20.9511H7.94951H5.60858L5.64003 11.8529L5.67137 2.75463L5.96371 2.43449C6.1245 2.25841 6.36129 2.0697 6.48992 2.01529C6.61855 1.96089 16.8129 1.9266 29.1439 1.93898L51.5641 1.96172L51.9464 2.35091ZM24.8173 15.6849L25.1996 16.0739L25.2355 18.5125L25.2714 20.9511H18.7097H12.148L12.1839 18.5197C12.2194 16.1143 12.2229 16.0851 12.5121 15.7685C12.6729 15.5925 12.9097 15.4033 13.0383 15.3482C13.1669 15.2931 15.7838 15.2588 18.8536 15.272L24.4352 15.296L24.8173 15.6849ZM45.398 15.6849L45.7802 16.0739L45.8161 18.5125L45.852 20.9511H39.2903H32.7286L32.7645 18.5197C32.8001 16.1143 32.8036 16.0851 33.0927 15.7685C33.2535 15.5925 33.4903 15.4033 33.6189 15.3482C33.7476 15.2931 36.3645 15.2588 39.4343 15.272L45.0158 15.296L45.398 15.6849ZM56.129 27.6182V32.3804H29H1.87097V27.6182V22.856H29H56.129V27.6182ZM55.1936 34.7616V35.2378H29H2.80645V34.7616V34.2853H29H55.1936V34.7616ZM6.0341 37.5891C5.88829 38.0194 5.86092 38.0369 5.2801 38.0715L4.67742 38.1076V37.6251V37.1427H5.43142H6.1853L6.0341 37.5891ZM53.2056 37.6251V38.1076L52.603 38.0715C52.0221 38.0369 51.9948 38.0194 51.849 37.5891L51.6978 37.1427H52.4516H53.2056V37.6251Z" fill="#828282"/>
</svg>
