<svg width="58" height="42" viewBox="0 0 58 42" fill="none" xmlns="http://www.w3.org/2000/svg">
<path fill-rule="evenodd" clip-rule="evenodd" d="M0.287077 0.292924L0 0.585728V19.0907V37.5958L0.287077 37.8886C0.563512 38.1708 0.632153 38.1815 2.15804 38.1815H3.74194V39.7976C3.74194 41.3546 3.75246 41.4247 4.02901 41.7067C4.30837 41.9919 4.36298 41.9996 6.08065 41.9996C8.31177 41.9996 8.21343 42.0798 8.75297 39.8221L9.14494 38.1815H29H48.8551L49.247 39.8221C49.7866 42.0798 49.6882 41.9996 51.9194 41.9996C53.637 41.9996 53.6916 41.9919 53.971 41.7067C54.2475 41.4247 54.2581 41.3546 54.2581 39.7976V38.1815H55.842C57.3678 38.1815 57.4365 38.1708 57.7129 37.8886L58 37.5958V19.0907V0.585728L57.7129 0.292924L57.426 0H29H0.574036L0.287077 0.292924ZM56.129 16.2271V30.5452H29H1.87097V16.2271V1.90907H29H56.129V16.2271ZM56.129 34.3633V36.2724H29H1.87097V34.3633V32.4543H29H56.129V34.3633ZM26.4806 33.7017C26.2996 33.8863 26.1935 34.1309 26.1935 34.3633C26.1935 34.5958 26.2996 34.8404 26.4806 35.025C26.7652 35.3155 26.7857 35.3179 29 35.3179C31.2143 35.3179 31.2348 35.3155 31.5194 35.025C31.7004 34.8404 31.8065 34.5958 31.8065 34.3633C31.8065 34.1309 31.7004 33.8863 31.5194 33.7017C31.2348 33.4112 31.2143 33.4088 29 33.4088C26.7857 33.4088 26.7652 33.4112 26.4806 33.7017ZM6.9883 39.136L6.75338 40.0906H6.18308H5.6129V39.136V38.1815H6.418H7.22322L6.9883 39.136ZM52.3871 39.136V40.0906H51.8169H51.2466L51.0117 39.136L50.7768 38.1815H51.582H52.3871V39.136Z" fill="#333333"/>
</svg>
