<svg width="23" height="26" viewBox="0 0 23 26" fill="none" xmlns="http://www.w3.org/2000/svg">
<path fill-rule="evenodd" clip-rule="evenodd" d="M11.1429 14.1819C6.35639 14.1819 2.47619 17.8857 2.47619 22.4546V24.8183C2.47619 25.471 1.92188 26.0001 1.2381 26.0001C0.554314 26.0001 0 25.471 0 24.8183V22.4546C0 16.5803 4.98883 11.8182 11.1429 11.8182C17.2969 11.8182 22.2857 16.5803 22.2857 22.4546V24.8183C22.2857 25.471 21.7314 26.0001 21.0476 26.0001C20.3638 26.0001 19.8095 25.471 19.8095 24.8183V22.4546C19.8095 17.8857 15.9293 14.1819 11.1429 14.1819Z" fill="#333333"/>
<path fill-rule="evenodd" clip-rule="evenodd" d="M11.1454 11.8182C13.8805 11.8182 16.0978 9.70174 16.0978 7.09093C16.0978 4.48012 13.8805 2.36364 11.1454 2.36364C8.41024 2.36364 6.19299 4.48012 6.19299 7.09093C6.19299 9.70174 8.41024 11.8182 11.1454 11.8182ZM11.1454 14.1819C15.2481 14.1819 18.5739 11.0071 18.5739 7.09093C18.5739 3.17472 15.2481 0 11.1454 0C7.04268 0 3.7168 3.17472 3.7168 7.09093C3.7168 11.0071 7.04268 14.1819 11.1454 14.1819Z" fill="#333333"/>
</svg>

