<svg width="50" height="50" viewBox="0 0 50 50" fill="none" xmlns="http://www.w3.org/2000/svg">
<path fill-rule="evenodd" clip-rule="evenodd" d="M22.5541 0.0852314C19.8615 0.348386 16.601 1.26857 14.1276 2.46337C11.4504 3.75664 9.44353 5.18444 7.31985 7.30676C4.49869 10.126 2.50874 13.3382 1.28502 17.0479C-0.80196 23.3747 -0.337147 30.0115 2.60848 35.9452C5.82215 42.4191 11.5545 47.1568 18.5324 49.106C25.9721 51.1842 34.0374 49.5942 40.3437 44.8061C41.6419 43.8204 43.8569 41.6068 44.8432 40.3094C47.5003 36.8145 49.1737 32.8268 49.8163 28.4595C50.061 26.796 50.0613 23.285 49.8169 21.6772C48.994 16.266 46.7219 11.6191 43.0246 7.78605C39.4516 4.08199 35.3211 1.7355 30.3462 0.583809C28.1818 0.0827194 24.7959 -0.133913 22.5541 0.0852314ZM28.4359 1.93274C38.3116 3.44204 46.1184 10.9649 47.9348 20.7226C50.2906 33.3777 41.9541 45.5274 29.2905 47.8946C17.4991 50.0988 5.89183 42.9338 2.60747 31.4236C-0.809802 19.4475 5.71577 6.98031 17.5269 2.91975C19.0679 2.39002 21.1633 1.95233 23.1574 1.74374C24.0005 1.65552 27.4242 1.7781 28.4359 1.93274ZM23.3082 3.25826C20.5853 3.46364 17.7475 4.25672 15.2144 5.52004C5.54787 10.3411 0.905873 21.5769 4.35904 31.7952C5.49206 35.1479 7.12077 37.7539 9.68453 40.316C11.5792 42.2095 13.3616 43.4924 15.6202 44.5884C23.912 48.6121 33.9279 46.9456 40.4004 40.4653C42.2238 38.6396 43.4173 36.9661 44.5803 34.6039C47.1205 29.4447 47.5034 23.662 45.6682 18.1726C44.5754 14.9039 42.8982 12.2207 40.3503 9.66531C38.3963 7.70567 36.449 6.33061 34.0663 5.22815C30.7652 3.70077 26.878 2.98898 23.3082 3.25826ZM26.9422 5.00027C34.0017 5.6991 40.127 10.0063 43.1842 16.4213C44.7254 19.6551 45.3774 23.38 45.0214 26.9166C44.0551 36.5129 36.5447 44.0185 26.9422 44.9841C18.6694 45.816 10.6593 41.3255 6.96543 33.7849C2.04935 23.7495 6.29782 11.6663 16.4402 6.83793C19.6814 5.29497 23.3805 4.64769 26.9422 5.00027ZM22.6546 12.2382C17.9458 12.7263 13.3978 14.5202 9.83534 17.2945C7.99158 18.7303 7.70955 19.0919 7.70955 20.0193C7.70955 21.2045 8.49831 21.979 9.70464 21.9782C10.3844 21.9778 10.5955 21.8685 11.7343 20.9269C18.0227 15.7277 26.88 14.6938 34.2171 18.3024C35.7007 19.032 37.2899 20.0594 38.4028 21.0084C39.3747 21.8371 39.6849 21.993 40.3633 21.993C41.4865 21.993 42.3109 21.1596 42.3109 20.0241C42.3109 19.2165 42.0472 18.8016 40.9563 17.893C37.9644 15.4012 34.0114 13.4782 30.2457 12.6829C28.1187 12.2338 24.6552 12.0308 22.6546 12.2382ZM27.1288 13.8467C31.8565 14.2831 36.2486 16.1013 39.9284 19.1454C40.5874 19.6905 40.7081 19.8366 40.6825 20.0576C40.6274 20.532 40.2682 20.4542 39.4637 19.7939C36.194 17.1097 32.7526 15.5439 28.5364 14.8223C27.5189 14.6482 26.8586 14.6066 25.0677 14.6039C23.7282 14.6018 22.5384 14.6517 22.0514 14.7302C17.5432 15.4562 14.125 16.9369 10.8159 19.5969C9.754 20.4505 9.41055 20.5586 9.35233 20.0576C9.32669 19.8366 9.44745 19.6905 10.1064 19.1454C12.8971 16.8368 15.9766 15.2819 19.4331 14.4363C21.9949 13.8095 24.5795 13.6114 27.1288 13.8467ZM22.9563 17.869C21.8237 17.987 20.3302 18.3118 19.0221 18.7246C16.0778 19.6537 12.2695 22.0819 11.7904 23.3357C11.332 24.5351 12.1885 25.8678 13.4869 25.9753C14.1789 26.0326 14.6149 25.8311 15.7957 24.9077C17.4833 23.588 19.6496 22.5924 21.9006 22.1023C22.9137 21.8817 23.2994 21.8504 25.0174 21.8504C26.7354 21.8504 27.1211 21.8817 28.1343 22.1023C30.3852 22.5924 32.5515 23.588 34.2392 24.9077C35.4199 25.8311 35.8559 26.0326 36.5479 25.9753C37.8464 25.8678 38.7028 24.5351 38.2444 23.3357C37.771 22.0968 34.0237 19.6962 31.05 18.7269C28.498 17.895 25.6273 17.5908 22.9563 17.869ZM26.8775 19.4688C30.2676 19.8468 33.4849 21.1735 36.1027 23.273C36.725 23.772 36.8678 24.0138 36.6764 24.2442C36.4678 24.4955 36.2353 24.4086 35.466 23.7919C29.4163 18.9411 20.4086 19.0081 14.3734 23.9485C13.8059 24.4131 13.5585 24.4852 13.3584 24.2442C13.1671 24.0138 13.3098 23.772 13.9321 23.273C17.5474 20.3736 22.3461 18.9633 26.8775 19.4688ZM22.9732 23.5359C22.4848 23.6157 21.7383 23.778 21.3142 23.8967C19.0746 24.5237 16.2995 26.1725 15.8615 27.1364C15.2123 28.5654 16.316 30.1625 17.8346 29.9914C18.2705 29.9423 18.428 29.8591 19.9674 28.8638C21.5524 27.8392 23.4992 27.3353 25.4699 27.4397C27.4211 27.5429 28.8128 28.0153 30.5476 29.1631C31.7864 29.9827 32.1685 30.1091 32.8541 29.9258C34.1994 29.5662 34.7912 28.0548 34.0344 26.9116C33.5227 26.1391 31.0484 24.6471 29.3408 24.0815C27.4956 23.4704 24.7937 23.2389 22.9732 23.5359ZM27.6315 25.2816C29.2227 25.6452 31.0865 26.4974 32.1982 27.3693C32.7531 27.8045 32.8729 28.0546 32.6386 28.2887C32.442 28.4851 32.29 28.4336 31.6285 27.9461C29.8373 26.6264 27.2879 25.798 25.0174 25.798C22.7428 25.798 20.1979 26.6262 18.3985 27.9519C17.7478 28.4313 17.526 28.4829 17.3457 28.1969C17.1889 27.9479 17.3135 27.7586 17.9368 27.2983C19.4837 26.1563 21.4225 25.3965 23.6601 25.0553C24.3433 24.9511 26.7976 25.0909 27.6315 25.2816ZM23.8222 28.3672C21.2729 29.0523 19.6956 31.6902 20.3453 34.1826C21.0179 36.7634 23.6535 38.3554 26.1694 37.7005C28.5593 37.0784 30.1208 34.7778 29.7761 32.387C29.3666 29.5458 26.5393 27.6369 23.8222 28.3672ZM26.3748 30.1255C27.0103 30.4268 27.6159 31.0286 27.9338 31.6748C28.1379 32.0896 28.1808 32.3263 28.1801 33.0313C28.1793 33.8098 28.1491 33.9415 27.8384 34.5185C27.4586 35.2239 27.1428 35.5286 26.3855 35.9208C25.9504 36.1462 25.7416 36.1873 25.0174 36.1899C24.3091 36.1924 24.0767 36.1506 23.6601 35.9458C21.0464 34.6615 21.2641 30.9755 24.0125 29.9775C24.647 29.7471 25.7184 29.8142 26.3748 30.1255Z" fill="#333333"/>
</svg>
