<svg width="43" height="44" viewBox="0 0 43 44" fill="none" xmlns="http://www.w3.org/2000/svg">
<path fill-rule="evenodd" clip-rule="evenodd" d="M19.3965 0.0750036C17.0809 0.30658 14.2769 1.11634 12.1498 2.16777C9.84732 3.30584 8.12143 4.56231 6.29507 6.42995C3.86888 8.91088 2.15751 11.7376 1.10512 15.0022C-0.689685 20.5697 -0.289946 26.4101 2.24329 31.6318C5.00705 37.3288 9.9369 41.498 15.9378 43.2132C22.336 45.0421 29.2721 43.6429 34.6955 39.4293C35.812 38.5619 37.7169 36.614 38.5651 35.4723C40.8502 32.3967 42.2894 28.8876 42.842 25.0444C43.0525 23.5805 43.0527 20.4908 42.8425 19.0759C42.1349 14.3141 40.1809 10.2248 37.0011 6.85172C33.9284 3.59215 30.3762 1.52724 26.0977 0.513752C24.2364 0.0727931 21.3245 -0.117844 19.3965 0.0750036ZM24.4549 1.70081C32.948 3.02899 39.6618 9.64912 41.2239 18.2359C43.2499 29.3723 36.0805 40.0641 25.1898 42.1472C15.0492 44.0869 5.06697 37.7818 2.24242 27.6528C-0.69643 17.1138 4.91557 6.14267 15.0732 2.56938C16.3984 2.10322 18.2004 1.71805 19.9153 1.53449C20.6404 1.45686 23.5848 1.56473 24.4549 1.70081ZM20.045 2.86727C17.7033 3.048 15.2629 3.74591 13.0844 4.85764C4.77117 9.10019 0.779051 18.9877 3.74877 27.9798C4.72318 30.9302 6.12386 33.2235 8.32869 35.4781C9.95809 37.1443 11.491 38.2733 13.4334 39.2378C20.5644 42.7786 29.178 41.3121 34.7443 35.6094C36.3125 34.0028 37.3389 32.5301 38.339 30.4514C40.5236 25.9113 40.8529 20.8226 39.2747 15.9919C38.3349 13.1154 36.8924 10.7542 34.7013 8.50547C33.0208 6.78099 31.3461 5.57094 29.297 4.60077C26.4581 3.25668 23.1151 2.6303 20.045 2.86727ZM23.1703 4.40023C29.2414 5.01521 34.5092 8.80557 37.1384 14.4508C38.4639 17.2965 39.0245 20.5744 38.7184 23.6866C37.8874 32.1314 31.4285 38.7363 23.1703 39.586C16.0557 40.3181 9.167 36.3664 5.99027 29.7307C1.76244 20.8995 5.41613 10.2664 14.1386 6.01738C16.926 4.65957 20.1072 4.08996 23.1703 4.40023ZM19.483 10.7696C15.4334 11.1991 11.5221 12.7777 8.4584 15.2191C6.87276 16.4827 6.63021 16.8008 6.63021 17.617C6.63021 18.66 7.30855 19.3415 8.34599 19.3408C8.93059 19.3405 9.11209 19.2443 10.0915 18.4157C15.4995 13.8404 23.1168 12.9305 29.4267 16.1061C30.7026 16.7481 32.0693 17.6522 33.0264 18.4874C33.8623 19.2167 34.129 19.3538 34.7124 19.3538C35.6784 19.3538 36.3874 18.6205 36.3874 17.6212C36.3874 16.9106 36.1606 16.5454 35.2224 15.7459C32.6494 13.553 29.2498 11.8608 26.0113 11.1609C24.1821 10.7657 21.2034 10.5871 19.483 10.7696ZM23.3308 12.1851C27.3966 12.5691 31.1738 14.1691 34.3384 16.848C34.9051 17.3276 35.009 17.4562 34.9869 17.6507C34.9396 18.0682 34.6306 17.9997 33.9388 17.4186C31.1269 15.0565 28.1673 13.6787 24.5413 13.0436C23.6663 12.8904 23.0984 12.8538 21.5582 12.8514C20.4063 12.8496 19.383 12.8935 18.9642 12.9625C15.0872 13.6015 12.1475 14.9045 9.30171 17.2452C8.38844 17.9965 8.09307 18.0916 8.043 17.6507C8.02096 17.4562 8.1248 17.3276 8.69151 16.848C11.0915 14.8164 13.7399 13.4481 16.7125 12.7039C18.9156 12.1523 21.1384 11.9781 23.3308 12.1851ZM19.7424 15.7247C18.7684 15.8285 17.484 16.1144 16.359 16.4776C13.8269 17.2953 10.5518 19.4321 10.1398 20.5354C9.74555 21.5909 10.4821 22.7636 11.5987 22.8582C12.1939 22.9087 12.5688 22.7314 13.5843 21.9188C15.0356 20.7574 16.8987 19.8813 18.8345 19.45C19.7058 19.2559 20.0375 19.2284 21.515 19.2284C22.9924 19.2284 23.3241 19.2559 24.1955 19.45C26.1313 19.8813 27.9943 20.7574 29.4457 21.9188C30.4612 22.7314 30.8361 22.9087 31.4312 22.8582C32.5479 22.7636 33.2844 21.5909 32.8902 20.5354C32.483 19.4452 29.2604 17.3327 26.703 16.4797C24.5083 15.7476 22.0395 15.4799 19.7424 15.7247ZM23.1146 17.1325C26.0301 17.4651 28.797 18.6327 31.0484 20.4802C31.5835 20.9193 31.7063 21.1322 31.5417 21.3349C31.3623 21.5561 31.1623 21.4796 30.5008 20.9368C25.298 16.6682 17.5514 16.7271 12.3611 21.0747C11.8731 21.4835 11.6603 21.5469 11.4882 21.3349C11.3237 21.1322 11.4465 20.9193 11.9816 20.4802C15.0908 17.9287 19.2176 16.6877 23.1146 17.1325ZM19.7569 20.7116C19.3369 20.7818 18.6949 20.9246 18.3302 21.0291C16.4041 21.5808 14.0176 23.0318 13.6409 23.88C13.0826 25.1376 14.0317 26.543 15.3377 26.3925C15.7127 26.3492 15.8481 26.276 17.172 25.4002C18.535 24.4985 20.2093 24.055 21.9041 24.1469C23.5822 24.2378 24.779 24.6535 26.2709 25.6635C27.3363 26.3848 27.6649 26.496 28.2545 26.3347C29.4115 26.0182 29.9205 24.6882 29.2695 23.6822C28.8295 23.0024 26.7016 21.6895 25.2331 21.1918C23.6462 20.654 21.3226 20.4503 19.7569 20.7116ZM23.7631 22.2478C25.1316 22.5678 26.7344 23.3177 27.6905 24.085C28.1677 24.468 28.2707 24.688 28.0692 24.8941C27.9002 25.0669 27.7694 25.0216 27.2005 24.5925C25.66 23.4312 23.4676 22.7023 21.515 22.7023C19.5588 22.7023 17.3702 23.431 15.8227 24.5977C15.2631 25.0195 15.0724 25.065 14.9173 24.8132C14.7824 24.5941 14.8896 24.4275 15.4257 24.0225C16.756 23.0176 18.4233 22.3489 20.3477 22.0487C20.9352 21.957 23.046 22.08 23.7631 22.2478ZM20.4871 24.9631C18.2947 25.5661 16.9383 27.8874 17.4969 30.0807C18.0754 32.3518 20.342 33.7528 22.5057 33.1764C24.561 32.629 25.9039 30.6045 25.6075 28.5006C25.2553 26.0003 22.8238 24.3205 20.4871 24.9631ZM22.6823 26.5104C23.2288 26.7756 23.7496 27.3051 24.0231 27.8739C24.1986 28.2389 24.2355 28.4471 24.2349 29.0676C24.2342 29.7526 24.2083 29.8685 23.941 30.3763C23.6144 30.997 23.3428 31.2652 22.6915 31.6103C22.3173 31.8086 22.1378 31.8448 21.515 31.8471C20.9058 31.8493 20.706 31.8125 20.3477 31.6323C18.0999 30.5021 18.2871 27.2584 20.6507 26.3802C21.1964 26.1774 22.1178 26.2365 22.6823 26.5104Z" fill="#828282"/>
</svg>
