<svg width="54" height="54" viewBox="0 0 54 54" fill="none" xmlns="http://www.w3.org/2000/svg">
<circle cx="27" cy="27" r="26" stroke="#F4C5A1" stroke-width="2"/>
<path d="M32.8312 16.005L29.6332 16C26.0403 16 23.7184 18.3183 23.7184 21.9064V24.6297H20.5029C20.225 24.6297 20 24.8489 20 25.1193V29.065C20 29.3354 20.2253 29.5544 20.5029 29.5544H23.7184V39.5106C23.7184 39.781 23.9434 40 24.2212 40H28.4166C28.6944 40 28.9194 39.7808 28.9194 39.5106V29.5544H32.6791C32.957 29.5544 33.182 29.3354 33.182 29.065L33.1835 25.1193C33.1835 24.9895 33.1304 24.8651 33.0362 24.7733C32.9421 24.6814 32.8138 24.6297 32.6804 24.6297H28.9194V22.3212C28.9194 21.2116 29.1911 20.6483 30.6764 20.6483L32.8307 20.6475C33.1083 20.6475 33.3333 20.4283 33.3333 20.1582V16.4944C33.3333 16.2245 33.1086 16.0055 32.8312 16.005Z" fill="#E0B08B"/>
</svg>
