<svg width="54" height="54" viewBox="0 0 54 54" fill="none" xmlns="http://www.w3.org/2000/svg">
<circle cx="27" cy="27" r="26" stroke="#E0B08B" stroke-width="2"/>
<path d="M27.0049 16C30.2587 16 30.6481 16.0144 31.9092 16.0742H31.9131C33.0897 16.1261 33.8539 16.3127 34.5078 16.5654L34.5166 16.5693C35.177 16.8179 35.7811 17.2109 36.2803 17.7178L36.2939 17.7314C36.8022 18.2279 37.1912 18.8258 37.4453 19.498L37.4492 19.5068C37.6696 20.0734 37.84 20.7321 37.9141 21.6768L37.9404 22.1006C37.9956 23.3553 38 23.7433 38 27.002C38 30.2548 37.9859 30.6464 37.9307 31.9043C37.8853 32.934 37.7362 33.6482 37.5303 34.249L37.4385 34.5C36.9163 35.8496 35.8493 36.9175 34.499 37.4395H34.4971C33.8496 37.6912 33.0814 37.8787 31.9033 37.9307C30.6449 37.9861 30.254 38 27 38C23.7461 38 23.3549 37.9861 22.0967 37.9307C20.9196 37.8788 20.1553 37.6923 19.501 37.4395L19.4932 37.4355L19.248 37.3359C18.683 37.0872 18.1654 36.7307 17.7285 36.2871L17.7236 36.2812L17.7178 36.2764L17.5332 36.084C17.1143 35.6251 16.785 35.0928 16.5635 34.5068L16.5605 34.498L16.4688 34.249C16.2634 33.652 16.1148 32.9349 16.0693 31.9043C16.0141 30.6464 16 30.2548 16 27.002C16 23.7489 16.0144 23.3595 16.0742 22.0986V22.0957C16.1261 20.9193 16.3126 20.1551 16.5654 19.501L16.5693 19.4922C16.8182 18.8317 17.2109 18.2275 17.7178 17.7285L17.7314 17.7148C18.2281 17.2067 18.8264 16.8176 19.499 16.5635L19.5078 16.5605C20.1555 16.3088 20.9236 16.1213 22.1016 16.0693C23.3599 16.0141 23.7512 16 27.0049 16ZM27.0137 16.1797C24.6076 16.1797 23.7829 16.1877 22.9775 16.2158L22.1211 16.251C21.0018 16.3005 20.2914 16.4756 19.7822 16.6543L19.5918 16.7246C19.0136 16.938 18.4859 17.2615 18.0332 17.6768L17.8691 17.835C17.3553 18.325 16.9698 18.9231 16.7266 19.5742C16.5241 20.0947 16.3036 20.8351 16.2471 22.1191C16.1897 23.4023 16.1758 23.8041 16.1758 27.0117C16.1758 29.4178 16.1838 30.2425 16.2119 31.0479L16.2471 31.9043C16.3029 33.1698 16.5198 33.9124 16.7207 34.4326V34.4336C16.9647 35.0935 17.3517 35.6876 17.8555 36.1797C18.34 36.6755 18.9288 37.0523 19.5703 37.292V37.293C20.0909 37.4954 20.8317 37.715 22.1162 37.7715V37.7725C23.3995 37.8298 23.8018 37.8438 27.0098 37.8438C29.4158 37.8437 30.2405 37.8357 31.0459 37.8076L31.9023 37.7725C33.1816 37.7161 33.9262 37.4946 34.4473 37.292C35.7545 36.7872 36.7918 35.7514 37.2969 34.4443C37.4993 33.9239 37.7197 33.1836 37.7764 31.8994C37.8336 30.6118 37.8477 30.2196 37.8477 27.0117C37.8477 24.6063 37.8396 23.7816 37.8115 22.9766L37.7764 22.1191C37.7197 20.8401 37.4985 20.0952 37.2959 19.5742C37.0515 18.9203 36.667 18.331 36.167 17.8428C35.6786 17.3432 35.0842 16.9637 34.4365 16.7246H34.4355C33.9816 16.5494 33.3609 16.3622 32.3643 16.2803L31.9072 16.251C30.624 16.1938 30.2267 16.1797 27.0137 16.1797Z" fill="#E0B08B" stroke="#E0B08B" stroke-width="2"/>
<path d="M27 21.3335C30.1283 21.3337 32.666 23.8722 32.666 27.0005C32.6658 30.1286 30.1281 32.6663 27 32.6665C23.8719 32.6665 21.3332 30.1287 21.333 27.0005C21.333 23.8721 23.8718 21.3335 27 21.3335ZM27 21.6753C24.06 21.6753 21.6748 24.0603 21.6748 27.0005C21.675 29.9406 24.0601 32.3247 27 32.3247C29.9399 32.3245 32.324 29.9404 32.3242 27.0005C32.3242 24.0604 29.94 21.6755 27 21.6753Z" fill="#E0B08B" stroke="#E0B08B" stroke-width="2"/>
</svg>
