<svg width="54" height="54" viewBox="0 0 54 54" fill="none" xmlns="http://www.w3.org/2000/svg">
<circle cx="27" cy="27" r="26" stroke="#F4C5A1" stroke-width="2"/>
<path d="M37.1522 15.0021C36.8272 15.0177 36.5243 15.1209 36.2577 15.2384C36.008 15.3479 35.0539 15.794 33.551 16.4966C32.0468 17.1998 30.0551 18.132 27.9304 19.128C23.6811 21.1201 18.9038 23.3625 16.4569 24.5101C16.3649 24.5533 16.0438 24.6651 15.7031 24.9551C15.3623 25.2451 15 25.846 15 26.5156C15 27.0556 15.236 27.592 15.5332 27.9122C15.8303 28.2325 16.1446 28.3907 16.4139 28.5105C17.391 28.9451 20.4213 30.297 20.9936 30.5522C21.195 31.2247 22.2918 34.8824 22.5462 35.7788C22.7138 36.3704 22.8735 36.7409 23.0813 37.0349C23.1852 37.182 23.306 37.3108 23.4523 37.4118C23.5108 37.4521 23.575 37.4832 23.6398 37.5118L23.6437 37.514C23.6587 37.5205 23.6715 37.5316 23.6867 37.5374C23.7153 37.5483 23.7344 37.5496 23.7726 37.5587C23.9249 37.6123 24.0787 37.646 24.2159 37.646C24.801 37.646 25.1592 37.2947 25.1592 37.2947L25.1807 37.2776L28.1902 34.4397L31.8402 38.2038C31.8916 38.283 32.3709 39 33.4279 39C34.0556 39 34.5535 38.6567 34.8731 38.291C35.1928 37.9254 35.3919 37.5413 35.4766 37.0584V37.0562C35.5558 36.5999 38.9196 17.774 38.9196 17.774L38.9137 17.7996C39.0122 17.3096 39.038 16.8532 38.9294 16.4029C38.8207 15.9526 38.5344 15.5215 38.1794 15.2895C37.8245 15.0575 37.4772 14.9864 37.1522 15.0021ZM36.9647 17.2801C36.9599 17.3119 36.9683 17.2959 36.9608 17.3333L36.9589 17.3461L36.9569 17.3589C36.9569 17.3589 33.6347 35.9439 33.5119 36.6517C33.5209 36.5983 33.4798 36.7046 33.4377 36.7688C33.3782 36.7241 33.2561 36.6666 33.2561 36.6666L33.2366 36.6432L28.2507 31.5017L24.7256 34.8229L25.7744 30.2456C25.7744 30.2456 32.3299 22.8479 32.7249 22.4173C33.0429 22.0729 33.1096 21.9528 33.1096 21.834C33.1096 21.6748 33.0335 21.5593 32.8635 21.5593C32.7106 21.5593 32.5048 21.7215 32.3948 21.7978C30.9619 22.7936 24.6709 26.7906 21.8509 28.5786C21.4028 28.3787 18.2894 26.9894 17.2342 26.5199C17.2422 26.5161 17.2395 26.5174 17.2478 26.5135C19.6954 25.3655 24.4707 23.1232 28.7194 21.1314C30.8437 20.1355 32.837 19.2026 34.34 18.5C35.8198 17.8082 36.8481 17.332 36.9647 17.2801Z" fill="#E0B08B"/>
</svg>
